<?xml version="1.0" encoding="UTF-8"?>
<svg id="Layer_1" xmlns="http://www.w3.org/2000/svg" version="1.1" viewBox="0 0 167 170.06">
  <!-- Generator: Adobe Illustrator 29.6.0, SVG Export Plug-In . SVG Version: 2.1.1 Build 207)  -->
  <defs>
    <style>
      .st0 {
        fill: #fff;
      }

      .st1 {
        fill: #c6ff34;
      }
    </style>
  </defs>
  <g>
    <path class="st1" d="M121.96,111.82c-.66.28-1.41.18-1.96-.28l-10.15-8.42c-.54-.45-.78-1.18-.63-1.87,1.04-4.71-.73-9.84-5.06-12.83-4.17-2.88-9.72-2.84-13.85-.08l-16.47-13.48c1.18-4.21.08-8.92-3.13-12.11-3.74-3.72-9.11-4.5-13.55-2.62-.66.28-1.41.18-1.96-.28l-10.14-8.43c-.55-.45-.79-1.17-.63-1.87,1.04-4.71-.73-9.85-5.06-12.84-4.76-3.28-11.34-2.75-15.51,1.26-5.38,5.19-4.94,13.75.66,18.4,3.68,3.05,8.59,3.61,12.71,1.85.65-.28,1.41-.17,1.95.28l10.15,8.42c.54.45.78,1.17.63,1.87-.96,4.37.49,9.1,4.16,12.15,4.08,3.39,9.71,3.69,14.06,1.18l16.96,13.88c-.93,4.34.51,9.04,4.17,12.07,3.68,3.05,8.59,3.61,12.71,1.86.66-.28,1.41-.18,1.96.28l10.15,8.42c.54.45.78,1.18.63,1.87-.96,4.36.48,9.1,4.16,12.15,5.6,4.65,14.09,3.51,18.21-2.74,3.18-4.83,2.49-11.39-1.61-15.47-3.74-3.72-9.11-4.5-13.55-2.62h0Z"/>
    <path class="st1" d="M124.38,64.14c.63.33,1.03.97,1.03,1.68v9.47c0,.71-.41,1.35-1.04,1.68-3.94,2.03-6.65,6.14-6.69,10.87-.05,6.51,5.15,12.06,11.66,12.4,7.12.38,13.01-5.28,13.01-12.32,0-4.78-2.72-8.91-6.69-10.96-.63-.33-1.03-.97-1.03-1.68v-9.47c0-.71.41-1.35,1.04-1.68,3.94-2.03,6.65-6.14,6.69-10.87.05-6.51-5.15-12.06-11.66-12.4-7.12-.38-13.01,5.28-13.01,12.32,0,4.78,2.72,8.91,6.69,10.96Z"/>
    <path class="st1" d="M36.98,107.86c-.63-.33-1.03-.97-1.03-1.68v-9.47c0-.71.41-1.35,1.04-1.68,3.94-2.03,6.65-6.14,6.69-10.87.05-6.51-5.15-12.06-11.66-12.4-7.12-.38-13.01,5.28-13.01,12.32,0,4.78,2.72,8.91,6.69,10.96.63.33,1.03.97,1.03,1.68v9.47c0,.71-.41,1.35-1.04,1.68-3.95,2.03-6.66,6.13-6.69,10.87-.05,6.51,5.15,12.06,11.66,12.4,7.12.38,13.01-5.28,13.01-12.32,0-4.78-2.72-8.91-6.69-10.96Z"/>
  </g>
  <g>
    <path class="st0" d="M109.46,67.12c0-4.15-2.06-7.82-5.21-10.06-1.54-1.09-2.52-2.82-2.52-4.72v-5.44c0-1.76.9-3.37,2.35-4.37,3.22-2.21,5.34-5.89,5.37-10.09.05-6.51-5.15-12.06-11.66-12.4-7.12-.38-13.01,5.28-13.01,12.32,0,4.15,2.06,7.82,5.21,10.06,1.54,1.09,2.52,2.82,2.52,4.72v5.44c0,1.03-.31,2.01-.86,2.85-.07-.05-.14-.11-.2-.18l-17.21-17.21c-.5-.5-.67-1.25-.46-1.92,1.47-4.59.18-9.86-3.86-13.24-4.44-3.72-11.04-3.79-15.56-.18-5.85,4.68-6.2,13.24-1.06,18.39,3.38,3.38,8.23,4.38,12.48,3.02.67-.21,1.41-.05,1.92.46l17.21,17.21c.35.35.54.83.54,1.31-.43,1.24-.67,2.56-.68,3.94,0,.1,0,.2.02.3-.03,3.2,1.16,6.4,3.6,8.84,5.15,5.15,13.71,4.79,18.39-1.05,1.8-2.26,2.69-5.03,2.66-7.8,0-.07,0-.14,0-.21h0Z"/>
    <path class="st0" d="M49.7,102.94c0,4.15,2.06,7.82,5.21,10.06,1.54,1.09,2.52,2.82,2.52,4.72v5.44c0,1.76-.9,3.37-2.35,4.37-3.22,2.21-5.34,5.89-5.37,10.09-.05,6.51,5.15,12.06,11.66,12.4,7.12.38,13.01-5.28,13.01-12.32,0-4.15-2.06-7.82-5.21-10.06-1.54-1.09-2.52-2.82-2.52-4.72v-5.44c0-1.03.31-2.01.86-2.85.07.05.14.11.2.18l17.21,17.21c.5.5.67,1.25.46,1.92-1.47,4.59-.18,9.86,3.86,13.24,4.44,3.72,11.04,3.79,15.56.18,5.85-4.68,6.2-13.24,1.06-18.39-3.38-3.38-8.23-4.38-12.48-3.02-.67.21-1.41.05-1.92-.46l-17.21-17.21c-.35-.35-.54-.83-.54-1.31.43-1.24.67-2.56.68-3.94,0-.1,0-.2-.02-.3.03-3.2-1.16-6.4-3.6-8.84-5.15-5.15-13.71-4.79-18.39,1.05-1.8,2.26-2.69,5.03-2.66,7.8,0,.07,0,.14,0,.21h0Z"/>
  </g>
</svg>