<?xml version="1.0" encoding="UTF-8"?>
<svg version="1.1" xmlns="http://www.w3.org/2000/svg" width="960" height="960">
<path d="M0 0 C1.11236369 -0.00623996 2.22472738 -0.01247993 3.37079906 -0.01890898 C7.07009238 -0.0347676 10.76872025 -0.02226209 14.46801758 -0.00964355 C17.13158061 -0.01506784 19.79509896 -0.0220484 22.45864868 -0.03088379 C28.92527524 -0.04861116 35.39171542 -0.044855 41.85834908 -0.03323323 C47.11687507 -0.02417628 52.37534906 -0.02298464 57.63388062 -0.02732849 C58.38411253 -0.02794142 59.13434445 -0.02855436 59.90731066 -0.02918586 C61.43169476 -0.03046484 62.95607884 -0.0317617 64.48046291 -0.03307623 C78.7533386 -0.04446508 93.0261113 -0.031395 107.2989701 -0.00987476 C119.52887341 0.0079947 131.75862482 0.00489011 143.98852539 -0.0135498 C158.21253742 -0.03498654 172.43645933 -0.0433666 186.66048527 -0.03110075 C188.17906251 -0.02982664 189.69763977 -0.02856915 191.21621704 -0.02732849 C191.96326234 -0.02671139 192.71030763 -0.02609429 193.47999066 -0.02545848 C198.72833092 -0.02201398 203.97661371 -0.02781445 209.22494507 -0.0372467 C215.62649017 -0.0484993 222.02783923 -0.04535853 228.42936206 -0.02412373 C231.69160832 -0.01365676 234.95346341 -0.01159258 238.21571732 -0.02272034 C241.76083315 -0.03369576 245.30503934 -0.01988651 248.85009766 0 C249.86889102 -0.00892289 250.88768438 -0.01784577 251.93735027 -0.02703905 C263.71227589 0.10055698 272.94242836 4.22457498 281.33129883 12.35559082 C288.20726508 19.68315655 291.54723187 27.74217215 291.55385 37.75007349 C291.55712219 39.04345284 291.56039438 40.33683218 291.56376573 41.66940483 C291.5623556 43.1108694 291.56085358 44.55233387 291.55926991 45.99379826 C291.56122242 47.52660631 291.56361111 49.05941387 291.56639788 50.59222063 C291.57281355 54.82954954 291.57295825 59.06685953 291.57212047 63.30419238 C291.57228966 67.90464332 291.57819232 72.50508742 291.58336133 77.10553497 C291.59270003 86.24134877 291.59661151 95.37715773 291.59888029 104.51297571 C291.60183905 115.45120545 291.61053451 126.38942875 291.61929457 137.32765512 C291.640153 163.76813215 291.65061081 190.20861031 291.65942418 216.64909365 C291.66362854 229.15286829 291.6688508 241.65664244 291.67410871 254.16041668 C291.69171931 296.27642101 291.70677277 338.39242573 291.71407895 380.50843321 C291.71466292 383.86600106 291.71526019 387.22356891 291.71585656 390.58113676 C291.71597468 391.24717362 291.7160928 391.91321048 291.7162145 392.59943028 C291.71741189 399.34735301 291.71862065 406.09527575 291.71984703 412.84319848 C291.72009227 414.19617985 291.72033612 415.54916123 291.7205786 416.90214261 C291.72836821 460.35426284 291.75075107 503.80635606 291.78325503 547.25846449 C291.81809841 593.85365848 291.83872997 640.44884011 291.84207314 687.04404873 C291.84249069 692.08289811 291.84297026 697.12174748 291.84349632 702.16059685 C291.84361951 703.40133832 291.84374271 704.6420798 291.84386963 705.92041951 C291.84620374 725.90573453 291.8618754 745.89101792 291.88233817 765.87632166 C291.9025726 785.9568726 291.90808475 806.03738547 291.89856753 826.11794472 C291.89334335 838.05335112 291.89927334 849.98863094 291.92110221 861.92401917 C291.93457882 869.89372084 291.93356111 877.86333508 291.92070025 885.83303755 C291.91378273 890.37594697 291.9132052 894.91861384 291.93026034 899.4615019 C291.94565799 903.59654457 291.94254986 907.73114963 291.92485006 911.86617931 C291.92170715 913.35065452 291.92522882 914.83516316 291.9363418 916.3196001 C292.03790621 930.83490435 288.86332544 940.77733891 278.73364258 951.25793457 C272.39269241 957.14280711 264.36338912 960.62895324 255.69614881 960.63673574 C254.74105593 960.64000793 253.78596305 960.64328013 252.80192795 960.64665148 C251.2292915 960.64442604 251.2292915 960.64442604 249.62488461 960.64215565 C248.50586141 960.64450788 247.38683821 960.64686011 246.23390523 960.64928362 C242.45125091 960.65598707 238.66863084 960.65551499 234.88597107 960.65510559 C232.1597391 960.65785472 229.43350988 960.6620909 226.70727974 960.66624707 C219.97925213 960.67557987 213.2512311 960.67949626 206.52319782 960.68176604 C198.46679879 960.68472634 190.41040851 960.69342274 182.35401406 960.70218032 C162.87984822 960.72303278 143.40568086 960.73349577 123.93150646 960.74230992 C114.72045663 960.74651528 105.50940745 960.75173742 96.29835817 960.75699445 C64.77364418 960.77488532 33.24893 960.78988177 1.72421169 960.79731464 C-0.25523374 960.7977894 -2.23467918 960.79826529 -4.21412462 960.79874231 C-5.68657861 960.79909687 -5.68657861 960.79909687 -7.18877914 960.7994586 C-12.1623111 960.80065981 -17.13584305 960.80187525 -22.109375 960.80310059 C-23.09639097 960.80334074 -24.08340694 960.80358089 -25.10033248 960.80382831 C-57.10492829 960.81172202 -89.10948706 960.83515498 -121.11406669 960.86765653 C-154.94366005 960.90194877 -188.77323172 960.92166522 -222.60284275 960.92495888 C-226.3160842 960.92537643 -230.02932563 960.92585599 -233.74256706 960.92638206 C-234.65688503 960.92650526 -235.57120299 960.92662845 -236.51322756 960.92675537 C-251.23197287 960.92908815 -265.95067517 960.94475246 -280.66940515 960.96522391 C-295.46258043 960.98547257 -310.25570402 960.99096376 -325.0488906 960.98145328 C-333.83826681 960.97623458 -342.62747101 960.98213316 -351.41682249 961.00398795 C-357.28946754 961.01748719 -363.16199406 961.01642681 -369.03464026 961.00358599 C-372.37990692 960.99668332 -375.72457679 960.99825314 -379.06985719 961.01314608 C-382.67816644 961.02821633 -386.28561115 961.01862473 -389.89389896 961.0029192 C-390.92593511 961.0131414 -391.95797125 961.02336361 -393.02128121 961.03389558 C-404.25728687 960.92708962 -413.43325014 957.28025786 -421.57495117 949.50793457 C-432.01413463 938.5726315 -433.16722197 926.82200346 -433.08288574 912.39025879 C-433.08750042 910.66443291 -433.09385714 908.93861096 -433.10179472 907.21279716 C-433.11843326 902.49292088 -433.11026665 897.77336972 -433.09784985 893.05349255 C-433.08877921 887.95456469 -433.10277906 882.85569176 -433.11376953 877.7567749 C-433.13153784 867.77690318 -433.12772227 857.79715193 -433.11611897 847.81727552 C-433.10707829 839.7050169 -433.1058634 831.592792 -433.11021423 823.48052979 C-433.11082717 822.32509513 -433.1114401 821.16966047 -433.1120716 819.97921264 C-433.11335053 817.63182655 -433.11464738 815.28444047 -433.11596197 812.9370544 C-433.12736282 790.93566476 -433.1142618 768.93434183 -433.0927605 746.93296313 C-433.07488999 728.06273792 -433.07799423 709.19261114 -433.09643555 690.3223877 C-433.11785097 668.39867851 -433.12626423 646.47502777 -433.11398649 624.55130959 C-433.11271232 622.21265285 -433.11145484 619.87399611 -433.11021423 617.53533936 C-433.10959713 616.38473396 -433.10898003 615.23412857 -433.10834423 614.04865634 C-433.10489335 605.94797096 -433.11071403 597.8473227 -433.12013245 589.74664307 C-433.13136125 579.87199209 -433.12829377 569.99746827 -433.10700947 560.12283182 C-433.096511 555.08650878 -433.09235679 550.05039761 -433.10560608 545.01407623 C-433.11756061 540.40007034 -433.11091703 535.7864719 -433.08969587 531.17250276 C-433.08524277 529.50710585 -433.08746691 527.84167423 -433.09719902 526.17629981 C-433.17751316 511.28584318 -430.4556958 500.69632624 -419.88354492 489.75793457 C-412.78854964 483.17325217 -404.48803509 480.38029286 -394.94378662 480.38768005 C-394.27883344 480.38682563 -393.61388026 480.3859712 -392.92877698 480.38509089 C-390.70240913 480.38344481 -388.47611676 480.38894317 -386.24975586 480.39440918 C-384.65312705 480.39469127 -383.05649812 480.3945329 -381.45986938 480.39396667 C-377.12552239 480.39367954 -372.79120302 480.39956283 -368.45686245 480.40654063 C-363.92715533 480.41278801 -359.39744758 480.41337907 -354.86773682 480.41456604 C-346.29011663 480.41767526 -337.71250918 480.42588316 -329.13489461 480.43591553 C-319.36957222 480.44708934 -309.60424922 480.45259032 -299.83892202 480.45761096 C-279.75092463 480.4680661 -259.6629387 480.48565765 -239.57495117 480.50793457 C-239.57863834 479.45309529 -239.58232552 478.39825602 -239.58612442 477.31145191 C-239.67503198 451.61205081 -239.74070605 425.91266972 -239.78219986 400.21314716 C-239.80280073 387.78490537 -239.83087406 375.35676534 -239.87670898 362.92858887 C-239.91665245 352.0926941 -239.94240196 341.25687307 -239.95130515 330.42090672 C-239.95650715 324.68650538 -239.96868225 318.95231491 -239.9978714 313.21798134 C-240.02515911 307.81305396 -240.03336924 302.40842296 -240.0273819 297.00343323 C-240.02847618 295.02704441 -240.03634996 293.05064497 -240.05177307 291.07431602 C-240.1692893 275.22936514 -239.07751138 262.24357644 -227.50463867 250.38684082 C-219.84244786 243.11176418 -212.99783567 240.5975107 -202.68041992 239.13293457 C-198.36061083 238.26353903 -194.60305096 236.52662021 -190.59057617 234.74621582 C-179.14345032 230.04577684 -167.39786909 229.35591805 -155.19213867 229.39440918 C-153.97177414 229.39426315 -152.75140961 229.39411713 -151.49406433 229.39396667 C-148.17023914 229.39454127 -144.84647714 229.39953395 -141.52266312 229.40654063 C-138.04066405 229.41281967 -134.55866401 229.41338156 -131.07666016 229.41456604 C-124.49309023 229.41766599 -117.90953704 229.42586128 -111.32597446 229.43591553 C-103.82653855 229.44711827 -96.32710181 229.45259758 -88.82765961 229.45761096 C-73.41008046 229.46804509 -57.99251798 229.48561852 -42.57495117 229.50793457 C-42.57863834 228.4976353 -42.58232552 227.48733603 -42.58612442 226.44642162 C-42.67500146 201.84094493 -42.7406916 177.2354891 -42.78219986 152.62988567 C-42.80280751 140.73069738 -42.83089386 128.83161526 -42.87670898 116.93249512 C-42.91663164 106.55880705 -42.94239704 96.18519589 -42.95130515 85.81143314 C-42.95651067 80.32077786 -42.96870828 74.83034256 -42.9978714 69.33975792 C-43.02512617 64.16629205 -43.03337583 58.99313572 -43.0273819 53.81960487 C-43.02847764 51.92622823 -43.03637127 50.03284068 -43.05177307 48.13952637 C-43.16285069 33.77402946 -41.96185374 22.38847211 -31.57495117 11.50793457 C-22.43055274 2.77840488 -12.43591454 -0.10891734 0 0 Z " fill="#EDC349" transform="translate(550.574951171875,-0.5079345703125)"/>
<path d="M0 0 C1.11236369 -0.00623996 2.22472738 -0.01247993 3.37079906 -0.01890898 C7.07009238 -0.0347676 10.76872025 -0.02226209 14.46801758 -0.00964355 C17.13158061 -0.01506784 19.79509896 -0.0220484 22.45864868 -0.03088379 C28.92527524 -0.04861116 35.39171542 -0.044855 41.85834908 -0.03323323 C47.11687507 -0.02417628 52.37534906 -0.02298464 57.63388062 -0.02732849 C58.38411253 -0.02794142 59.13434445 -0.02855436 59.90731066 -0.02918586 C61.43169476 -0.03046484 62.95607884 -0.0317617 64.48046291 -0.03307623 C78.7533386 -0.04446508 93.0261113 -0.031395 107.2989701 -0.00987476 C119.52887341 0.0079947 131.75862482 0.00489011 143.98852539 -0.0135498 C158.21253742 -0.03498654 172.43645933 -0.0433666 186.66048527 -0.03110075 C188.17906251 -0.02982664 189.69763977 -0.02856915 191.21621704 -0.02732849 C191.96326234 -0.02671139 192.71030763 -0.02609429 193.47999066 -0.02545848 C198.72833092 -0.02201398 203.97661371 -0.02781445 209.22494507 -0.0372467 C215.62649017 -0.0484993 222.02783923 -0.04535853 228.42936206 -0.02412373 C231.69160832 -0.01365676 234.95346341 -0.01159258 238.21571732 -0.02272034 C241.76083315 -0.03369576 245.30503934 -0.01988651 248.85009766 0 C249.86889102 -0.00892289 250.88768438 -0.01784577 251.93735027 -0.02703905 C263.71227589 0.10055698 272.94242836 4.22457498 281.33129883 12.35559082 C288.20726508 19.68315655 291.54723187 27.74217215 291.55385 37.75007349 C291.55712219 39.04345284 291.56039438 40.33683218 291.56376573 41.66940483 C291.5623556 43.1108694 291.56085358 44.55233387 291.55926991 45.99379826 C291.56122242 47.52660631 291.56361111 49.05941387 291.56639788 50.59222063 C291.57281355 54.82954954 291.57295825 59.06685953 291.57212047 63.30419238 C291.57228966 67.90464332 291.57819232 72.50508742 291.58336133 77.10553497 C291.59270003 86.24134877 291.59661151 95.37715773 291.59888029 104.51297571 C291.60183905 115.45120545 291.61053451 126.38942875 291.61929457 137.32765512 C291.640153 163.76813215 291.65061081 190.20861031 291.65942418 216.64909365 C291.66362854 229.15286829 291.6688508 241.65664244 291.67410871 254.16041668 C291.69171931 296.27642101 291.70677277 338.39242573 291.71407895 380.50843321 C291.71466292 383.86600106 291.71526019 387.22356891 291.71585656 390.58113676 C291.71597468 391.24717362 291.7160928 391.91321048 291.7162145 392.59943028 C291.71741189 399.34735301 291.71862065 406.09527575 291.71984703 412.84319848 C291.72009227 414.19617985 291.72033612 415.54916123 291.7205786 416.90214261 C291.72836821 460.35426284 291.75075107 503.80635606 291.78325503 547.25846449 C291.81809841 593.85365848 291.83872997 640.44884011 291.84207314 687.04404873 C291.84249069 692.08289811 291.84297026 697.12174748 291.84349632 702.16059685 C291.84361951 703.40133832 291.84374271 704.6420798 291.84386963 705.92041951 C291.84620374 725.90573453 291.8618754 745.89101792 291.88233817 765.87632166 C291.9025726 785.9568726 291.90808475 806.03738547 291.89856753 826.11794472 C291.89334335 838.05335112 291.89927334 849.98863094 291.92110221 861.92401917 C291.93457882 869.89372084 291.93356111 877.86333508 291.92070025 885.83303755 C291.91378273 890.37594697 291.9132052 894.91861384 291.93026034 899.4615019 C291.94565799 903.59654457 291.94254986 907.73114963 291.92485006 911.86617931 C291.92170715 913.35065452 291.92522882 914.83516316 291.9363418 916.3196001 C292.03790621 930.83490435 288.86332544 940.77733891 278.73364258 951.25793457 C271.57995113 957.89709137 263.25538073 960.63544993 253.64202881 960.62818909 C252.96074142 960.62904351 252.27945403 960.62989794 251.57752156 960.63077825 C249.29587625 960.63242467 247.01430455 960.62692541 244.73266602 960.62145996 C243.09662884 960.62117788 241.46059154 960.62133623 239.82455444 960.62190247 C235.38277314 960.62218963 230.94101878 960.61630588 226.49924374 960.60932851 C221.85742771 960.6030816 217.21561108 960.60249011 212.5737915 960.6013031 C203.78367567 960.59819374 194.99357225 960.58998565 186.20346189 960.57995361 C176.19630608 960.56878023 166.18914968 960.56327893 156.18198919 960.55825818 C135.59633547 960.54780273 115.01069293 960.5302109 94.42504883 960.50793457 C94.42480463 959.91064434 94.42456042 959.31335411 94.42430882 958.69796417 C94.39758238 893.67406769 94.36591674 828.65017439 94.30841064 763.626297 C94.30712438 762.16949658 94.30712438 762.16949658 94.30581213 760.68326586 C94.28714679 739.57680528 94.26759431 718.4703456 94.24712788 697.3638867 C94.23709664 687.01338393 94.22726145 676.66288098 94.2175293 666.31237793 C94.21607159 664.76737327 94.21607159 664.76737327 94.21458443 663.19115639 C94.18317352 629.80179684 94.16471015 596.41244537 94.15295636 563.0230736 C94.14081014 528.71306037 94.11561112 494.40308091 94.07397269 460.09309019 C94.06809854 455.24778326 94.06237371 450.40247617 94.05673981 445.55716896 C94.05562635 444.60353678 94.05451289 443.6499046 94.05336569 442.66737448 C94.03582138 427.31241715 94.03204943 411.9574858 94.03341962 396.60251979 C94.03450329 381.16808051 94.02109696 365.7337078 93.99288455 350.29929378 C93.97656085 341.12780946 93.97136255 331.95647572 93.98207708 322.78498229 C93.98814058 316.65746625 93.97971627 310.53008032 93.95955653 304.40259474 C93.94848502 300.91178767 93.94367032 297.42128668 93.95653638 293.93047877 C93.9670486 290.16583125 93.95300835 286.40203678 93.93285751 282.6374464 C93.94621308 281.0202946 93.94621308 281.0202946 93.95983845 279.37047306 C93.83781521 267.50159225 89.93181647 257.85364465 81.42504883 249.50793457 C72.20717767 242.47207156 62.82302631 240.05343634 51.39622498 240.10920715 C50.31864443 240.10256033 49.24106389 240.0959135 48.13082939 240.08906525 C44.53796858 240.07048657 40.94544228 240.07303716 37.35253906 240.07556152 C34.76995882 240.06654127 32.18738286 240.0562134 29.60481262 240.04467773 C24.05391762 240.02194022 18.50308516 240.01001503 12.95214653 240.00554848 C4.92655615 239.99907489 -3.09892138 239.97611635 -11.12446617 239.94920518 C-24.14708915 239.90598237 -37.16970736 239.87598992 -50.19238281 239.85437012 C-62.83856547 239.8333469 -75.48470919 239.80606011 -88.13085938 239.77038574 C-88.9110877 239.76818692 -89.69131603 239.76598809 -90.49518765 239.76372264 C-94.4095789 239.75265265 -98.32396979 239.7414599 -102.23836052 239.73020613 C-134.68385833 239.63708485 -167.12937042 239.56545734 -199.57495117 239.50793457 C-196.07653244 236.75107237 -192.88160363 235.36609001 -188.63745117 233.94543457 C-186.82954102 233.32475098 -186.82954102 233.32475098 -184.98510742 232.69152832 C-175.05644631 229.78139598 -164.90810167 229.21498553 -154.62451172 229.28088379 C-153.40341705 229.28059174 -152.18232239 229.28029968 -150.92422485 229.27999878 C-147.62131074 229.28114173 -144.31857295 229.29107325 -141.01569343 229.30514669 C-137.54707612 229.31777032 -134.07845424 229.31883361 -130.6098175 229.32119751 C-124.06180555 229.32737848 -117.51386151 229.34374277 -110.96587926 229.36389649 C-103.50260969 229.38636172 -96.03933663 229.39727545 -88.57604158 229.40728736 C-73.24230564 229.42811258 -57.90863721 229.46322169 -42.57495117 229.50793457 C-42.57863834 228.4976353 -42.58232552 227.48733603 -42.58612442 226.44642162 C-42.67500146 201.84094493 -42.7406916 177.2354891 -42.78219986 152.62988567 C-42.80280751 140.73069738 -42.83089386 128.83161526 -42.87670898 116.93249512 C-42.91663164 106.55880705 -42.94239704 96.18519589 -42.95130515 85.81143314 C-42.95651067 80.32077786 -42.96870828 74.83034256 -42.9978714 69.33975792 C-43.02512617 64.16629205 -43.03337583 58.99313572 -43.0273819 53.81960487 C-43.02847764 51.92622823 -43.03637127 50.03284068 -43.05177307 48.13952637 C-43.16285069 33.77402946 -41.96185374 22.38847211 -31.57495117 11.50793457 C-22.43055274 2.77840488 -12.43591454 -0.10891734 0 0 Z " fill="#D08C0B" transform="translate(550.574951171875,-0.5079345703125)"/>
<path d="M0 0 C1.42207111 -0.00761181 1.42207111 -0.00761181 2.87287092 -0.0153774 C3.91137206 -0.01587516 4.94987319 -0.01637292 6.01984406 -0.01688576 C7.12552121 -0.02126801 8.23119836 -0.02565027 9.37038088 -0.03016531 C13.08886413 -0.04355866 16.80732367 -0.04973344 20.5258255 -0.0558567 C23.18671599 -0.06375732 25.84760345 -0.07202131 28.50849152 -0.08063698 C36.50397778 -0.10514458 44.49947022 -0.1197867 52.49498248 -0.13269705 C54.75447362 -0.13641049 57.01396414 -0.14038361 59.27345467 -0.14444971 C73.31342074 -0.1696902 87.35338783 -0.19173696 101.39337158 -0.20417786 C104.64455417 -0.20710742 107.89573673 -0.2100691 111.14691925 -0.21308327 C111.95495674 -0.21382932 112.76299422 -0.21457537 113.59551769 -0.21534403 C126.67547277 -0.22798861 139.75529163 -0.26120036 152.83518308 -0.3028851 C166.27347603 -0.34535978 179.71169935 -0.36887935 193.15005922 -0.37409842 C200.69133681 -0.37750651 208.23240162 -0.38919016 215.77361298 -0.42220116 C222.19834963 -0.45027919 228.62282987 -0.46116727 235.0476231 -0.4500057 C238.32220204 -0.44483842 241.59613531 -0.45033677 244.87065887 -0.47247124 C248.43124653 -0.4952231 251.99049805 -0.48683799 255.55109406 -0.47098732 C256.57174942 -0.48486941 257.59240478 -0.49875149 258.64398909 -0.51305425 C269.23650988 -0.39747739 279.67429075 3.63309329 287.29340363 11.13701439 C296.5187301 21.89673808 298.90181085 32.72050984 298.76337433 46.62529564 C298.76386419 48.07412019 298.76611231 49.522945 298.76994324 50.97176456 C298.77533464 54.95184603 298.75565971 58.9314654 298.73180985 62.91146445 C298.71011681 67.27250455 298.71179201 71.63354939 298.71031952 75.99463463 C298.70367725 84.66000192 298.67523302 93.32517359 298.64002579 101.99046654 C298.59939409 112.22638227 298.58178283 122.4623024 298.56453824 132.6982795 C298.52011615 158.22486523 298.43052844 183.75124844 298.33644187 209.27769083 C298.30133529 218.84263004 298.26824702 228.40757471 298.23621368 237.97252464 C298.23382872 238.68441065 298.23144375 239.39629666 298.22898651 240.12975498 C298.21925852 243.03482045 298.20953906 245.93988595 298.19982991 248.84495149 C297.9420569 325.94249974 297.63576032 403.03979548 297.29340363 480.13701439 C259.0076516 480.2286138 220.7219161 480.29907539 182.43607662 480.34127571 C177.91382802 480.3462784 173.39157964 480.3514557 168.86933136 480.35674095 C167.51891099 480.35831481 167.51891099 480.35831481 166.1412094 480.35992047 C151.57305639 480.37731527 137.00496666 480.40884786 122.43685117 480.44562557 C107.4833479 480.48306075 92.52987773 480.50525569 77.57632953 480.51336837 C68.35269558 480.5188508 59.1292405 480.53615283 49.90566162 480.56868026 C43.57663524 480.58985997 37.24770105 480.59620662 30.91864183 480.5910199 C27.26965134 480.58846348 23.62097295 480.59232128 19.97203827 480.61383629 C16.00834193 480.63703546 12.04504784 480.62893426 8.0812912 480.61803246 C6.93826607 480.62968382 5.79524094 480.64133519 4.61757869 480.65333962 C-6.98510949 480.56729141 -16.26683048 477.19387975 -24.70659637 469.13701439 C-35.14577984 458.20171132 -36.29886717 446.45108328 -36.21453094 432.01933861 C-36.21914563 430.29351273 -36.22550234 428.56769078 -36.23343992 426.84187698 C-36.25007847 422.1220007 -36.24191185 417.40244954 -36.22949505 412.68257236 C-36.22042441 407.58364451 -36.23442427 402.48477157 -36.24541473 397.38585472 C-36.26318304 387.405983 -36.25936747 377.42623175 -36.24776417 367.44635534 C-36.23872349 359.33409672 -36.2375086 351.22187182 -36.24185944 343.1096096 C-36.24247237 341.95417495 -36.2430853 340.79874029 -36.24371681 339.60829246 C-36.24499573 337.26090637 -36.24629259 334.91352029 -36.24760717 332.56613421 C-36.25900803 310.56474458 -36.245907 288.56342165 -36.22440571 266.56204295 C-36.20653519 247.69181774 -36.20963944 228.82169095 -36.22808075 209.95146751 C-36.24949617 188.02775833 -36.25790944 166.10410759 -36.24563169 144.1803894 C-36.24435752 141.84173267 -36.24310004 139.50307593 -36.24185944 137.16441917 C-36.24124233 136.01381378 -36.24062523 134.86320839 -36.23998943 133.67773616 C-36.23653855 125.57705078 -36.24235923 117.47640252 -36.25177765 109.37572289 C-36.26300645 99.50107191 -36.25993897 89.62654809 -36.23865467 79.75191164 C-36.22815621 74.7155886 -36.22400199 69.67947743 -36.23725128 64.64315605 C-36.24920581 60.02915016 -36.24256223 55.41555172 -36.22134107 50.80158257 C-36.21688797 49.13618567 -36.21911211 47.47075405 -36.22884423 45.80537963 C-36.30915837 30.914923 -33.58734101 20.32540606 -23.01519012 9.38701439 C-16.68087824 3.50830266 -8.65781561 0.02466035 0 0 Z " fill="#F5D95E" transform="translate(153.70659637451172,479.8629856109619)"/>
<path d="M0 0 C1.22109467 -0.00029205 2.44218933 -0.00058411 3.70028687 -0.00088501 C7.00320098 0.00025794 10.30593877 0.01018946 13.60881829 0.02426291 C17.0774356 0.03688653 20.54605748 0.03794982 24.01469421 0.04031372 C30.56270617 0.04649469 37.11065021 0.06285898 43.65863246 0.0830127 C51.12190203 0.10547793 58.58517509 0.11639166 66.04847014 0.12640357 C81.38220716 0.1472288 96.71587237 0.18274755 112.04956055 0.22705078 C112.04956055 3.52705078 112.04956055 6.82705078 112.04956055 10.22705078 C60.23956055 10.22705078 8.42956055 10.22705078 -44.95043945 10.22705078 C-41.13620965 7.36637843 -38.46911949 6.15617873 -34.01293945 4.66455078 C-32.80766602 4.25076172 -31.60239258 3.83697266 -30.3605957 3.41064453 C-20.43193459 0.5005122 -10.28358995 -0.06589826 0 0 Z " fill="#000000" transform="translate(395.950439453125,228.77294921875)"/>
</svg>
