<?xml version="1.0" encoding="UTF-8"?>
<svg version="1.1" xmlns="http://www.w3.org/2000/svg" width="1280" height="1295">
<path d="M0 0 C0.95723462 -0.00205263 1.91446924 -0.00410527 2.90071097 -0.0062201 C6.10296693 -0.01186708 9.30517957 -0.0104357 12.50743961 -0.00901413 C14.82876655 -0.01159909 17.15009304 -0.01461261 19.47141892 -0.01801753 C25.84682357 -0.02607546 32.22221695 -0.02787643 38.59762609 -0.028615 C44.76868438 -0.02979413 50.9397379 -0.03659686 57.11079288 -0.04269341 C73.63862534 -0.05873244 90.16645685 -0.06465437 106.69429569 -0.06944216 C114.51759943 -0.07178027 122.34090244 -0.07538317 130.1642056 -0.07913754 C156.95967655 -0.09197138 183.75514708 -0.10269055 210.55062103 -0.10614014 C212.23182158 -0.10636177 213.91302212 -0.10658355 215.59422267 -0.10680549 C217.27941408 -0.10702613 218.96460549 -0.10724661 220.6497969 -0.10746694 C224.03040946 -0.10790948 227.41102201 -0.1083566 230.79163456 -0.10880661 C231.6298262 -0.108916 232.46801784 -0.10902539 233.33160922 -0.1091381 C260.50067858 -0.1127675 287.66972123 -0.12868399 314.83878035 -0.15199697 C343.58335688 -0.17661664 372.32791816 -0.19031397 401.07250553 -0.19150805 C404.2305559 -0.1916795 407.38860625 -0.19189493 410.54665661 -0.19214249 C411.32422136 -0.19219826 412.10178612 -0.19225402 412.90291344 -0.19231148 C425.39304395 -0.19346008 437.88314697 -0.20446577 450.37326822 -0.21902954 C462.93785797 -0.23342633 475.50241263 -0.23661361 488.06700837 -0.22858956 C494.86815673 -0.22453769 501.66920751 -0.22558545 508.4703455 -0.23964691 C514.70505683 -0.25241906 520.9396071 -0.25115913 527.17431832 -0.2390562 C529.42132797 -0.23710495 531.66834916 -0.24015095 533.91534262 -0.24890056 C550.34185529 -0.30877811 566.14967148 0.81986146 581.94715214 5.69392776 C583.166283 6.06638626 583.166283 6.06638626 584.41004276 6.44636917 C601.3491755 11.89109041 617.79150925 20.27085631 631.13465214 32.13142776 C631.79465214 31.80142776 632.45465214 31.47142776 633.13465214 31.13142776 C633.13465214 32.12142776 633.13465214 33.11142776 633.13465214 34.13142776 C634.12465214 34.13142776 635.11465214 34.13142776 636.13465214 34.13142776 C637.64246464 35.52986526 637.64246464 35.52986526 639.25965214 37.50642776 C641.9947062 40.77233621 644.7722525 43.97594967 647.63465214 47.13142776 C650.89856062 50.74819122 654.12256163 54.39532385 657.32215214 58.06892776 C659.40676378 60.44107205 661.51893858 62.78698842 663.63465214 65.13142776 C666.89856062 68.74819122 670.12256163 72.39532385 673.32215214 76.06892776 C675.40676378 78.44107205 677.51893858 80.78698842 679.63465214 83.13142776 C682.89856062 86.74819122 686.12256163 90.39532385 689.32215214 94.06892776 C691.40676378 96.44107205 693.51893858 98.78698842 695.63465214 101.13142776 C698.89856062 104.74819122 702.12256163 108.39532385 705.32215214 112.06892776 C707.40676378 114.44107205 709.51893858 116.78698842 711.63465214 119.13142776 C714.89856062 122.74819122 718.12256163 126.39532385 721.32215214 130.06892776 C723.40676378 132.44107205 725.51893858 134.78698842 727.63465214 137.13142776 C730.89856062 140.74819122 734.12256163 144.39532385 737.32215214 148.06892776 C739.40676378 150.44107205 741.51893858 152.78698842 743.63465214 155.13142776 C746.89856062 158.74819122 750.12256163 162.39532385 753.32215214 166.06892776 C755.40676378 168.44107205 757.51893858 170.78698842 759.63465214 173.13142776 C762.89856062 176.74819122 766.12256163 180.39532385 769.32215214 184.06892776 C771.40676378 186.44107205 773.51893858 188.78698842 775.63465214 191.13142776 C778.89856062 194.74819122 782.12256163 198.39532385 785.32215214 202.06892776 C787.40676378 204.44107205 789.51893858 206.78698842 791.63465214 209.13142776 C794.89856062 212.74819122 798.12256163 216.39532385 801.32215214 220.06892776 C803.40676378 222.44107205 805.51893858 224.78698842 807.63465214 227.13142776 C810.89856062 230.74819122 814.12256163 234.39532385 817.32215214 238.06892776 C819.40676378 240.44107205 821.51893858 242.78698842 823.63465214 245.13142776 C826.89856062 248.74819122 830.12256163 252.39532385 833.32215214 256.06892776 C835.40676378 258.44107205 837.51893858 260.78698842 839.63465214 263.13142776 C842.89856062 266.74819122 846.12256163 270.39532385 849.32215214 274.06892776 C851.40676378 276.44107205 853.51893858 278.78698842 855.63465214 281.13142776 C858.89856062 284.74819122 862.12256163 288.39532385 865.32215214 292.06892776 C867.40676378 294.44107205 869.51893858 296.78698842 871.63465214 299.13142776 C874.89856062 302.74819122 878.12256163 306.39532385 881.32215214 310.06892776 C883.40676378 312.44107205 885.51893858 314.78698842 887.63465214 317.13142776 C890.89856062 320.74819122 894.12256163 324.39532385 897.32215214 328.06892776 C899.40676378 330.44107205 901.51893858 332.78698842 903.63465214 335.13142776 C906.89856062 338.74819122 910.12256163 342.39532385 913.32215214 346.06892776 C915.40676378 348.44107205 917.51893858 350.78698842 919.63465214 353.13142776 C922.89856062 356.74819122 926.12256163 360.39532385 929.32215214 364.06892776 C931.40676378 366.44107205 933.51893858 368.78698842 935.63465214 371.13142776 C938.89856062 374.74819122 942.12256163 378.39532385 945.32215214 382.06892776 C947.40676378 384.44107205 949.51893858 386.78698842 951.63465214 389.13142776 C954.89856062 392.74819122 958.12256163 396.39532385 961.32215214 400.06892776 C963.40676378 402.44107205 965.51893858 404.78698842 967.63465214 407.13142776 C970.89856062 410.74819122 974.12256163 414.39532385 977.32215214 418.06892776 C979.40676378 420.44107205 981.51893858 422.78698842 983.63465214 425.13142776 C986.89856062 428.74819122 990.12256163 432.39532385 993.32215214 436.06892776 C995.40676378 438.44107205 997.51893858 440.78698842 999.63465214 443.13142776 C1002.89856062 446.74819122 1006.12256163 450.39532385 1009.32215214 454.06892776 C1011.40676378 456.44107205 1013.51893858 458.78698842 1015.63465214 461.13142776 C1018.89856062 464.74819122 1022.12256163 468.39532385 1025.32215214 472.06892776 C1027.40676378 474.44107205 1029.51893858 476.78698842 1031.63465214 479.13142776 C1034.89856062 482.74819122 1038.12256163 486.39532385 1041.32215214 490.06892776 C1043.40676378 492.44107205 1045.51893858 494.78698842 1047.63465214 497.13142776 C1050.89856062 500.74819122 1054.12256163 504.39532385 1057.32215214 508.06892776 C1059.40676378 510.44107205 1061.51893858 512.78698842 1063.63465214 515.13142776 C1066.89856062 518.74819122 1070.12256163 522.39532385 1073.32215214 526.06892776 C1075.40676378 528.44107205 1077.51893858 530.78698842 1079.63465214 533.13142776 C1083.50955083 537.43034736 1087.34747595 541.75513528 1091.13465214 546.13142776 C1091.96867558 547.07502151 1092.80269901 548.01861526 1093.66199589 548.99080276 C1118.01156045 576.81887655 1131.35451739 609.94170906 1131.38465214 647.00642776 C1131.38566425 648.11957352 1131.38566425 648.11957352 1131.38669682 649.25520706 C1131.37088638 660.18361323 1130.92807569 670.50965998 1128.13465214 681.13142776 C1127.88521854 682.140522 1127.88521854 682.140522 1127.63074589 683.17000198 C1120.84189334 710.38198595 1106.58476223 731.99415099 1087.69715214 752.35408401 C1085.03598869 755.2383633 1082.44766206 758.1747991 1079.87683964 761.13924026 C1077.81964815 763.49163412 1075.72868299 765.81177742 1073.63465214 768.13142776 C1070.94481783 771.11205497 1068.2715485 774.10388009 1065.63465214 777.13142776 C1062.24212121 781.02655587 1058.78271013 784.85925539 1055.32215214 788.69392776 C1053.40911065 790.82560257 1051.51577602 792.97161887 1049.63465214 795.13142776 C1046.24212121 799.02655587 1042.78271013 802.85925539 1039.32215214 806.69392776 C1037.40911065 808.82560257 1035.51577602 810.97161887 1033.63465214 813.13142776 C1030.24212121 817.02655587 1026.78271013 820.85925539 1023.32215214 824.69392776 C1021.40911065 826.82560257 1019.51577602 828.97161887 1017.63465214 831.13142776 C1014.24212121 835.02655587 1010.78271013 838.85925539 1007.32215214 842.69392776 C1005.40911065 844.82560257 1003.51577602 846.97161887 1001.63465214 849.13142776 C998.24212121 853.02655587 994.78271013 856.85925539 991.32215214 860.69392776 C989.40911065 862.82560257 987.51577602 864.97161887 985.63465214 867.13142776 C982.24212121 871.02655587 978.78271013 874.85925539 975.32215214 878.69392776 C973.40911065 880.82560257 971.51577602 882.97161887 969.63465214 885.13142776 C966.24212121 889.02655587 962.78271013 892.85925539 959.32215214 896.69392776 C957.40911065 898.82560257 955.51577602 900.97161887 953.63465214 903.13142776 C950.24212121 907.02655587 946.78271013 910.85925539 943.32215214 914.69392776 C941.40911065 916.82560257 939.51577602 918.97161887 937.63465214 921.13142776 C934.24212121 925.02655587 930.78271013 928.85925539 927.32215214 932.69392776 C925.40911065 934.82560257 923.51577602 936.97161887 921.63465214 939.13142776 C918.24212121 943.02655587 914.78271013 946.85925539 911.32215214 950.69392776 C909.40911065 952.82560257 907.51577602 954.97161887 905.63465214 957.13142776 C902.24212121 961.02655587 898.78271013 964.85925539 895.32215214 968.69392776 C893.40911065 970.82560257 891.51577602 972.97161887 889.63465214 975.13142776 C886.24212121 979.02655587 882.78271013 982.85925539 879.32215214 986.69392776 C877.40911065 988.82560257 875.51577602 990.97161887 873.63465214 993.13142776 C870.24212121 997.02655587 866.78271013 1000.85925539 863.32215214 1004.69392776 C861.40911065 1006.82560257 859.51577602 1008.97161887 857.63465214 1011.13142776 C854.24212121 1015.02655587 850.78271013 1018.85925539 847.32215214 1022.69392776 C845.40911065 1024.82560257 843.51577602 1026.97161887 841.63465214 1029.13142776 C838.24212121 1033.02655587 834.78271013 1036.85925539 831.32215214 1040.69392776 C829.40911065 1042.82560257 827.51577602 1044.97161887 825.63465214 1047.13142776 C822.24212121 1051.02655587 818.78271013 1054.85925539 815.32215214 1058.69392776 C813.40911065 1060.82560257 811.51577602 1062.97161887 809.63465214 1065.13142776 C806.24212121 1069.02655587 802.78271013 1072.85925539 799.32215214 1076.69392776 C797.40911065 1078.82560257 795.51577602 1080.97161887 793.63465214 1083.13142776 C790.24212121 1087.02655587 786.78271013 1090.85925539 783.32215214 1094.69392776 C781.40911065 1096.82560257 779.51577602 1098.97161887 777.63465214 1101.13142776 C774.24212121 1105.02655587 770.78271013 1108.85925539 767.32215214 1112.69392776 C765.40911065 1114.82560257 763.51577602 1116.97161887 761.63465214 1119.13142776 C758.24212121 1123.02655587 754.78271013 1126.85925539 751.32215214 1130.69392776 C749.40911065 1132.82560257 747.51577602 1134.97161887 745.63465214 1137.13142776 C742.24212121 1141.02655587 738.78271013 1144.85925539 735.32215214 1148.69392776 C733.40911065 1150.82560257 731.51577602 1152.97161887 729.63465214 1155.13142776 C726.24212121 1159.02655587 722.78271013 1162.85925539 719.32215214 1166.69392776 C717.40911065 1168.82560257 715.51577602 1170.97161887 713.63465214 1173.13142776 C710.24212121 1177.02655587 706.78271013 1180.85925539 703.32215214 1184.69392776 C701.40911065 1186.82560257 699.51577602 1188.97161887 697.63465214 1191.13142776 C694.24212121 1195.02655587 690.78271013 1198.85925539 687.32215214 1202.69392776 C685.40911065 1204.82560257 683.51577602 1206.97161887 681.63465214 1209.13142776 C678.24212121 1213.02655587 674.78271013 1216.85925539 671.32215214 1220.69392776 C669.40911065 1222.82560257 667.51577602 1224.97161887 665.63465214 1227.13142776 C662.23790592 1231.03139565 658.77554088 1234.86994173 655.30652714 1238.70564651 C653.46668966 1240.76057291 651.67141719 1242.84315202 649.88465214 1244.94392776 C624.87790749 1273.39196754 591.25823585 1291.87109387 553.13465214 1295.13142776 C549.85142576 1295.26249782 546.57325939 1295.26950602 543.28771496 1295.26285553 C541.85484498 1295.26593448 541.85484498 1295.26593448 540.39302814 1295.26907563 C537.19752487 1295.27472246 534.00206502 1295.27329125 530.80655766 1295.27186966 C528.49006821 1295.27445463 526.17357921 1295.27746816 523.85709083 1295.28087306 C517.49501836 1295.28893091 511.13295719 1295.29073196 504.77088022 1295.29147053 C498.61265583 1295.29264967 492.45443622 1295.29945245 486.29621514 1295.30554894 C469.80236124 1295.32158819 453.30850829 1295.32751002 436.81464799 1295.33229769 C429.00695952 1295.33463588 421.19927179 1295.33823879 413.39158389 1295.34199307 C386.64827241 1295.35482719 359.90496134 1295.36554613 333.16164684 1295.36899567 C331.48369799 1295.3692173 329.80574913 1295.36943908 328.12780028 1295.36966102 C326.4458719 1295.36988166 324.76394353 1295.37010214 323.08201516 1295.37032247 C319.70795925 1295.37076501 316.33390335 1295.37121213 312.95984745 1295.37166214 C312.12328141 1295.37177153 311.28671538 1295.37188092 310.42479885 1295.37199363 C283.31122106 1295.37562266 256.19767004 1295.39153759 229.08410249 1295.4148525 C200.39668495 1295.43947551 171.7092827 1295.45316967 143.02185428 1295.45436358 C139.86968382 1295.45453503 136.71751336 1295.45475045 133.5653429 1295.45499802 C132.78922872 1295.45505379 132.01311454 1295.45510955 131.21348175 1295.45516701 C118.74958402 1295.45631535 106.28571387 1295.46731885 93.82182544 1295.48188507 C81.28186293 1295.49628621 68.74193558 1295.49946671 56.20196708 1295.49144509 C49.4148716 1295.48739482 42.6278739 1295.48843356 35.84078884 1295.50250244 C29.61774445 1295.51528375 23.39486136 1295.5140067 17.17181705 1295.50191173 C14.93017315 1295.49996205 12.68851765 1295.50299911 10.44689001 1295.51175609 C-32.10327149 1295.66734786 -69.37113575 1282.35374361 -99.86534786 1252.13142776 C-100.65425411 1251.35541214 -101.44316036 1250.57939651 -102.25597286 1249.77986526 C-131.1040639 1219.58276278 -140.82462516 1180.01465702 -140.09781551 1139.49170303 C-139.17220847 1103.7756159 -120.72552794 1072.5350111 -96.86534786 1047.13142776 C-95.67063968 1045.78361622 -94.48253943 1044.42990221 -93.30284786 1043.06892776 C-90.68832844 1040.06069248 -88.03583131 1037.09012527 -85.36534786 1034.13142776 C-82.67551355 1031.15080056 -80.00224422 1028.15897544 -77.36534786 1025.13142776 C-73.97281693 1021.23629966 -70.51340586 1017.40360014 -67.05284786 1013.56892776 C-65.13980637 1011.43725296 -63.24647174 1009.29123666 -61.36534786 1007.13142776 C-57.97281693 1003.23629966 -54.51340586 999.40360014 -51.05284786 995.56892776 C-49.13980637 993.43725296 -47.24647174 991.29123666 -45.36534786 989.13142776 C-41.97281693 985.23629966 -38.51340586 981.40360014 -35.05284786 977.56892776 C-33.13980637 975.43725296 -31.24647174 973.29123666 -29.36534786 971.13142776 C-25.97281693 967.23629966 -22.51340586 963.40360014 -19.05284786 959.56892776 C-17.13980637 957.43725296 -15.24647174 955.29123666 -13.36534786 953.13142776 C-9.97281693 949.23629966 -6.51340586 945.40360014 -3.05284786 941.56892776 C-1.13980637 939.43725296 0.75352826 937.29123666 2.63465214 935.13142776 C6.02718307 931.23629966 9.48659414 927.40360014 12.94715214 923.56892776 C14.86019363 921.43725296 16.75352826 919.29123666 18.63465214 917.13142776 C22.02718307 913.23629966 25.48659414 909.40360014 28.94715214 905.56892776 C30.86019363 903.43725296 32.75352826 901.29123666 34.63465214 899.13142776 C38.02718307 895.23629966 41.48659414 891.40360014 44.94715214 887.56892776 C46.86019363 885.43725296 48.75352826 883.29123666 50.63465214 881.13142776 C54.02718307 877.23629966 57.48659414 873.40360014 60.94715214 869.56892776 C62.86019363 867.43725296 64.75352826 865.29123666 66.63465214 863.13142776 C70.02718307 859.23629966 73.48659414 855.40360014 76.94715214 851.56892776 C78.86019363 849.43725296 80.75352826 847.29123666 82.63465214 845.13142776 C86.02718307 841.23629966 89.48659414 837.40360014 92.94715214 833.56892776 C94.86019363 831.43725296 96.75352826 829.29123666 98.63465214 827.13142776 C102.02718307 823.23629966 105.48659414 819.40360014 108.94715214 815.56892776 C110.86019363 813.43725296 112.75352826 811.29123666 114.63465214 809.13142776 C118.02718307 805.23629966 121.48659414 801.40360014 124.94715214 797.56892776 C126.86019363 795.43725296 128.75352826 793.29123666 130.63465214 791.13142776 C134.02718307 787.23629966 137.48659414 783.40360014 140.94715214 779.56892776 C142.86019363 777.43725296 144.75352826 775.29123666 146.63465214 773.13142776 C150.02718307 769.23629966 153.48659414 765.40360014 156.94715214 761.56892776 C158.86019363 759.43725296 160.75352826 757.29123666 162.63465214 755.13142776 C166.02718307 751.23629966 169.48659414 747.40360014 172.94715214 743.56892776 C175.43717332 740.79433273 177.88972418 737.98937927 180.33387089 735.17439651 C181.61163673 733.72478364 182.90793255 732.29141021 184.21668339 730.86970901 C206.68608167 706.43276273 220.44976579 677.47089657 219.41980839 643.70955276 C217.83913017 612.99545391 205.01651319 587.30315335 184.13465214 565.13142776 C182.93946785 563.78403839 181.75122227 562.43044062 180.57215214 561.06892776 C177.95763272 558.06069248 175.30513558 555.09012527 172.63465214 552.13142776 C169.37074366 548.51466431 166.14674265 544.86753168 162.94715214 541.19392776 C160.86254049 538.82178348 158.7503657 536.47586711 156.63465214 534.13142776 C153.37074366 530.51466431 150.14674265 526.86753168 146.94715214 523.19392776 C144.86254049 520.82178348 142.7503657 518.47586711 140.63465214 516.13142776 C137.37074366 512.51466431 134.14674265 508.86753168 130.94715214 505.19392776 C128.86254049 502.82178348 126.7503657 500.47586711 124.63465214 498.13142776 C121.37074366 494.51466431 118.14674265 490.86753168 114.94715214 487.19392776 C112.86254049 484.82178348 110.7503657 482.47586711 108.63465214 480.13142776 C105.37074366 476.51466431 102.14674265 472.86753168 98.94715214 469.19392776 C96.86254049 466.82178348 94.7503657 464.47586711 92.63465214 462.13142776 C89.37074366 458.51466431 86.14674265 454.86753168 82.94715214 451.19392776 C80.86254049 448.82178348 78.7503657 446.47586711 76.63465214 444.13142776 C73.37074366 440.51466431 70.14674265 436.86753168 66.94715214 433.19392776 C64.86254049 430.82178348 62.7503657 428.47586711 60.63465214 426.13142776 C57.37074366 422.51466431 54.14674265 418.86753168 50.94715214 415.19392776 C48.86254049 412.82178348 46.7503657 410.47586711 44.63465214 408.13142776 C41.37074366 404.51466431 38.14674265 400.86753168 34.94715214 397.19392776 C32.86254049 394.82178348 30.7503657 392.47586711 28.63465214 390.13142776 C25.37074366 386.51466431 22.14674265 382.86753168 18.94715214 379.19392776 C16.86254049 376.82178348 14.7503657 374.47586711 12.63465214 372.13142776 C9.37074366 368.51466431 6.14674265 364.86753168 2.94715214 361.19392776 C0.86254049 358.82178348 -1.2496343 356.47586711 -3.36534786 354.13142776 C-6.62925634 350.51466431 -9.85325735 346.86753168 -13.05284786 343.19392776 C-15.13745951 340.82178348 -17.2496343 338.47586711 -19.36534786 336.13142776 C-22.62925634 332.51466431 -25.85325735 328.86753168 -29.05284786 325.19392776 C-31.13745951 322.82178348 -33.2496343 320.47586711 -35.36534786 318.13142776 C-38.62925634 314.51466431 -41.85325735 310.86753168 -45.05284786 307.19392776 C-47.13745951 304.82178348 -49.2496343 302.47586711 -51.36534786 300.13142776 C-54.62925634 296.51466431 -57.85325735 292.86753168 -61.05284786 289.19392776 C-63.13745951 286.82178348 -65.2496343 284.47586711 -67.36534786 282.13142776 C-70.62925634 278.51466431 -73.85325735 274.86753168 -77.05284786 271.19392776 C-79.13745951 268.82178348 -81.2496343 266.47586711 -83.36534786 264.13142776 C-86.63866066 260.50424331 -89.87508948 256.84964804 -93.07628536 253.15877151 C-94.31198172 251.75849551 -95.56872761 250.37661511 -96.84191036 249.01033401 C-107.80020227 237.19530292 -117.48657239 224.4808606 -124.86534786 210.13142776 C-125.46862911 208.98802933 -126.07191036 207.84463089 -126.69347286 206.66658401 C-136.42141768 187.538367 -140.28461198 166.74497844 -140.17784786 145.44392776 C-140.17602505 144.69064194 -140.17420223 143.93735611 -140.17232418 143.16124344 C-140.12761312 132.1985859 -139.69278736 121.77992976 -136.86534786 111.13142776 C-136.6990588 110.46014847 -136.53276974 109.78886917 -136.36144161 109.09724808 C-130.9139239 87.25673723 -120.62178098 67.15361243 -105.86534786 50.13142776 C-105.16925411 49.31416214 -104.47316036 48.49689651 -103.75597286 47.65486526 C-77.72845181 17.84320108 -39.67197049 -0.08012946 0 0 Z " fill="#337FF1" transform="translate(139.86534786224365,-0.13142776489257813)"/>
<path d="M0 0 C2.89631874 1.30016516 4.85194306 2.63510423 6.98828125 4.9765625 C7.52614258 5.56083008 8.06400391 6.14509766 8.61816406 6.74707031 C9.17729492 7.36678711 9.73642578 7.98650391 10.3125 8.625 C11.18406738 9.57777832 11.18406738 9.57777832 12.07324219 10.54980469 C15.53980155 14.35039667 18.96664649 18.18413504 22.328125 22.078125 C24.35758073 24.41105074 26.427647 26.70511245 28.5 29 C31.76390848 32.61676345 34.98790949 36.26389608 38.1875 39.9375 C40.27211164 42.30964429 42.38428644 44.65556065 44.5 47 C47.76390848 50.61676345 50.98790949 54.26389608 54.1875 57.9375 C56.27211164 60.30964429 58.38428644 62.65556065 60.5 65 C63.76390848 68.61676345 66.98790949 72.26389608 70.1875 75.9375 C72.27211164 78.30964429 74.38428644 80.65556065 76.5 83 C79.76390848 86.61676345 82.98790949 90.26389608 86.1875 93.9375 C88.27211164 96.30964429 90.38428644 98.65556065 92.5 101 C95.76390848 104.61676345 98.98790949 108.26389608 102.1875 111.9375 C104.27211164 114.30964429 106.38428644 116.65556065 108.5 119 C111.76390848 122.61676345 114.98790949 126.26389608 118.1875 129.9375 C120.27211164 132.30964429 122.38428644 134.65556065 124.5 137 C127.76390848 140.61676345 130.98790949 144.26389608 134.1875 147.9375 C136.27211164 150.30964429 138.38428644 152.65556065 140.5 155 C143.76390848 158.61676345 146.98790949 162.26389608 150.1875 165.9375 C152.27211164 168.30964429 154.38428644 170.65556065 156.5 173 C159.76390848 176.61676345 162.98790949 180.26389608 166.1875 183.9375 C168.27211164 186.30964429 170.38428644 188.65556065 172.5 191 C175.76390848 194.61676345 178.98790949 198.26389608 182.1875 201.9375 C184.27211164 204.30964429 186.38428644 206.65556065 188.5 209 C191.76390848 212.61676345 194.98790949 216.26389608 198.1875 219.9375 C200.27211164 222.30964429 202.38428644 224.65556065 204.5 227 C208.37489869 231.2989196 212.21282381 235.62370751 216 240 C216.83402344 240.94359375 217.66804688 241.8871875 218.52734375 242.859375 C242.87690831 270.68744878 256.21986525 303.81028129 256.25 340.875 C256.25101212 341.98814575 256.25101212 341.98814575 256.25204468 343.1237793 C256.23623425 354.05218547 255.79342355 364.37823221 253 375 C252.75056641 376.00909424 252.75056641 376.00909424 252.49609375 377.03857422 C245.7072412 404.25055819 231.45011009 425.86272322 212.5625 446.22265625 C209.90133655 449.10693553 207.31300992 452.04337133 204.7421875 455.0078125 C202.68499601 457.36020635 200.59403085 459.68034966 198.5 462 C195.81016569 464.98062721 193.13689636 467.97245233 190.5 471 C187.10746907 474.89512811 183.64805799 478.72782763 180.1875 482.5625 C178.27445851 484.69417481 176.38112388 486.8401911 174.5 489 C171.10746907 492.89512811 167.64805799 496.72782763 164.1875 500.5625 C162.27445851 502.69417481 160.38112388 504.8401911 158.5 507 C155.10746907 510.89512811 151.64805799 514.72782763 148.1875 518.5625 C146.27445851 520.69417481 144.38112388 522.8401911 142.5 525 C139.10746907 528.89512811 135.64805799 532.72782763 132.1875 536.5625 C130.27445851 538.69417481 128.38112388 540.8401911 126.5 543 C123.10746907 546.89512811 119.64805799 550.72782763 116.1875 554.5625 C114.27445851 556.69417481 112.38112388 558.8401911 110.5 561 C107.10746907 564.89512811 103.64805799 568.72782763 100.1875 572.5625 C98.27445851 574.69417481 96.38112388 576.8401911 94.5 579 C91.10746907 582.89512811 87.64805799 586.72782763 84.1875 590.5625 C82.27445851 592.69417481 80.38112388 594.8401911 78.5 597 C75.10746907 600.89512811 71.64805799 604.72782763 68.1875 608.5625 C66.27445851 610.69417481 64.38112388 612.8401911 62.5 615 C59.10746907 618.89512811 55.64805799 622.72782763 52.1875 626.5625 C50.27445851 628.69417481 48.38112388 630.8401911 46.5 633 C43.10746907 636.89512811 39.64805799 640.72782763 36.1875 644.5625 C34.27445851 646.69417481 32.38112388 648.8401911 30.5 651 C27.10746907 654.89512811 23.64805799 658.72782763 20.1875 662.5625 C18.27445851 664.69417481 16.38112388 666.8401911 14.5 669 C11.10746907 672.89512811 7.64805799 676.72782763 4.1875 680.5625 C2.27445851 682.69417481 0.38112388 684.8401911 -1.5 687 C-4.89253093 690.89512811 -8.35194201 694.72782763 -11.8125 698.5625 C-13.72554149 700.69417481 -15.61887612 702.8401911 -17.5 705 C-20.89253093 708.89512811 -24.35194201 712.72782763 -27.8125 716.5625 C-29.72554149 718.69417481 -31.61887612 720.8401911 -33.5 723 C-36.89253093 726.89512811 -40.35194201 730.72782763 -43.8125 734.5625 C-45.72554149 736.69417481 -47.61887612 738.8401911 -49.5 741 C-52.89253093 744.89512811 -56.35194201 748.72782763 -59.8125 752.5625 C-61.72554149 754.69417481 -63.61887612 756.8401911 -65.5 759 C-68.89253093 762.89512811 -72.35194201 766.72782763 -75.8125 770.5625 C-77.72554149 772.69417481 -79.61887612 774.8401911 -81.5 777 C-84.89253093 780.89512811 -88.35194201 784.72782763 -91.8125 788.5625 C-93.72554149 790.69417481 -95.61887612 792.8401911 -97.5 795 C-100.89253093 798.89512811 -104.35194201 802.72782763 -107.8125 806.5625 C-109.72554149 808.69417481 -111.61887612 810.8401911 -113.5 813 C-116.89253093 816.89512811 -120.35194201 820.72782763 -123.8125 824.5625 C-125.72554149 826.69417481 -127.61887612 828.8401911 -129.5 831 C-132.89253093 834.89512811 -136.35194201 838.72782763 -139.8125 842.5625 C-141.72554149 844.69417481 -143.61887612 846.8401911 -145.5 849 C-148.89253093 852.89512811 -152.35194201 856.72782763 -155.8125 860.5625 C-157.72554149 862.69417481 -159.61887612 864.8401911 -161.5 867 C-164.89253093 870.89512811 -168.35194201 874.72782763 -171.8125 878.5625 C-173.72554149 880.69417481 -175.61887612 882.8401911 -177.5 885 C-180.89253093 888.89512811 -184.35194201 892.72782763 -187.8125 896.5625 C-189.72554149 898.69417481 -191.61887612 900.8401911 -193.5 903 C-196.89253093 906.89512811 -200.35194201 910.72782763 -203.8125 914.5625 C-205.72554149 916.69417481 -207.61887612 918.8401911 -209.5 921 C-212.89674622 924.89996788 -216.35911126 928.73851396 -219.828125 932.57421875 C-221.66796248 934.62914514 -223.46323495 936.71172426 -225.25 938.8125 C-245.3614479 961.69157835 -269.46959525 976.96456125 -299 985 C-299.90696216 985.25801643 -300.81392431 985.51603287 -301.74837017 985.78186798 C-313.25448065 988.67137045 -324.64920562 988.43744753 -336.44262695 988.41992188 C-338.79146729 988.42727287 -341.14030403 988.43586208 -343.48913574 988.44558716 C-349.83431942 988.46770258 -356.17937285 988.47073886 -362.52458978 988.46883965 C-367.16587864 988.46873468 -371.80714095 988.47519641 -376.44842323 988.4824672 C-377.11316276 988.48350669 -377.77790228 988.48454618 -378.46278542 988.48561716 C-379.4637705 988.48718245 -379.4637705 988.48718245 -380.48497751 988.48877937 C-393.06839312 988.50762671 -405.65175027 988.50664838 -418.23517414 988.49981004 C-429.71067561 988.49423742 -441.18595364 988.51505776 -452.66140292 988.54817051 C-464.48526711 988.58202002 -476.30902461 988.59706198 -488.13293809 988.59245348 C-494.75479295 988.59022028 -501.37646696 988.59575084 -507.99828529 988.62034607 C-514.22918651 988.6427274 -520.45962489 988.6406407 -526.69052887 988.62041855 C-528.96517235 988.6170287 -531.2398477 988.62200917 -533.51444817 988.63640213 C-556.66307144 988.77266782 -577.29632408 983.92057187 -595 968 C-595.88171875 967.21109375 -596.7634375 966.4221875 -597.671875 965.609375 C-612.98341645 951.14377507 -624.07171457 930.35056482 -625 909 C-625.06316406 907.87722656 -625.12632812 906.75445313 -625.19140625 905.59765625 C-625.96585496 880.19074225 -616.24090327 858.57341248 -598.95092773 840.171875 C-598.49274658 839.68847656 -598.03456543 839.20507812 -597.5625 838.70703125 C-595.44420375 836.46925792 -593.39125006 834.20395551 -591.375 831.875 C-588.78290171 828.88602542 -586.15113994 825.93678465 -583.5 823 C-580.81016569 820.01937279 -578.13689636 817.02754767 -575.5 814 C-572.10746907 810.10487189 -568.64805799 806.27217237 -565.1875 802.4375 C-563.27445851 800.30582519 -561.38112388 798.1598089 -559.5 796 C-556.10746907 792.10487189 -552.64805799 788.27217237 -549.1875 784.4375 C-547.27445851 782.30582519 -545.38112388 780.1598089 -543.5 778 C-540.10746907 774.10487189 -536.64805799 770.27217237 -533.1875 766.4375 C-531.27445851 764.30582519 -529.38112388 762.1598089 -527.5 760 C-524.10746907 756.10487189 -520.64805799 752.27217237 -517.1875 748.4375 C-515.27445851 746.30582519 -513.38112388 744.1598089 -511.5 742 C-508.10746907 738.10487189 -504.64805799 734.27217237 -501.1875 730.4375 C-499.27445851 728.30582519 -497.38112388 726.1598089 -495.5 724 C-492.86310364 720.97245233 -490.18983431 717.98062721 -487.5 715 C-482.70092208 709.67665307 -477.9592205 704.31136661 -473.3203125 698.84765625 C-467.72558261 692.26681821 -462.04264888 685.80234102 -456.15625 679.48046875 C-452.94030561 676.02630626 -449.79482045 672.52564408 -446.70703125 668.95703125 C-444.66366569 666.6144085 -442.58319141 664.30726578 -440.5 662 C-437.81016569 659.01937279 -435.13689636 656.02754767 -432.5 653 C-429.10746907 649.10487189 -425.64805799 645.27217237 -422.1875 641.4375 C-420.27445851 639.30582519 -418.38112388 637.1598089 -416.5 635 C-413.10746907 631.10487189 -409.64805799 627.27217237 -406.1875 623.4375 C-404.27445851 621.30582519 -402.38112388 619.1598089 -400.5 617 C-397.10746907 613.10487189 -393.64805799 609.27217237 -390.1875 605.4375 C-388.27445851 603.30582519 -386.38112388 601.1598089 -384.5 599 C-381.10746907 595.10487189 -377.64805799 591.27217237 -374.1875 587.4375 C-372.27445851 585.30582519 -370.38112388 583.1598089 -368.5 581 C-365.10746907 577.10487189 -361.64805799 573.27217237 -358.1875 569.4375 C-356.27445851 567.30582519 -354.38112388 565.1598089 -352.5 563 C-349.86310364 559.97245233 -347.18983431 556.98062721 -344.5 554 C-339.70092208 548.67665307 -334.9592205 543.31136661 -330.3203125 537.84765625 C-324.72558261 531.26681821 -319.04264888 524.80234102 -313.15625 518.48046875 C-309.94030561 515.02630626 -306.79482045 511.52564408 -303.70703125 507.95703125 C-301.66366569 505.6144085 -299.58319141 503.30726578 -297.5 501 C-294.81016569 498.01937279 -292.13689636 495.02754767 -289.5 492 C-286.10746907 488.10487189 -282.64805799 484.27217237 -279.1875 480.4375 C-277.27445851 478.30582519 -275.38112388 476.1598089 -273.5 474 C-270.10746907 470.10487189 -266.64805799 466.27217237 -263.1875 462.4375 C-261.27445851 460.30582519 -259.38112388 458.1598089 -257.5 456 C-254.86310364 452.97245233 -252.18983431 449.98062721 -249.5 447 C-244.70092208 441.67665307 -239.9592205 436.31136661 -235.3203125 430.84765625 C-229.72558261 424.26681821 -224.04264888 417.80234102 -218.15625 411.48046875 C-214.94030561 408.02630626 -211.79482045 404.52564408 -208.70703125 400.95703125 C-206.66366569 398.6144085 -204.58319141 396.30726578 -202.5 394 C-199.81016569 391.01937279 -197.13689636 388.02754767 -194.5 385 C-191.10746907 381.10487189 -187.64805799 377.27217237 -184.1875 373.4375 C-182.27445851 371.30582519 -180.38112388 369.1598089 -178.5 367 C-175.10746907 363.10487189 -171.64805799 359.27217237 -168.1875 355.4375 C-166.27445851 353.30582519 -164.38112388 351.1598089 -162.5 349 C-159.10746907 345.10487189 -155.64805799 341.27217237 -152.1875 337.4375 C-150.27445851 335.30582519 -148.38112388 333.1598089 -146.5 331 C-143.10746907 327.10487189 -139.64805799 323.27217237 -136.1875 319.4375 C-133.69938313 316.66502692 -131.24932536 313.86155151 -128.8046875 311.05078125 C-126.77041859 308.73911203 -124.6977769 306.4646857 -122.625 304.1875 C-119.57141133 300.81059018 -116.65570795 297.36782868 -113.8125 293.8125 C-108.90996514 287.74679782 -103.57741963 282.11835023 -98.23046875 276.4453125 C-95.28967421 273.32224078 -92.43600823 270.13727908 -89.63671875 266.88671875 C-87.62126228 264.56341213 -85.56151538 262.28251535 -83.5 260 C-80.81016569 257.01937279 -78.13689636 254.02754767 -75.5 251 C-72.10746907 247.10487189 -68.64805799 243.27217237 -65.1875 239.4375 C-63.27445851 237.30582519 -61.38112388 235.1598089 -59.5 233 C-56.10746907 229.10487189 -52.64805799 225.27217237 -49.1875 221.4375 C-47.27445851 219.30582519 -45.38112388 217.1598089 -43.5 215 C-40.10746907 211.10487189 -36.64805799 207.27217237 -33.1875 203.4375 C-30.69938313 200.66502692 -28.24932536 197.86155151 -25.8046875 195.05078125 C-23.77041859 192.73911203 -21.6977769 190.4646857 -19.625 188.1875 C7.64743337 157.86941418 24.55562026 124.87318162 24.3125 83.25 C24.30968018 82.54834717 24.30686035 81.84669434 24.30395508 81.1237793 C24.1420693 54.23546712 17.66789785 25.55719713 1.20703125 3.609375 C0 2 0 2 0 0 Z " fill="#60B9FE" transform="translate(1015,306)"/>
<path d="M0 0 C0.95723462 -0.00205263 1.91446924 -0.00410527 2.90071097 -0.0062201 C6.10296693 -0.01186708 9.30517957 -0.0104357 12.50743961 -0.00901413 C14.82876655 -0.01159909 17.15009304 -0.01461261 19.47141892 -0.01801753 C25.84682357 -0.02607546 32.22221695 -0.02787643 38.59762609 -0.028615 C44.76868438 -0.02979413 50.9397379 -0.03659686 57.11079288 -0.04269341 C73.63862534 -0.05873244 90.16645685 -0.06465437 106.69429569 -0.06944216 C114.51759943 -0.07178027 122.34090244 -0.07538317 130.1642056 -0.07913754 C156.95967655 -0.09197138 183.75514708 -0.10269055 210.55062103 -0.10614014 C212.23182158 -0.10636177 213.91302212 -0.10658355 215.59422267 -0.10680549 C217.27941408 -0.10702613 218.96460549 -0.10724661 220.6497969 -0.10746694 C224.03040946 -0.10790948 227.41102201 -0.1083566 230.79163456 -0.10880661 C231.6298262 -0.108916 232.46801784 -0.10902539 233.33160922 -0.1091381 C260.50067858 -0.1127675 287.66972123 -0.12868399 314.83878035 -0.15199697 C343.58335688 -0.17661664 372.32791816 -0.19031397 401.07250553 -0.19150805 C404.2305559 -0.1916795 407.38860625 -0.19189493 410.54665661 -0.19214249 C411.32422136 -0.19219826 412.10178612 -0.19225402 412.90291344 -0.19231148 C425.39304395 -0.19346008 437.88314697 -0.20446577 450.37326822 -0.21902954 C462.93785797 -0.23342633 475.50241263 -0.23661361 488.06700837 -0.22858956 C494.86815673 -0.22453769 501.66920751 -0.22558545 508.4703455 -0.23964691 C514.70505683 -0.25241906 520.9396071 -0.25115913 527.17431832 -0.2390562 C529.42132797 -0.23710495 531.66834916 -0.24015095 533.91534262 -0.24890056 C550.34185529 -0.30877811 566.14967148 0.81986146 581.94715214 5.69392776 C583.166283 6.06638626 583.166283 6.06638626 584.41004276 6.44636917 C601.3491755 11.89109041 617.79150925 20.27085631 631.13465214 32.13142776 C631.79465214 31.80142776 632.45465214 31.47142776 633.13465214 31.13142776 C633.13465214 32.12142776 633.13465214 33.11142776 633.13465214 34.13142776 C634.12465214 34.13142776 635.11465214 34.13142776 636.13465214 34.13142776 C637.49402714 35.74861526 637.49402714 35.74861526 638.88465214 38.00642776 C641.00148411 41.35894736 643.17948571 44.61095891 645.50965214 47.81892776 C667.28004777 79.11088104 675.46937461 117.29427514 669.16199589 154.81111526 C663.52402012 185.28635791 649.34157064 209.89957504 628.50965214 232.54158401 C625.92883053 235.3558681 623.41664854 238.22226014 620.91199589 241.10408401 C618.84105727 243.46631949 616.73952366 245.7993863 614.63465214 248.13142776 C611.94481783 251.11205497 609.2715485 254.10388009 606.63465214 257.13142776 C603.24212121 261.02655587 599.78271013 264.85925539 596.32215214 268.69392776 C594.40911065 270.82560257 592.51577602 272.97161887 590.63465214 275.13142776 C587.24212121 279.02655587 583.78271013 282.85925539 580.32215214 286.69392776 C578.40911065 288.82560257 576.51577602 290.97161887 574.63465214 293.13142776 C571.24212121 297.02655587 567.78271013 300.85925539 564.32215214 304.69392776 C562.40911065 306.82560257 560.51577602 308.97161887 558.63465214 311.13142776 C555.24212121 315.02655587 551.78271013 318.85925539 548.32215214 322.69392776 C546.40911065 324.82560257 544.51577602 326.97161887 542.63465214 329.13142776 C539.24212121 333.02655587 535.78271013 336.85925539 532.32215214 340.69392776 C530.40911065 342.82560257 528.51577602 344.97161887 526.63465214 347.13142776 C523.24212121 351.02655587 519.78271013 354.85925539 516.32215214 358.69392776 C514.40911065 360.82560257 512.51577602 362.97161887 510.63465214 365.13142776 C507.24212121 369.02655587 503.78271013 372.85925539 500.32215214 376.69392776 C498.40911065 378.82560257 496.51577602 380.97161887 494.63465214 383.13142776 C491.24212121 387.02655587 487.78271013 390.85925539 484.32215214 394.69392776 C482.40911065 396.82560257 480.51577602 398.97161887 478.63465214 401.13142776 C475.24212121 405.02655587 471.78271013 408.85925539 468.32215214 412.69392776 C466.40911065 414.82560257 464.51577602 416.97161887 462.63465214 419.13142776 C459.24212121 423.02655587 455.78271013 426.85925539 452.32215214 430.69392776 C450.40911065 432.82560257 448.51577602 434.97161887 446.63465214 437.13142776 C443.24212121 441.02655587 439.78271013 444.85925539 436.32215214 448.69392776 C434.40911065 450.82560257 432.51577602 452.97161887 430.63465214 455.13142776 C427.24212121 459.02655587 423.78271013 462.85925539 420.32215214 466.69392776 C418.40911065 468.82560257 416.51577602 470.97161887 414.63465214 473.13142776 C411.24212121 477.02655587 407.78271013 480.85925539 404.32215214 484.69392776 C402.40911065 486.82560257 400.51577602 488.97161887 398.63465214 491.13142776 C395.24212121 495.02655587 391.78271013 498.85925539 388.32215214 502.69392776 C386.40911065 504.82560257 384.51577602 506.97161887 382.63465214 509.13142776 C379.24212121 513.02655587 375.78271013 516.85925539 372.32215214 520.69392776 C370.40911065 522.82560257 368.51577602 524.97161887 366.63465214 527.13142776 C363.24212121 531.02655587 359.78271013 534.85925539 356.32215214 538.69392776 C354.40911065 540.82560257 352.51577602 542.97161887 350.63465214 545.13142776 C347.24212121 549.02655587 343.78271013 552.85925539 340.32215214 556.69392776 C338.40911065 558.82560257 336.51577602 560.97161887 334.63465214 563.13142776 C331.99775578 566.15897544 329.32448645 569.15080056 326.63465214 572.13142776 C321.83557422 577.4547747 317.09387264 582.82006115 312.45496464 588.28377151 C306.86023474 594.86460955 301.17730102 601.32908675 295.29090214 607.65095901 C292.07495775 611.10512151 288.92947259 614.60578369 285.84168339 618.17439651 C283.79831783 620.51701927 281.71784355 622.82416199 279.63465214 625.13142776 C276.94481783 628.11205497 274.2715485 631.10388009 271.63465214 634.13142776 C268.24212121 638.02655587 264.78271013 641.85925539 261.32215214 645.69392776 C259.40911065 647.82560257 257.51577602 649.97161887 255.63465214 652.13142776 C252.24212121 656.02655587 248.78271013 659.85925539 245.32215214 663.69392776 C243.40911065 665.82560257 241.51577602 667.97161887 239.63465214 670.13142776 C236.24212121 674.02655587 232.78271013 677.85925539 229.32215214 681.69392776 C227.40911065 683.82560257 225.51577602 685.97161887 223.63465214 688.13142776 C220.99775578 691.15897544 218.32448645 694.15080056 215.63465214 697.13142776 C209.69934569 703.71165716 203.88992643 710.39354567 198.13465214 717.13142776 C198.13465214 713.2085285 199.53919464 711.70748018 201.69715214 708.44392776 C218.18207838 682.57113803 222.7220636 652.19876245 216.63074589 622.34627151 C211.64405464 600.08285467 199.59258784 581.54419422 184.13465214 565.13142776 C182.93946785 563.78403839 181.75122227 562.43044062 180.57215214 561.06892776 C177.95763272 558.06069248 175.30513558 555.09012527 172.63465214 552.13142776 C169.37074366 548.51466431 166.14674265 544.86753168 162.94715214 541.19392776 C160.86254049 538.82178348 158.7503657 536.47586711 156.63465214 534.13142776 C153.37074366 530.51466431 150.14674265 526.86753168 146.94715214 523.19392776 C144.86254049 520.82178348 142.7503657 518.47586711 140.63465214 516.13142776 C137.37074366 512.51466431 134.14674265 508.86753168 130.94715214 505.19392776 C128.86254049 502.82178348 126.7503657 500.47586711 124.63465214 498.13142776 C121.37074366 494.51466431 118.14674265 490.86753168 114.94715214 487.19392776 C112.86254049 484.82178348 110.7503657 482.47586711 108.63465214 480.13142776 C105.37074366 476.51466431 102.14674265 472.86753168 98.94715214 469.19392776 C96.86254049 466.82178348 94.7503657 464.47586711 92.63465214 462.13142776 C89.37074366 458.51466431 86.14674265 454.86753168 82.94715214 451.19392776 C80.86254049 448.82178348 78.7503657 446.47586711 76.63465214 444.13142776 C73.37074366 440.51466431 70.14674265 436.86753168 66.94715214 433.19392776 C64.86254049 430.82178348 62.7503657 428.47586711 60.63465214 426.13142776 C57.37074366 422.51466431 54.14674265 418.86753168 50.94715214 415.19392776 C48.86254049 412.82178348 46.7503657 410.47586711 44.63465214 408.13142776 C41.37074366 404.51466431 38.14674265 400.86753168 34.94715214 397.19392776 C32.86254049 394.82178348 30.7503657 392.47586711 28.63465214 390.13142776 C25.37074366 386.51466431 22.14674265 382.86753168 18.94715214 379.19392776 C16.86254049 376.82178348 14.7503657 374.47586711 12.63465214 372.13142776 C9.37074366 368.51466431 6.14674265 364.86753168 2.94715214 361.19392776 C0.86254049 358.82178348 -1.2496343 356.47586711 -3.36534786 354.13142776 C-6.62925634 350.51466431 -9.85325735 346.86753168 -13.05284786 343.19392776 C-15.13745951 340.82178348 -17.2496343 338.47586711 -19.36534786 336.13142776 C-22.62925634 332.51466431 -25.85325735 328.86753168 -29.05284786 325.19392776 C-31.13745951 322.82178348 -33.2496343 320.47586711 -35.36534786 318.13142776 C-38.62925634 314.51466431 -41.85325735 310.86753168 -45.05284786 307.19392776 C-47.13745951 304.82178348 -49.2496343 302.47586711 -51.36534786 300.13142776 C-54.62925634 296.51466431 -57.85325735 292.86753168 -61.05284786 289.19392776 C-63.13745951 286.82178348 -65.2496343 284.47586711 -67.36534786 282.13142776 C-70.62925634 278.51466431 -73.85325735 274.86753168 -77.05284786 271.19392776 C-79.13745951 268.82178348 -81.2496343 266.47586711 -83.36534786 264.13142776 C-86.63866066 260.50424331 -89.87508948 256.84964804 -93.07628536 253.15877151 C-94.31198172 251.75849551 -95.56872761 250.37661511 -96.84191036 249.01033401 C-107.80020227 237.19530292 -117.48657239 224.4808606 -124.86534786 210.13142776 C-125.46862911 208.98802933 -126.07191036 207.84463089 -126.69347286 206.66658401 C-136.42141768 187.538367 -140.28461198 166.74497844 -140.17784786 145.44392776 C-140.17602505 144.69064194 -140.17420223 143.93735611 -140.17232418 143.16124344 C-140.12761312 132.1985859 -139.69278736 121.77992976 -136.86534786 111.13142776 C-136.6990588 110.46014847 -136.53276974 109.78886917 -136.36144161 109.09724808 C-130.9139239 87.25673723 -120.62178098 67.15361243 -105.86534786 50.13142776 C-105.16925411 49.31416214 -104.47316036 48.49689651 -103.75597286 47.65486526 C-77.72845181 17.84320108 -39.67197049 -0.08012946 0 0 Z " fill="#1B46B5" transform="translate(139.86534786224365,-0.13142776489257813)"/>
<path d="M0 0 C4.60415193 3.34847413 8.6918413 7.3571375 12 12 C12 12.99 12 13.98 12 15 C8.11254141 13.70418047 7.22982395 11.93565654 4.875 8.625 C4.17117188 7.64789063 3.46734375 6.67078125 2.7421875 5.6640625 C1 3 1 3 0 0 Z " fill="#0F92E9" transform="translate(779,39)"/>
<path d="M0 0 C2.46800047 1.15173355 4.04783565 2.04783565 6 4 C6 4.99 6 5.98 6 7 C3.00675737 5.9024777 2.15389099 5.32317108 0.75 2.375 C0.5025 1.59125 0.255 0.8075 0 0 Z " fill="#50C9F7" transform="translate(1015,306)"/>
<path d="" fill="#00FFFF" transform="translate(0,0)"/>
<path d="" fill="#00FFFF" transform="translate(0,0)"/>
</svg>
