<svg xmlns="http://www.w3.org/2000/svg" viewBox="0 0 180 180" width="180" height="180">
  <!-- Dark background -->
  <rect width="180" height="180" rx="36" fill="#040902"/>
  <rect width="180" height="180" rx="36" fill="none" stroke="rgba(198, 255, 52, 0.25)" stroke-width="2"/>
  
  <!-- NeuralBI Logo Icon Mark -->
  <g transform="translate(10, 5)">
    <!-- Neon green nodes -->
    <g>
      <path fill="#c6ff34" d="M134.68,120.07c-.86.36-1.84.23-2.56-.36l-13.28-11.02c-.71-.59-1.02-1.54-.82-2.45,1.36-6.16-.95-12.87-6.62-16.78-5.45-3.77-12.72-3.71-18.11-.11l-21.55-17.63c1.55-5.51.1-11.67-4.1-15.84-4.89-4.86-11.91-5.89-17.72-3.43-.86.36-1.84.23-2.56-.36l-13.27-11.03c-.72-.59-1.03-1.53-.83-2.44,1.36-6.16-.95-12.88-6.62-16.79-6.23-4.29-14.83-3.6-20.29,1.65C-.69,30.27-.11,41.46,7.21,47.55c4.81,3.99,11.24,4.72,16.63,2.42.85-.36,1.84-.22,2.55.37l13.28,11.02c.71.59,1.02,1.53.82,2.44-1.26,5.71.64,11.9,5.44,15.89,5.34,4.44,12.7,4.83,18.39,1.54l22.19,18.15c-1.21,5.68.67,11.82,5.45,15.79,4.81,3.99,11.24,4.72,16.62,2.43.86-.36,1.84-.23,2.56.36l13.28,11.02c.71.59,1.02,1.54.82,2.45-1.26,5.7.63,11.9,5.44,15.89,7.32,6.08,18.43,4.59,23.82-3.59,4.16-6.32,3.26-14.9-2.11-20.24-4.89-4.86-11.91-5.89-17.72-3.43Z"/>
      <path fill="#c6ff34" d="M137.84,57.7c.83.43,1.35,1.27,1.35,2.2v12.39c0,.93-.53,1.77-1.36,2.2-5.16,2.66-8.7,8.03-8.75,14.22-.06,8.52,6.74,15.77,15.25,16.22,9.31.5,17.02-6.91,17.02-16.11,0-6.25-3.56-11.66-8.75-14.34-.83-.43-1.35-1.27-1.35-2.2v-12.39c0-.93.53-1.77,1.36-2.2,5.16-2.66,8.7-8.03,8.75-14.22.06-8.52-6.74-15.77-15.25-16.22-9.31-.5-17.02,6.91-17.02,16.11,0,6.25,3.56,11.66,8.75,14.34Z"/>
      <path fill="#c6ff34" d="M23.52,114.89c-.83-.43-1.35-1.27-1.35-2.2v-12.39c0-.93.53-1.77,1.36-2.2,5.16-2.66,8.7-8.03,8.75-14.22.06-8.52-6.74-15.77-15.25-16.22-9.31-.5-17.02,6.91-17.02,16.11,0,6.25,3.56,11.66,8.75,14.34.83.43,1.35,1.27,1.35,2.2v12.39c0,.93-.53,1.77-1.36,2.2C3.58,117.56.04,122.92,0,129.12c-.06,8.52,6.74,15.77,15.25,16.22,9.31.5,17.02-6.91,17.02-16.11,0-6.25-3.56-11.66-8.75-14.34Z"/>
    </g>
    <!-- White connecting paths -->
    <g>
      <path fill="#ffffff" d="M118.33,61.6c0-5.43-2.69-10.23-6.81-13.16-2.02-1.43-3.3-3.69-3.3-6.17v-7.11c0-2.3,1.18-4.41,3.08-5.72,4.21-2.89,6.99-7.71,7.03-13.2.06-8.52-6.74-15.77-15.25-16.22-9.31-.5-17.02,6.91-17.02,16.11,0,5.43,2.69,10.23,6.81,13.16,2.02,1.43,3.3,3.69,3.3,6.17v7.11c0,1.35-.41,2.63-1.13,3.73-.09-.07-.18-.14-.26-.23l-22.51-22.51c-.66-.66-.88-1.63-.6-2.51,1.92-6,.24-12.9-5.05-17.32-5.81-4.86-14.44-4.96-20.35-.23-7.65,6.12-8.11,17.32-1.38,24.05,4.42,4.42,10.76,5.73,16.33,3.95.88-.28,1.85-.06,2.51.6l22.51,22.51c.46.46.71,1.08.71,1.71-.56,1.62-.88,3.35-.89,5.16,0,.13.01.26.02.39-.04,4.18,1.52,8.37,4.71,11.56,6.73,6.73,17.93,6.27,24.05-1.37,2.36-2.95,3.52-6.58,3.48-10.2,0-.09.01-.18.01-.27Z"/>
      <path fill="#ffffff" d="M40.16,108.46c0,5.43,2.69,10.23,6.81,13.16,2.02,1.43,3.3,3.69,3.3,6.17v7.11c0,2.3-1.18,4.41-3.08,5.72-4.21-2.89-6.99-7.71-7.03-13.2-.06-8.52-6.74-15.77-15.25-16.22-9.31-.5-17.02,6.91-17.02,16.11,0,5.43,2.69,10.23,6.81,13.16,2.02,1.43,3.3,3.69,3.3,6.17v-7.11c0-1.35.41-2.63,1.13-3.73.09.07.18.14.26.23l22.51,22.51c.66.66.88,1.63.6,2.51-1.92,6-.24,12.9,5.05,17.32,5.81,4.86,14.44,4.96,20.35.23,7.65-6.12,8.11-17.32,1.38-24.05-4.42-4.42-10.76-5.73-16.33-3.95-.88.28-1.85.06-2.51-.6l-22.51-22.51c-.46-.46-.71-1.08-.71-1.71.56-1.62.88-3.35.89-5.16,0-.13-.01-.26-.02-.39.04-4.18-1.52-8.37-4.71-11.56-6.73-6.73-17.93-6.27-24.05,1.37-2.36,2.95-3.52,6.58-3.48,10.2,0,.09-.01.18-.01.27Z"/>
    </g>
  </g>
</svg>