<?xml version="1.0" encoding="UTF-8"?>
<svg id="Layer_1" data-name="Layer 1" xmlns="http://www.w3.org/2000/svg" viewBox="0 0 810.48 170.06">
  <defs>
    <style>
      .cls-1 {
        fill: #fff;
      }

      .cls-2 {
        fill: #c6ff34;
      }
    </style>
  </defs>
  <g>
    <path class="cls-1" d="M152.88,11.48c-.86-.51-1.56-1.23-2.07-2.16-.52-.93-.77-2-.77-3.19s.26-2.26.77-3.19c.52-.93,1.21-1.65,2.07-2.16C153.75.26,154.69,0,155.7,0s1.95.26,2.82.77c.86.51,1.56,1.23,2.07,2.16.52.93.77,2,.77,3.19s-.26,2.26-.77,3.19c-.52.93-1.21,1.65-2.07,2.16-.86.51-1.8.77-2.82.77s-1.95-.26-2.82-.77ZM158.12,10.79c.74-.44,1.34-1.06,1.78-1.87.45-.81.67-1.74.67-2.79s-.22-1.98-.67-2.79c-.45-.81-1.04-1.43-1.78-1.87-.74-.44-1.55-.66-2.42-.66s-1.67.22-2.41.66c-.74.44-1.33,1.06-1.77,1.87-.45.81-.67,1.74-.67,2.79s.22,1.98.67,2.79c.45.81,1.04,1.43,1.77,1.87.74.44,1.54.66,2.41.66s1.68-.22,2.42-.66ZM153.5,2.89h2.23c.72,0,1.26.16,1.64.47.38.31.57.74.57,1.28,0,.36-.06.65-.17.88-.11.23-.3.41-.57.54v.03c.27.11.46.27.57.47.11.2.17.45.17.74v1.92h-1.12v-1.86c0-.26-.06-.44-.18-.57-.12-.12-.32-.18-.61-.18h-1.41v2.61h-1.12V2.89ZM156.59,5.47c.15-.15.23-.38.23-.68s-.08-.52-.24-.67c-.16-.15-.44-.22-.85-.22h-1.11v1.8h1.18c.37,0,.63-.07.78-.22Z"/>
    <g>
      <path class="cls-2" d="M134.68,120.07c-.86.36-1.84.23-2.56-.36l-13.28-11.02c-.71-.59-1.02-1.54-.82-2.45,1.36-6.16-.95-12.87-6.62-16.78-5.45-3.77-12.72-3.71-18.11-.11l-21.55-17.63c1.55-5.51.1-11.67-4.1-15.84-4.89-4.86-11.91-5.89-17.72-3.43-.86.36-1.84.23-2.56-.36l-13.27-11.03c-.72-.59-1.03-1.53-.83-2.44,1.36-6.16-.95-12.88-6.62-16.79-6.23-4.29-14.83-3.6-20.29,1.65C-.69,30.27-.11,41.46,7.21,47.55c4.81,3.99,11.24,4.72,16.63,2.42.85-.36,1.84-.22,2.55.37l13.28,11.02c.71.59,1.02,1.53.82,2.44-1.26,5.71.64,11.9,5.44,15.89,5.34,4.44,12.7,4.83,18.39,1.54l22.19,18.15c-1.21,5.68.67,11.82,5.45,15.79,4.81,3.99,11.24,4.72,16.62,2.43.86-.36,1.84-.23,2.56.36l13.28,11.02c.71.59,1.02,1.54.82,2.45-1.26,5.7.63,11.9,5.44,15.89,7.32,6.08,18.43,4.59,23.82-3.59,4.16-6.32,3.26-14.9-2.11-20.24-4.89-4.86-11.91-5.89-17.72-3.43Z"/>
      <path class="cls-2" d="M137.84,57.7c.83.43,1.35,1.27,1.35,2.2v12.39c0,.93-.53,1.77-1.36,2.2-5.16,2.66-8.7,8.03-8.75,14.22-.06,8.52,6.74,15.77,15.25,16.22,9.31.5,17.02-6.91,17.02-16.11,0-6.25-3.56-11.66-8.75-14.34-.83-.43-1.35-1.27-1.35-2.2v-12.39c0-.93.53-1.77,1.36-2.2,5.16-2.66,8.7-8.03,8.75-14.22.06-8.52-6.74-15.77-15.25-16.22-9.31-.5-17.02,6.91-17.02,16.11,0,6.25,3.56,11.66,8.75,14.34Z"/>
      <path class="cls-2" d="M23.52,114.89c-.83-.43-1.35-1.27-1.35-2.2v-12.39c0-.93.53-1.77,1.36-2.2,5.16-2.66,8.7-8.03,8.75-14.22.06-8.52-6.74-15.77-15.25-16.22-9.31-.5-17.02,6.91-17.02,16.11,0,6.25,3.56,11.66,8.75,14.34.83.43,1.35,1.27,1.35,2.2v12.39c0,.93-.53,1.77-1.36,2.2C3.58,117.56.04,122.92,0,129.12c-.06,8.52,6.74,15.77,15.25,16.22,9.31.5,17.02-6.91,17.02-16.11,0-6.25-3.56-11.66-8.75-14.34Z"/>
    </g>
    <g>
      <path class="cls-1" d="M118.33,61.6c0-5.43-2.69-10.23-6.81-13.16-2.02-1.43-3.3-3.69-3.3-6.17v-7.11c0-2.3,1.18-4.41,3.08-5.72,4.21-2.89,6.99-7.71,7.03-13.2.06-8.52-6.74-15.77-15.25-16.22-9.31-.5-17.02,6.91-17.02,16.11,0,5.43,2.69,10.23,6.81,13.16,2.02,1.43,3.3,3.69,3.3,6.17v7.11c0,1.35-.41,2.63-1.13,3.73-.09-.07-.18-.14-.26-.23l-22.51-22.51c-.66-.66-.88-1.63-.6-2.51,1.92-6,.24-12.9-5.05-17.32-5.81-4.86-14.44-4.96-20.35-.23-7.65,6.12-8.11,17.32-1.38,24.05,4.42,4.42,10.76,5.73,16.33,3.95.88-.28,1.85-.06,2.51.6l22.51,22.51c.46.46.71,1.08.71,1.71-.56,1.62-.88,3.35-.89,5.16,0,.13.01.26.02.39-.04,4.18,1.52,8.37,4.71,11.56,6.73,6.73,17.93,6.27,24.05-1.37,2.36-2.95,3.52-6.58,3.48-10.2,0-.09.01-.18.01-.27Z"/>
      <path class="cls-1" d="M40.16,108.46c0,5.43,2.69,10.23,6.81,13.16,2.02,1.43,3.3,3.69,3.3,6.17v7.11c0,2.3-1.18,4.41-3.08,5.72-4.21,2.89-6.99,7.71-7.03,13.2-.06,8.52,6.74,15.77,15.25,16.22,9.31.5,17.02-6.91,17.02-16.11,0-5.43-2.69-10.23-6.81-13.16-2.02-1.43-3.3-3.69-3.3-6.17v-7.11c0-1.35.41-2.63,1.13-3.73.09.07.18.14.26.23l22.51,22.51c.66.66.88,1.63.6,2.51-1.92,6-.24,12.9,5.05,17.32,5.81,4.86,14.44,4.96,20.35.23,7.65-6.12,8.11-17.32,1.38-24.05-4.42-4.42-10.76-5.73-16.33-3.95-.88.28-1.85.06-2.51-.6l-22.51-22.51c-.46-.46-.71-1.08-.71-1.71.56-1.62.88-3.35.89-5.16,0-.13-.01-.26-.02-.39.04-4.18-1.52-8.37-4.71-11.56-6.73-6.73-17.93-6.27-24.05,1.37-2.36,2.95-3.52,6.58-3.48,10.2,0,.09-.01.18-.01.27Z"/>
    </g>
  </g>
  <g>
    <path class="cls-1" d="M300.17,57.34c-1.17-3.08-2.2-5.91-3.1-8.51-.9-2.6-1.62-4.8-2.15-6.6-.64-2.12-1.17-4.03-1.59-5.73h-.64c.1,2.02.21,4.35.32,7,.1,2.23.18,4.99.24,8.27.05,3.29.08,7.06.08,11.3l.32,73.36c-.96.21-1.96.42-3.02.64-.96.21-2.07.37-3.34.48-1.27.1-2.65.16-4.14.16s-2.81-.05-3.98-.16c-1.17-.11-2.18-.27-3.02-.48-1.06-.21-1.96-.43-2.71-.64V16.45c1.48-.21,3.13-.42,4.93-.64,1.48-.21,3.26-.37,5.33-.48,2.07-.1,4.27-.16,6.6-.16s4.59.05,6.44.16c1.85.11,3.47.27,4.85.48,1.59.21,3.02.42,4.3.64l29.44,77.81c1.38,3.61,2.55,6.84,3.5,9.71.95,2.86,1.75,5.36,2.39,7.48.74,2.33,1.33,4.46,1.75,6.36h.64c-.11-2.12-.21-4.56-.32-7.32-.11-2.44-.19-5.33-.24-8.67-.05-3.34-.08-7.03-.08-11.06l-.32-74.15c.85-.21,1.8-.42,2.86-.64.85-.1,1.91-.21,3.18-.32,1.27-.1,2.65-.16,4.14-.16s2.86.05,4.14.16c1.27.11,2.33.21,3.18.32.96.21,1.85.43,2.71.64v119.82c-1.49.32-3.08.58-4.77.8-1.49.21-3.24.4-5.25.56-2.02.16-4.24.24-6.68.24s-4.46-.08-6.37-.24c-1.91-.16-3.61-.35-5.09-.56-1.59-.21-3.02-.48-4.3-.8l-30.23-79.08Z"/>
    <path class="cls-1" d="M397.39,102.53c0,6.05,1.72,10.56,5.17,13.53,3.45,2.97,7.93,4.46,13.45,4.46,3.39,0,6.44-.16,9.15-.48,2.71-.32,5.06-.74,7.08-1.27,2.33-.42,4.4-.96,6.21-1.59,1.27,1.8,2.25,3.63,2.94,5.49.69,1.86,1.14,3.53,1.35,5.01.32,1.7.48,3.4.48,5.09-2.02.95-4.4,1.8-7.16,2.55-2.33.74-5.15,1.38-8.43,1.91-3.29.53-7.16.8-11.62.8-13.58,0-23.34-3.76-29.28-11.3-5.94-7.53-8.91-18.19-8.91-31.98s3.08-23.89,9.23-30.95c6.15-7.05,15.33-10.58,27.53-10.58,5.51,0,10.29.95,14.32,2.86,4.03,1.91,7.37,4.56,10.03,7.96,2.65,3.4,4.61,7.43,5.89,12.09,1.27,4.67,1.91,9.71,1.91,15.12,0,1.49-.03,2.89-.08,4.22-.05,1.33-.13,2.52-.24,3.58-.11,1.27-.21,2.44-.32,3.5h-48.69ZM413.47,70.07c-5.41,0-9.34,1.57-11.78,4.69-2.44,3.13-3.77,7.24-3.98,12.33h28.48v-3.66c0-1.59-.19-3.18-.56-4.77-.37-1.59-1.03-3.02-1.99-4.3-.95-1.27-2.25-2.31-3.9-3.1-1.65-.8-3.74-1.19-6.29-1.19Z"/>
    <path class="cls-1" d="M524.53,113.51c0,5.09-.69,9.23-2.07,12.41-1.38,3.18-3.37,5.7-5.97,7.56-2.6,1.86-5.86,3.1-9.79,3.74-3.93.64-8.43.96-13.53.96s-9.6-.32-13.53-.96c-3.93-.64-7.19-1.85-9.79-3.66-2.6-1.8-4.59-4.3-5.97-7.48-1.38-3.18-2.07-7.32-2.07-12.41v-58.4c.85-.21,1.8-.42,2.86-.64.85-.21,1.85-.37,3.02-.48,1.17-.1,2.49-.16,3.98-.16s2.81.05,3.98.16c1.17.11,2.17.27,3.02.48.96.21,1.85.43,2.71.64v56.97c0,3.61,1.03,5.97,3.1,7.08,2.07,1.11,4.96,1.67,8.67,1.67s6.6-.56,8.67-1.67,3.1-3.47,3.1-7.08v-56.97c.74-.21,1.59-.42,2.55-.64.85-.21,1.83-.37,2.94-.48,1.11-.1,2.41-.16,3.9-.16s2.84.05,4.06.16c1.22.11,2.31.27,3.26.48,1.06.21,2.01.43,2.86.64v58.24Z"/>
    <path class="cls-1" d="M564.31,54c3.39,0,6.29.05,8.67.16,2.39.11,4.32.27,5.81.48,1.8.21,3.29.43,4.46.64.21.64.42,1.38.64,2.23.21.85.37,1.78.48,2.78.1,1.01.16,2.25.16,3.74,0,1.38-.05,2.65-.16,3.82-.11,1.17-.27,2.18-.48,3.02-.21.96-.42,1.86-.64,2.71-1.17-.21-2.44-.37-3.82-.48-2.23-.32-4.83-.48-7.8-.48h-3.98c-1.17,0-2.18.05-3.02.16-1.06,0-1.96.05-2.71.16v63.49c-.85.21-1.75.42-2.71.64-.85.1-1.86.21-3.02.32-1.17.1-2.49.16-3.98.16-1.38,0-2.68-.05-3.9-.16-1.22-.11-2.25-.21-3.1-.32-1.06-.21-2.02-.43-2.86-.64V55.27c1.59-.21,3.5-.42,5.73-.64,1.91-.21,4.22-.37,6.92-.48,2.71-.1,5.81-.16,9.31-.16Z"/>
    <path class="cls-1" d="M615.87,138.02c-5.2,0-9.58-.61-13.13-1.83-3.56-1.22-6.44-2.97-8.67-5.25-2.23-2.28-3.82-5.04-4.77-8.27-.95-3.23-1.43-6.81-1.43-10.74,0-7.85,2.09-13.84,6.29-17.98,4.19-4.14,11.38-6.36,21.56-6.68l14.64-.48v-4.61c0-4.14-1.09-7-3.26-8.59-2.18-1.59-5.65-2.39-10.42-2.39-2.23,0-4.38.16-6.44.48-2.07.32-3.95.74-5.65,1.27-1.91.53-3.71,1.11-5.41,1.75-1.27-1.17-2.44-2.55-3.5-4.14-.95-1.38-1.86-3.08-2.71-5.09-.85-2.01-1.38-4.3-1.59-6.84,2.33-.95,4.93-1.8,7.8-2.55,2.44-.53,5.36-1.06,8.75-1.59,3.39-.53,7.11-.8,11.14-.8,4.77,0,9.04.45,12.81,1.35,3.76.9,7,2.44,9.71,4.61,2.71,2.18,4.77,4.99,6.21,8.43,1.43,3.45,2.15,7.72,2.15,12.81v53.78c-3.29.64-6.79,1.17-10.5,1.59-3.08.53-6.66.95-10.74,1.27-4.08.32-8.35.48-12.81.48ZM617.46,121.95c1.59,0,3.15-.05,4.69-.16,1.54-.1,2.94-.21,4.22-.32,1.38-.1,2.71-.26,3.98-.48v-19.1l-13.05.32c-2.33,0-4.19.29-5.57.88-1.38.58-2.42,1.33-3.1,2.23-.69.9-1.14,1.91-1.35,3.02-.21,1.11-.32,2.31-.32,3.58s.13,2.52.4,3.74c.26,1.22.77,2.28,1.51,3.18.74.9,1.8,1.65,3.18,2.23,1.38.58,3.18.88,5.41.88Z"/>
    <path class="cls-1" d="M667.11,22.81l19.57-6.37v119.98c-.85.21-1.75.42-2.71.64-.85.21-1.83.37-2.94.48-1.11.1-2.41.16-3.9.16-1.38,0-2.68-.05-3.9-.16-1.22-.11-2.25-.27-3.1-.48-1.06-.21-2.07-.43-3.02-.64V22.81Z"/>
    <path class="cls-2" d="M725.66,55.11c1.7-.21,3.45-.42,5.25-.64,1.48-.21,3.16-.37,5.01-.48,1.85-.1,3.63-.16,5.33-.16,11.03,0,19.39,3.24,25.06,9.71,5.67,6.47,8.51,17.03,8.51,31.67,0,6.05-.74,11.67-2.23,16.87-1.49,5.2-3.79,9.71-6.92,13.53-3.13,3.82-7.08,6.82-11.85,8.99-4.77,2.17-10.5,3.26-17.19,3.26-4.35,0-8.35-.05-12.01-.16-3.66-.11-6.87-.27-9.63-.48-3.18-.21-6.1-.48-8.75-.8V16.45c.85-.21,1.8-.42,2.86-.64.85-.1,1.91-.21,3.18-.32,1.27-.1,2.65-.16,4.14-.16s2.79.05,3.9.16c1.11.11,2.09.21,2.94.32.85.21,1.64.42,2.39.64v38.67ZM725.66,120.04c.85.11,1.7.21,2.55.32.85.11,1.72.19,2.63.24.9.05,1.77.08,2.62.08,4.35,0,7.9-.69,10.66-2.07,2.76-1.38,4.93-3.23,6.52-5.57,1.59-2.33,2.68-5.04,3.26-8.12.58-3.08.88-6.31.88-9.71,0-8.06-1.17-14-3.5-17.82-2.33-3.82-6.74-5.73-13.21-5.73-1.59,0-3.13.05-4.62.16-1.49.11-2.81.27-3.98.48-1.38.21-2.65.43-3.82.64v47.1Z"/>
    <path class="cls-2" d="M789.63,43.34c-.21-.64-.37-1.43-.48-2.39-.11-.74-.21-1.64-.32-2.71-.11-1.06-.16-2.28-.16-3.66s.05-2.6.16-3.66c.1-1.06.21-1.96.32-2.71.1-.85.26-1.59.48-2.23.85-.21,1.85-.37,3.02-.48,1.8-.32,4.19-.48,7.16-.48s5.3.16,7,.48c.95.11,1.85.27,2.71.48.21.74.37,1.59.48,2.55.32,1.7.48,3.87.48,6.52s-.16,4.56-.48,6.05c-.11.85-.27,1.59-.48,2.23-.96.21-2.02.37-3.18.48-.96.11-2.04.21-3.26.32-1.22.11-2.57.16-4.06.16-1.38,0-2.65-.05-3.82-.16-1.17-.1-2.18-.21-3.02-.32-.96-.1-1.81-.26-2.55-.48ZM809.2,136.43c-.64.21-1.43.42-2.39.64-.85.21-1.83.37-2.94.48-1.11.1-2.47.16-4.06.16-1.49,0-2.86-.05-4.14-.16-1.27-.11-2.33-.27-3.18-.48-1.06-.21-1.96-.43-2.71-.64V55.27c.85-.21,1.75-.42,2.71-.64.85-.21,1.85-.37,3.02-.48,1.17-.1,2.44-.16,3.82-.16,1.48,0,2.81.05,3.98.16,1.17.11,2.17.27,3.02.48,1.06.21,2.01.43,2.86.64v81.15Z"/>
  </g>
</svg>