<?xml version="1.0" encoding="UTF-8"?>
<svg version="1.1" xmlns="http://www.w3.org/2000/svg" width="3840" height="3840">
<path d="M0 0 C6.46374316 5.83034825 12.36556526 12.10555152 18.18774414 18.5690918 C20.05914603 20.6424345 21.94792113 22.69945225 23.83789062 24.75585938 C25.20360635 26.24185743 26.56710918 27.72985428 27.92993164 29.21850586 C30.66700327 32.20789666 33.40576485 35.19573538 36.14477539 38.18334961 C37.06144943 39.18334285 37.9781161 40.18334285 38.89477539 41.18334961 C39.34852539 41.67834961 39.80227539 42.17334961 40.26977539 42.68334961 C44.39477536 47.18334957 44.39477536 47.18334957 45.76953125 48.68310547 C46.68698224 49.68394629 47.60446275 50.68476006 48.52197266 51.68554688 C50.8018809 54.17246222 53.08128832 56.65983276 55.35961914 59.14819336 C60.11085098 64.33632008 64.87085613 69.51608522 69.64477539 74.68334961 C74.87289619 80.34223929 80.08321628 86.01717792 85.28588867 91.69946289 C87.57120035 94.19499368 89.8580712 96.68909488 92.14477539 99.18334961 C93.06144943 100.18334285 93.9781161 101.18334285 94.89477539 102.18334961 C95.34852539 102.67834961 95.80227539 103.17334961 96.26977539 103.68334961 C141.64477539 153.18334961 187.01977539 202.68334961 1486.39477539 1620.18334961 C1486.84868652 1620.67843018 1487.30259766 1621.17351074 1487.77026367 1621.68359375 C1488.68568619 1622.68242865 1489.60072615 1623.68161429 1490.51538086 1624.68115234 C1492.82305305 1627.20201105 1495.13731309 1629.71618816 1497.46508789 1632.21850586 C1503.45462446 1638.67173507 1509.16072393 1645.29214259 1514.64477539 1652.18334961 C1515.38856445 1653.0740918 1516.13235352 1653.96483398 1516.89868164 1654.88256836 C1529.57688866 1670.52668213 1539.83568508 1688.64748688 1547.64477539 1707.18334961 C1547.93755371 1707.8575293 1548.23033203 1708.53170898 1548.53198242 1709.22631836 C1557.73316949 1730.56066401 1562.68179182 1753.21359338 1565.64477539 1776.18334961 C1565.79688477 1777.35124023 1565.94899414 1778.51913086 1566.10571289 1779.72241211 C1566.4212391 1782.8862019 1566.56281564 1786.0039941 1566.64477539 1789.18334961 C1566.67055664 1790.04879395 1566.69633789 1790.91423828 1566.72290039 1791.8059082 C1568.37115139 1854.73819186 1547.96124982 1917.88722795 1504.33227539 1964.18334961 C1502.5908132 1966.01159408 1500.8446072 1967.83511624 1499.09545898 1969.65600586 C1497.38913946 1971.45249441 1495.7554548 1973.3008427 1494.14477539 1975.18334961 C1490.20247652 1979.7660219 1486.036084 1984.14028191 1481.90307617 1988.55004883 C1477.85231359 1992.87653468 1473.86075582 1997.24917891 1469.91040039 2001.66772461 C1466.71471479 2005.21603759 1463.47102274 2008.71912687 1460.22851562 2012.22460938 C1456.83775267 2015.89045879 1453.45518463 2019.56356568 1450.08227539 2023.24584961 C1449.63255371 2023.73682129 1449.18283203 2024.22779297 1448.71948242 2024.73364258 C1447.81414937 2025.72219476 1446.90887576 2026.71080138 1446.00366211 2027.69946289 C1443.71835043 2030.19499368 1441.43147959 2032.68909488 1439.14477539 2035.18334961 C1438.22810135 2036.18334285 1437.31143469 2037.18334285 1436.39477539 2038.18334961 C1391.01977539 2087.68334961 1345.64477539 2137.18334961 22.89477539 3580.18334961 C22.44102539 3580.67851074 21.98727539 3581.17367187 21.51977539 3581.68383789 C20.60375713 3582.68280524 19.687091 3583.6811789 18.76977539 3584.67895508 C16.46248617 3587.19026242 14.16768435 3589.71116806 11.89477539 3592.25366211 C1.31026481 3604.05331287 -10.03774142 3613.64311293 -23.35522461 3622.18334961 C-23.93643066 3622.55733887 -24.51763672 3622.93132813 -25.11645508 3623.31665039 C-59.587372 3645.12642469 -103.83124388 3651.21140122 -143.35571289 3642.55981445 C-168.87674692 3636.60969876 -192.37928433 3625.25309122 -212.35522461 3608.18334961 C-213.10545898 3607.55557617 -213.85569336 3606.92780273 -214.62866211 3606.28100586 C-225.69752217 3596.70147747 -235.43343977 3585.53858355 -245.15991211 3574.62866211 C-247.82255988 3571.66279467 -250.52364502 3568.73409237 -253.23022461 3565.80834961 C-258.50179893 3560.1093729 -263.75386874 3554.39298675 -268.99633789 3548.66723633 C-271.28164957 3546.17170554 -273.56852041 3543.67760434 -275.85522461 3541.18334961 C-276.77189865 3540.18335636 -277.68856531 3539.18335637 -278.60522461 3538.18334961 C-279.28584961 3537.44084961 -279.28584961 3537.44084961 -279.98022461 3536.68334961 C-326.04272461 3486.43334961 -326.04272461 3486.43334961 -372.10522461 3436.18334961 C-372.55961914 3435.68770508 -373.01401367 3435.19206055 -373.48217773 3434.68139648 C-374.39257019 3433.68812335 -375.30272909 3432.69463608 -376.21264648 3431.70092773 C-378.59837081 3429.09614121 -380.98885457 3426.4959443 -383.38647461 3423.90209961 C-383.8834082 3423.36327148 -384.3803418 3422.82444336 -384.89233398 3422.26928711 C-386.27458504 3420.77077195 -387.65860056 3419.27388492 -389.04272461 3417.77709961 C-390.94488438 3415.64359609 -392.69145887 3413.50386498 -394.35522461 3411.18334961 C-398.3993515 3414.99341128 -402.06459338 3418.97337948 -405.54272461 3423.30834961 C-408.99283616 3427.59894831 -412.59292713 3431.67003449 -416.35522461 3435.68334961 C-419.98489361 3439.55791331 -423.47271877 3443.47236525 -426.79272461 3447.62084961 C-430.81969205 3452.64176909 -435.14737164 3457.30756778 -439.5559082 3461.98950195 C-443.59791048 3466.30561839 -447.35117878 3470.78838592 -451.04663086 3475.40600586 C-453.70801918 3478.6077776 -456.50984707 3481.64569879 -459.35522461 3484.68334961 C-463.0041091 3488.57911242 -466.51220898 3492.51669245 -469.85522461 3496.68334961 C-473.67516472 3501.44443438 -477.7446128 3505.89607986 -481.91381836 3510.34741211 C-485.03091015 3513.6945183 -487.99103574 3517.11349102 -490.85522461 3520.68334961 C-494.67516472 3525.44443438 -498.7446128 3529.89607986 -502.91381836 3534.34741211 C-506.03091015 3537.6945183 -508.99103574 3541.11349102 -511.85522461 3544.68334961 C-515.67645433 3549.44604172 -519.74719293 3553.89933079 -523.91821289 3558.35180664 C-526.99516075 3561.65530223 -529.91187531 3565.02755514 -532.73022461 3568.55834961 C-537.01457288 3573.89814864 -541.63787237 3578.86531977 -546.33862305 3583.8359375 C-549.31670597 3586.98670394 -552.21810902 3590.15152339 -554.98022461 3593.49584961 C-577.7980708 3619.7761053 -616.46567833 3635.76101682 -650.35522461 3639.18334961 C-653.03820814 3639.29343099 -655.69599828 3639.36934063 -658.37866211 3639.38647461 C-659.48753281 3639.39706406 -659.48753281 3639.39706406 -660.61880493 3639.40786743 C-691.35507379 3639.63488042 -691.35507379 3639.63488042 -704.35522461 3636.18334961 C-705.14703125 3635.97935547 -705.93883789 3635.77536133 -706.75463867 3635.56518555 C-739.54144914 3626.92516299 -769.55133402 3609.43793127 -791.35522461 3583.18334961 C-793.28606153 3580.90681064 -795.22668103 3578.63868761 -797.16772461 3576.37084961 C-797.6850415 3575.7648291 -798.2023584 3575.15880859 -798.73535156 3574.53442383 C-801.93984005 3570.79260495 -805.20723108 3567.12228962 -808.54272461 3563.49584961 C-811.73259305 3560.02198652 -814.77571355 3556.48424936 -817.73022461 3552.80834961 C-821.59741324 3548.01194251 -825.70503177 3543.51293501 -829.91333008 3539.01977539 C-833.81504991 3534.83023394 -837.42839948 3530.46171136 -841.01147461 3525.99584961 C-843.68730632 3522.78485156 -846.49880737 3519.73305824 -849.35522461 3516.68334961 C-853.79355135 3511.94468497 -857.94664711 3507.06215635 -862.01147461 3501.99584961 C-864.68730632 3498.78485156 -867.49880737 3495.73305824 -870.35522461 3492.68334961 C-874.79355135 3487.94468497 -878.94664711 3483.06215635 -883.01147461 3477.99584961 C-885.68730632 3474.78485156 -888.49880737 3471.73305824 -891.35522461 3468.68334961 C-895.79355135 3463.94468497 -899.94664711 3459.06215635 -904.01147461 3453.99584961 C-906.68730632 3450.78485156 -909.49880737 3447.73305824 -912.35522461 3444.68334961 C-916.79355135 3439.94468497 -920.94664711 3435.06215635 -925.01147461 3429.99584961 C-927.68730632 3426.78485156 -930.49880737 3423.73305824 -933.35522461 3420.68334961 C-937.79355135 3415.94468497 -941.94664711 3411.06215635 -946.01147461 3405.99584961 C-948.68730632 3402.78485156 -951.49880737 3399.73305824 -954.35522461 3396.68334961 C-958.79355135 3391.94468497 -962.94664711 3387.06215635 -967.01147461 3381.99584961 C-969.68730632 3378.78485156 -972.49880737 3375.73305824 -975.35522461 3372.68334961 C-979.79355135 3367.94468497 -983.94664711 3363.06215635 -988.01147461 3357.99584961 C-990.68730632 3354.78485156 -993.49880737 3351.73305824 -996.35522461 3348.68334961 C-1000.79355135 3343.94468497 -1004.94664711 3339.06215635 -1009.01147461 3333.99584961 C-1011.68730632 3330.78485156 -1014.49880737 3327.73305824 -1017.35522461 3324.68334961 C-1021.79355135 3319.94468497 -1025.94664711 3315.06215635 -1030.01147461 3309.99584961 C-1032.68730632 3306.78485156 -1035.49880737 3303.73305824 -1038.35522461 3300.68334961 C-1042.79355135 3295.94468497 -1046.94664711 3291.06215635 -1051.01147461 3285.99584961 C-1053.68730632 3282.78485156 -1056.49880737 3279.73305824 -1059.35522461 3276.68334961 C-1063.79355135 3271.94468497 -1067.94664711 3267.06215635 -1072.01147461 3261.99584961 C-1074.68730632 3258.78485156 -1077.49880737 3255.73305824 -1080.35522461 3252.68334961 C-1084.79355135 3247.94468497 -1088.94664711 3243.06215635 -1093.01147461 3237.99584961 C-1095.68730632 3234.78485156 -1098.49880737 3231.73305824 -1101.35522461 3228.68334961 C-1105.79355135 3223.94468497 -1109.94664711 3219.06215635 -1114.01147461 3213.99584961 C-1116.68730632 3210.78485156 -1119.49880737 3207.73305824 -1122.35522461 3204.68334961 C-1126.79355135 3199.94468497 -1130.94664711 3195.06215635 -1135.01147461 3189.99584961 C-1137.68730632 3186.78485156 -1140.49880737 3183.73305824 -1143.35522461 3180.68334961 C-1147.79355135 3175.94468497 -1151.94664711 3171.06215635 -1156.01147461 3165.99584961 C-1158.68730632 3162.78485156 -1161.49880737 3159.73305824 -1164.35522461 3156.68334961 C-1168.79355135 3151.94468497 -1172.94664711 3147.06215635 -1177.01147461 3141.99584961 C-1179.68730632 3138.78485156 -1182.49880737 3135.73305824 -1185.35522461 3132.68334961 C-1189.79355135 3127.94468497 -1193.94664711 3123.06215635 -1198.01147461 3117.99584961 C-1200.68730632 3114.78485156 -1203.49880737 3111.73305824 -1206.35522461 3108.68334961 C-1210.79355135 3103.94468497 -1214.94664711 3099.06215635 -1219.01147461 3093.99584961 C-1221.68730632 3090.78485156 -1224.49880737 3087.73305824 -1227.35522461 3084.68334961 C-1231.79355135 3079.94468497 -1235.94664711 3075.06215635 -1240.01147461 3069.99584961 C-1242.68730632 3066.78485156 -1245.49880737 3063.73305824 -1248.35522461 3060.68334961 C-1252.79355135 3055.94468497 -1256.94664711 3051.06215635 -1261.01147461 3045.99584961 C-1263.68730632 3042.78485156 -1266.49880737 3039.73305824 -1269.35522461 3036.68334961 C-1273.79355135 3031.94468497 -1277.94664711 3027.06215635 -1282.01147461 3021.99584961 C-1284.68730632 3018.78485156 -1287.49880737 3015.73305824 -1290.35522461 3012.68334961 C-1294.79355135 3007.94468497 -1298.94664711 3003.06215635 -1303.01147461 2997.99584961 C-1305.68730632 2994.78485156 -1308.49880737 2991.73305824 -1311.35522461 2988.68334961 C-1315.79355135 2983.94468497 -1319.94664711 2979.06215635 -1324.01147461 2973.99584961 C-1326.68730632 2970.78485156 -1329.49880737 2967.73305824 -1332.35522461 2964.68334961 C-1336.79355135 2959.94468497 -1340.94664711 2955.06215635 -1345.01147461 2949.99584961 C-1347.68730632 2946.78485156 -1350.49880737 2943.73305824 -1353.35522461 2940.68334961 C-1357.79355135 2935.94468497 -1361.94664711 2931.06215635 -1366.01147461 2925.99584961 C-1368.68730632 2922.78485156 -1371.49880737 2919.73305824 -1374.35522461 2916.68334961 C-1378.79355135 2911.94468497 -1382.94664711 2907.06215635 -1387.01147461 2901.99584961 C-1389.68730632 2898.78485156 -1392.49880737 2895.73305824 -1395.35522461 2892.68334961 C-1399.79355135 2887.94468497 -1403.94664711 2883.06215635 -1408.01147461 2877.99584961 C-1410.68730632 2874.78485156 -1413.49880737 2871.73305824 -1416.35522461 2868.68334961 C-1420.79355135 2863.94468497 -1424.94664711 2859.06215635 -1429.01147461 2853.99584961 C-1431.68730632 2850.78485156 -1434.49880737 2847.73305824 -1437.35522461 2844.68334961 C-1441.79355135 2839.94468497 -1445.94664711 2835.06215635 -1450.01147461 2829.99584961 C-1452.68730632 2826.78485156 -1455.49880737 2823.73305824 -1458.35522461 2820.68334961 C-1462.79355135 2815.94468497 -1466.94664711 2811.06215635 -1471.01147461 2805.99584961 C-1473.68730632 2802.78485156 -1476.49880737 2799.73305824 -1479.35522461 2796.68334961 C-1483.79355135 2791.94468497 -1487.94664711 2787.06215635 -1492.01147461 2781.99584961 C-1494.68730632 2778.78485156 -1497.49880737 2775.73305824 -1500.35522461 2772.68334961 C-1504.79355135 2767.94468497 -1508.94664711 2763.06215635 -1513.01147461 2757.99584961 C-1515.68730632 2754.78485156 -1518.49880737 2751.73305824 -1521.35522461 2748.68334961 C-1525.79355135 2743.94468497 -1529.94664711 2739.06215635 -1534.01147461 2733.99584961 C-1536.68730632 2730.78485156 -1539.49880737 2727.73305824 -1542.35522461 2724.68334961 C-1546.79355135 2719.94468497 -1550.94664711 2715.06215635 -1555.01147461 2709.99584961 C-1557.68730632 2706.78485156 -1560.49880737 2703.73305824 -1563.35522461 2700.68334961 C-1567.79355135 2695.94468497 -1571.94664711 2691.06215635 -1576.01147461 2685.99584961 C-1578.68730632 2682.78485156 -1581.49880737 2679.73305824 -1584.35522461 2676.68334961 C-1588.79355135 2671.94468497 -1592.94664711 2667.06215635 -1597.01147461 2661.99584961 C-1599.68730632 2658.78485156 -1602.49880737 2655.73305824 -1605.35522461 2652.68334961 C-1609.79355135 2647.94468497 -1613.94664711 2643.06215635 -1618.01147461 2637.99584961 C-1620.68730632 2634.78485156 -1623.49880737 2631.73305824 -1626.35522461 2628.68334961 C-1630.79355135 2623.94468497 -1634.94664711 2619.06215635 -1639.01147461 2613.99584961 C-1641.68730632 2610.78485156 -1644.49880737 2607.73305824 -1647.35522461 2604.68334961 C-1651.79355135 2599.94468497 -1655.94664711 2595.06215635 -1660.01147461 2589.99584961 C-1662.68730632 2586.78485156 -1665.49880737 2583.73305824 -1668.35522461 2580.68334961 C-1672.79355135 2575.94468497 -1676.94664711 2571.06215635 -1681.01147461 2565.99584961 C-1683.68730632 2562.78485156 -1686.49880737 2559.73305824 -1689.35522461 2556.68334961 C-1693.79355135 2551.94468497 -1697.94664711 2547.06215635 -1702.01147461 2541.99584961 C-1704.68730632 2538.78485156 -1707.49880737 2535.73305824 -1710.35522461 2532.68334961 C-1714.79355135 2527.94468497 -1718.94664711 2523.06215635 -1723.01147461 2517.99584961 C-1725.68730632 2514.78485156 -1728.49880737 2511.73305824 -1731.35522461 2508.68334961 C-1735.79355135 2503.94468497 -1739.94664711 2499.06215635 -1744.01147461 2493.99584961 C-1746.68730632 2490.78485156 -1749.49880737 2487.73305824 -1752.35522461 2484.68334961 C-1756.79355135 2479.94468497 -1760.94664711 2475.06215635 -1765.01147461 2469.99584961 C-1767.68730632 2466.78485156 -1770.49880737 2463.73305824 -1773.35522461 2460.68334961 C-1777.79355135 2455.94468497 -1781.94664711 2451.06215635 -1786.01147461 2445.99584961 C-1788.68730632 2442.78485156 -1791.49880737 2439.73305824 -1794.35522461 2436.68334961 C-1798.79355135 2431.94468497 -1802.94664711 2427.06215635 -1807.01147461 2421.99584961 C-1809.68730632 2418.78485156 -1812.49880737 2415.73305824 -1815.35522461 2412.68334961 C-1819.79355135 2407.94468497 -1823.94664711 2403.06215635 -1828.01147461 2397.99584961 C-1830.68730632 2394.78485156 -1833.49880737 2391.73305824 -1836.35522461 2388.68334961 C-1840.79355135 2383.94468497 -1844.94664711 2379.06215635 -1849.01147461 2373.99584961 C-1851.68730632 2370.78485156 -1854.49880737 2367.73305824 -1857.35522461 2364.68334961 C-1861.79355135 2359.94468497 -1865.94664711 2355.06215635 -1870.01147461 2349.99584961 C-1872.68730632 2346.78485156 -1875.49880737 2343.73305824 -1878.35522461 2340.68334961 C-1882.79355135 2335.94468497 -1886.94664711 2331.06215635 -1891.01147461 2325.99584961 C-1893.68730632 2322.78485156 -1896.49880737 2319.73305824 -1899.35522461 2316.68334961 C-1903.79355135 2311.94468497 -1907.94664711 2307.06215635 -1912.01147461 2301.99584961 C-1914.68730632 2298.78485156 -1917.49880737 2295.73305824 -1920.35522461 2292.68334961 C-1924.79355135 2287.94468497 -1928.94664711 2283.06215635 -1933.01147461 2277.99584961 C-1935.68730632 2274.78485156 -1938.49880737 2271.73305824 -1941.35522461 2268.68334961 C-1945.79355135 2263.94468497 -1949.94664711 2259.06215635 -1954.01147461 2253.99584961 C-1956.68730632 2250.78485156 -1959.49880737 2247.73305824 -1962.35522461 2244.68334961 C-1966.79355135 2239.94468497 -1970.94664711 2235.06215635 -1975.01147461 2229.99584961 C-1977.68730632 2226.78485156 -1980.49880737 2223.73305824 -1983.35522461 2220.68334961 C-1987.79355135 2215.94468497 -1991.94664711 2211.06215635 -1996.01147461 2205.99584961 C-1998.68730632 2202.78485156 -2001.49880737 2199.73305824 -2004.35522461 2196.68334961 C-2008.79355135 2191.94468497 -2012.94664711 2187.06215635 -2017.01147461 2181.99584961 C-2019.68730632 2178.78485156 -2022.49880737 2175.73305824 -2025.35522461 2172.68334961 C-2029.79355135 2167.94468497 -2033.94664711 2163.06215635 -2038.01147461 2157.99584961 C-2040.68730632 2154.78485156 -2043.49880737 2151.73305824 -2046.35522461 2148.68334961 C-2050.79355135 2143.94468497 -2054.94664711 2139.06215635 -2059.01147461 2133.99584961 C-2061.68730632 2130.78485156 -2064.49880737 2127.73305824 -2067.35522461 2124.68334961 C-2071.79355135 2119.94468497 -2075.94664711 2115.06215635 -2080.01147461 2109.99584961 C-2082.68730632 2106.78485156 -2085.49880737 2103.73305824 -2088.35522461 2100.68334961 C-2092.79355135 2095.94468497 -2096.94664711 2091.06215635 -2101.01147461 2085.99584961 C-2103.68730632 2082.78485156 -2106.49880737 2079.73305824 -2109.35522461 2076.68334961 C-2113.79355135 2071.94468497 -2117.94664711 2067.06215635 -2122.01147461 2061.99584961 C-2124.68730632 2058.78485156 -2127.49880737 2055.73305824 -2130.35522461 2052.68334961 C-2134.79355135 2047.94468497 -2138.94664711 2043.06215635 -2143.01147461 2037.99584961 C-2145.68730632 2034.78485156 -2148.49880737 2031.73305824 -2151.35522461 2028.68334961 C-2155.79355135 2023.94468497 -2159.94664711 2019.06215635 -2164.01147461 2013.99584961 C-2166.68730632 2010.78485156 -2169.49880737 2007.73305824 -2172.35522461 2004.68334961 C-2176.79355135 1999.94468497 -2180.94664711 1995.06215635 -2185.01147461 1989.99584961 C-2187.68730846 1986.78484899 -2190.49883599 1983.73308826 -2193.35522461 1980.68334961 C-2197.84162427 1975.89250059 -2202.05584517 1970.96209955 -2206.15991211 1965.83569336 C-2208.37786312 1963.1559981 -2210.71415757 1960.64646222 -2213.10522461 1958.12084961 C-2240.10192676 1928.57492327 -2256.99351117 1889.9531621 -2265.35522461 1851.18334961 C-2265.7612793 1849.48988403 -2265.7612793 1849.48988403 -2266.17553711 1847.76220703 C-2269.03989048 1834.29718871 -2268.88260268 1820.69116724 -2268.85620117 1806.98535156 C-2268.85151175 1804.17469208 -2268.86522266 1801.36516706 -2268.8972168 1798.5546875 C-2269.44169105 1750.13725495 -2255.09552103 1702.53332797 -2226.35522461 1663.18334961 C-2225.73284912 1662.32990967 -2225.73284912 1662.32990967 -2225.09790039 1661.45922852 C-2220.25073678 1654.8752112 -2215.10025412 1648.64921644 -2209.55834961 1642.63256836 C-2207.29132453 1640.11231175 -2205.1638904 1637.51467675 -2203.04272461 1634.87084961 C-2199.15201753 1630.05669373 -2195.02521995 1625.53410627 -2190.79736328 1621.02001953 C-2187.67997735 1617.67270718 -2184.71963294 1614.25348173 -2181.85522461 1610.68334961 C-2178.0352845 1605.92226483 -2173.96583642 1601.47061936 -2169.79663086 1597.01928711 C-2166.67953907 1593.67218092 -2163.71941348 1590.2532082 -2160.85522461 1586.68334961 C-2157.0352845 1581.92226483 -2152.96583642 1577.47061936 -2148.79663086 1573.01928711 C-2145.67953907 1569.67218092 -2142.71941348 1566.2532082 -2139.85522461 1562.68334961 C-2136.0352845 1557.92226483 -2131.96583642 1553.47061936 -2127.79663086 1549.01928711 C-2124.67953907 1545.67218092 -2121.71941348 1542.2532082 -2118.85522461 1538.68334961 C-2115.0352845 1533.92226483 -2110.96583642 1529.47061936 -2106.79663086 1525.01928711 C-2103.67953907 1521.67218092 -2100.71941348 1518.2532082 -2097.85522461 1514.68334961 C-2094.0352845 1509.92226483 -2089.96583642 1505.47061936 -2085.79663086 1501.01928711 C-2082.67953907 1497.67218092 -2079.71941348 1494.2532082 -2076.85522461 1490.68334961 C-2073.0352845 1485.92226483 -2068.96583642 1481.47061936 -2064.79663086 1477.01928711 C-2061.67953907 1473.67218092 -2058.71941348 1470.2532082 -2055.85522461 1466.68334961 C-2052.0352845 1461.92226483 -2047.96583642 1457.47061936 -2043.79663086 1453.01928711 C-2040.67953907 1449.67218092 -2037.71941348 1446.2532082 -2034.85522461 1442.68334961 C-2031.0352845 1437.92226483 -2026.96583642 1433.47061936 -2022.79663086 1429.01928711 C-2019.67953907 1425.67218092 -2016.71941348 1422.2532082 -2013.85522461 1418.68334961 C-2010.0352845 1413.92226483 -2005.96583642 1409.47061936 -2001.79663086 1405.01928711 C-1998.67953907 1401.67218092 -1995.71941348 1398.2532082 -1992.85522461 1394.68334961 C-1989.0352845 1389.92226483 -1984.96583642 1385.47061936 -1980.79663086 1381.01928711 C-1977.67953907 1377.67218092 -1974.71941348 1374.2532082 -1971.85522461 1370.68334961 C-1968.0352845 1365.92226483 -1963.96583642 1361.47061936 -1959.79663086 1357.01928711 C-1956.67953907 1353.67218092 -1953.71941348 1350.2532082 -1950.85522461 1346.68334961 C-1947.0352845 1341.92226483 -1942.96583642 1337.47061936 -1938.79663086 1333.01928711 C-1935.67953907 1329.67218092 -1932.71941348 1326.2532082 -1929.85522461 1322.68334961 C-1926.0352845 1317.92226483 -1921.96583642 1313.47061936 -1917.79663086 1309.01928711 C-1914.67953907 1305.67218092 -1911.71941348 1302.2532082 -1908.85522461 1298.68334961 C-1905.0352845 1293.92226483 -1900.96583642 1289.47061936 -1896.79663086 1285.01928711 C-1893.67953907 1281.67218092 -1890.71941348 1278.2532082 -1887.85522461 1274.68334961 C-1884.0352845 1269.92226483 -1879.96583642 1265.47061936 -1875.79663086 1261.01928711 C-1872.67953907 1257.67218092 -1869.71941348 1254.2532082 -1866.85522461 1250.68334961 C-1863.0352845 1245.92226483 -1858.96583642 1241.47061936 -1854.79663086 1237.01928711 C-1851.67953907 1233.67218092 -1848.71941348 1230.2532082 -1845.85522461 1226.68334961 C-1842.0352845 1221.92226483 -1837.96583642 1217.47061936 -1833.79663086 1213.01928711 C-1830.67953907 1209.67218092 -1827.71941348 1206.2532082 -1824.85522461 1202.68334961 C-1821.0352845 1197.92226483 -1816.96583642 1193.47061936 -1812.79663086 1189.01928711 C-1809.67953907 1185.67218092 -1806.71941348 1182.2532082 -1803.85522461 1178.68334961 C-1800.0352845 1173.92226483 -1795.96583642 1169.47061936 -1791.79663086 1165.01928711 C-1788.67953907 1161.67218092 -1785.71941348 1158.2532082 -1782.85522461 1154.68334961 C-1779.0352845 1149.92226483 -1774.96583642 1145.47061936 -1770.79663086 1141.01928711 C-1767.67953907 1137.67218092 -1764.71941348 1134.2532082 -1761.85522461 1130.68334961 C-1758.0352845 1125.92226483 -1753.96583642 1121.47061936 -1749.79663086 1117.01928711 C-1746.67953907 1113.67218092 -1743.71941348 1110.2532082 -1740.85522461 1106.68334961 C-1737.0352845 1101.92226483 -1732.96583642 1097.47061936 -1728.79663086 1093.01928711 C-1725.67953907 1089.67218092 -1722.71941348 1086.2532082 -1719.85522461 1082.68334961 C-1716.0352845 1077.92226483 -1711.96583642 1073.47061936 -1707.79663086 1069.01928711 C-1704.67953907 1065.67218092 -1701.71941348 1062.2532082 -1698.85522461 1058.68334961 C-1695.0352845 1053.92226483 -1690.96583642 1049.47061936 -1686.79663086 1045.01928711 C-1683.67953907 1041.67218092 -1680.71941348 1038.2532082 -1677.85522461 1034.68334961 C-1674.0352845 1029.92226483 -1669.96583642 1025.47061936 -1665.79663086 1021.01928711 C-1662.67953907 1017.67218092 -1659.71941348 1014.2532082 -1656.85522461 1010.68334961 C-1653.0352845 1005.92226483 -1648.96583642 1001.47061936 -1644.79663086 997.01928711 C-1641.67953907 993.67218092 -1638.71941348 990.2532082 -1635.85522461 986.68334961 C-1632.0352845 981.92226483 -1627.96583642 977.47061936 -1623.79663086 973.01928711 C-1620.67953907 969.67218092 -1617.71941348 966.2532082 -1614.85522461 962.68334961 C-1611.0352845 957.92226483 -1606.96583642 953.47061936 -1602.79663086 949.01928711 C-1599.67953907 945.67218092 -1596.71941348 942.2532082 -1593.85522461 938.68334961 C-1590.0352845 933.92226483 -1585.96583642 929.47061936 -1581.79663086 925.01928711 C-1578.67953907 921.67218092 -1575.71941348 918.2532082 -1572.85522461 914.68334961 C-1569.0352845 909.92226483 -1564.96583642 905.47061936 -1560.79663086 901.01928711 C-1557.67953907 897.67218092 -1554.71941348 894.2532082 -1551.85522461 890.68334961 C-1548.0352845 885.92226483 -1543.96583642 881.47061936 -1539.79663086 877.01928711 C-1536.67953907 873.67218092 -1533.71941348 870.2532082 -1530.85522461 866.68334961 C-1527.0352845 861.92226483 -1522.96583642 857.47061936 -1518.79663086 853.01928711 C-1515.67953907 849.67218092 -1512.71941348 846.2532082 -1509.85522461 842.68334961 C-1506.0352845 837.92226483 -1501.96583642 833.47061936 -1497.79663086 829.01928711 C-1494.67953907 825.67218092 -1491.71941348 822.2532082 -1488.85522461 818.68334961 C-1485.0352845 813.92226483 -1480.96583642 809.47061936 -1476.79663086 805.01928711 C-1473.67953907 801.67218092 -1470.71941348 798.2532082 -1467.85522461 794.68334961 C-1464.0352845 789.92226483 -1459.96583642 785.47061936 -1455.79663086 781.01928711 C-1452.67953907 777.67218092 -1449.71941348 774.2532082 -1446.85522461 770.68334961 C-1443.0352845 765.92226483 -1438.96583642 761.47061936 -1434.79663086 757.01928711 C-1431.67953907 753.67218092 -1428.71941348 750.2532082 -1425.85522461 746.68334961 C-1422.0352845 741.92226483 -1417.96583642 737.47061936 -1413.79663086 733.01928711 C-1410.67953907 729.67218092 -1407.71941348 726.2532082 -1404.85522461 722.68334961 C-1401.0352845 717.92226483 -1396.96583642 713.47061936 -1392.79663086 709.01928711 C-1389.67953907 705.67218092 -1386.71941348 702.2532082 -1383.85522461 698.68334961 C-1380.0352845 693.92226483 -1375.96583642 689.47061936 -1371.79663086 685.01928711 C-1368.67953907 681.67218092 -1365.71941348 678.2532082 -1362.85522461 674.68334961 C-1359.0352845 669.92226483 -1354.96583642 665.47061936 -1350.79663086 661.01928711 C-1347.67953907 657.67218092 -1344.71941348 654.2532082 -1341.85522461 650.68334961 C-1338.0352845 645.92226483 -1333.96583642 641.47061936 -1329.79663086 637.01928711 C-1326.67953907 633.67218092 -1323.71941348 630.2532082 -1320.85522461 626.68334961 C-1317.0352845 621.92226483 -1312.96583642 617.47061936 -1308.79663086 613.01928711 C-1305.67953907 609.67218092 -1302.71941348 606.2532082 -1299.85522461 602.68334961 C-1296.0352845 597.92226483 -1291.96583642 593.47061936 -1287.79663086 589.01928711 C-1284.67953907 585.67218092 -1281.71941348 582.2532082 -1278.85522461 578.68334961 C-1275.0352845 573.92226483 -1270.96583642 569.47061936 -1266.79663086 565.01928711 C-1263.67953907 561.67218092 -1260.71941348 558.2532082 -1257.85522461 554.68334961 C-1254.0352845 549.92226483 -1249.96583642 545.47061936 -1245.79663086 541.01928711 C-1242.67953907 537.67218092 -1239.71941348 534.2532082 -1236.85522461 530.68334961 C-1233.0352845 525.92226483 -1228.96583642 521.47061936 -1224.79663086 517.01928711 C-1221.67953907 513.67218092 -1218.71941348 510.2532082 -1215.85522461 506.68334961 C-1212.0352845 501.92226483 -1207.96583642 497.47061936 -1203.79663086 493.01928711 C-1200.67953907 489.67218092 -1197.71941348 486.2532082 -1194.85522461 482.68334961 C-1191.0352845 477.92226483 -1186.96583642 473.47061936 -1182.79663086 469.01928711 C-1179.67953907 465.67218092 -1176.71941348 462.2532082 -1173.85522461 458.68334961 C-1170.0352845 453.92226483 -1165.96583642 449.47061936 -1161.79663086 445.01928711 C-1158.67953907 441.67218092 -1155.71941348 438.2532082 -1152.85522461 434.68334961 C-1149.0352845 429.92226483 -1144.96583642 425.47061936 -1140.79663086 421.01928711 C-1137.67953907 417.67218092 -1134.71941348 414.2532082 -1131.85522461 410.68334961 C-1128.0352845 405.92226483 -1123.96583642 401.47061936 -1119.79663086 397.01928711 C-1116.67953907 393.67218092 -1113.71941348 390.2532082 -1110.85522461 386.68334961 C-1107.0352845 381.92226483 -1102.96583642 377.47061936 -1098.79663086 373.01928711 C-1095.67953907 369.67218092 -1092.71941348 366.2532082 -1089.85522461 362.68334961 C-1086.0352845 357.92226483 -1081.96583642 353.47061936 -1077.79663086 349.01928711 C-1074.67953907 345.67218092 -1071.71941348 342.2532082 -1068.85522461 338.68334961 C-1065.0352845 333.92226483 -1060.96583642 329.47061936 -1056.79663086 325.01928711 C-1053.67953907 321.67218092 -1050.71941348 318.2532082 -1047.85522461 314.68334961 C-1044.0352845 309.92226483 -1039.96583642 305.47061936 -1035.79663086 301.01928711 C-1032.67953907 297.67218092 -1029.71941348 294.2532082 -1026.85522461 290.68334961 C-1023.0352845 285.92226483 -1018.96583642 281.47061936 -1014.79663086 277.01928711 C-1011.67953907 273.67218092 -1008.71941348 270.2532082 -1005.85522461 266.68334961 C-1002.0352845 261.92226483 -997.96583642 257.47061936 -993.79663086 253.01928711 C-990.67953907 249.67218092 -987.71941348 246.2532082 -984.85522461 242.68334961 C-981.0352845 237.92226483 -976.96583642 233.47061936 -972.79663086 229.01928711 C-969.67953907 225.67218092 -966.71941348 222.2532082 -963.85522461 218.68334961 C-960.0352845 213.92226483 -955.96583642 209.47061936 -951.79663086 205.01928711 C-948.67953907 201.67218092 -945.71941348 198.2532082 -942.85522461 194.68334961 C-939.0352845 189.92226483 -934.96583642 185.47061936 -930.79663086 181.01928711 C-927.67953907 177.67218092 -924.71941348 174.2532082 -921.85522461 170.68334961 C-918.0352845 165.92226483 -913.96583642 161.47061936 -909.79663086 157.01928711 C-906.67953907 153.67218092 -903.71941348 150.2532082 -900.85522461 146.68334961 C-897.0352845 141.92226483 -892.96583642 137.47061936 -888.79663086 133.01928711 C-885.67953907 129.67218092 -882.71941348 126.2532082 -879.85522461 122.68334961 C-876.0352845 117.92226483 -871.96583642 113.47061936 -867.79663086 109.01928711 C-864.67953907 105.67218092 -861.71941348 102.2532082 -858.85522461 98.68334961 C-855.0352845 93.92226483 -850.96583642 89.47061936 -846.79663086 85.01928711 C-843.67953907 81.67218092 -840.71941348 78.2532082 -837.85522461 74.68334961 C-834.0352845 69.92226483 -829.96583642 65.47061936 -825.79663086 61.01928711 C-822.67953907 57.67218092 -819.71941348 54.2532082 -816.85522461 50.68334961 C-813.03399489 45.92065749 -808.96325629 41.46736843 -804.79223633 37.01489258 C-801.71528847 33.71139699 -798.79857391 30.33914408 -795.98022461 26.80834961 C-786.25866093 14.79214658 -775.92203477 4.20033114 -763.35522461 -4.81665039 C-762.78255859 -5.2375293 -762.20989258 -5.6584082 -761.61987305 -6.09204102 C-737.97359316 -23.35926278 -707.79995639 -34.83178378 -678.33178711 -35.01977539 C-677.59240402 -35.0267897 -676.85302094 -35.03380402 -676.0912323 -35.04103088 C-673.72083368 -35.05842702 -671.3506847 -35.06488213 -668.98022461 -35.06665039 C-668.17120697 -35.06732513 -667.36218933 -35.06799988 -666.52865601 -35.06869507 C-654.86927915 -35.05321732 -643.70484262 -34.72382714 -632.35522461 -31.81665039 C-631.65526367 -31.63972656 -630.95530273 -31.46280273 -630.23413086 -31.28051758 C-591.6898584 -21.33527081 -561.37869299 0.6106209 -536.69897461 31.37084961 C-534.0231429 34.58184766 -531.21164185 37.63364098 -528.35522461 40.68334961 C-523.91689787 45.42201425 -519.76380211 50.30454287 -515.69897461 55.37084961 C-513.0231429 58.58184766 -510.21164185 61.63364098 -507.35522461 64.68334961 C-502.91689787 69.42201425 -498.76380211 74.30454287 -494.69897461 79.37084961 C-492.0231429 82.58184766 -489.21164185 85.63364098 -486.35522461 88.68334961 C-481.91689787 93.42201425 -477.76380211 98.30454287 -473.69897461 103.37084961 C-471.0231429 106.58184766 -468.21164185 109.63364098 -465.35522461 112.68334961 C-460.91689787 117.42201425 -456.76380211 122.30454287 -452.69897461 127.37084961 C-450.0231429 130.58184766 -447.21164185 133.63364098 -444.35522461 136.68334961 C-439.91689787 141.42201425 -435.76380211 146.30454287 -431.69897461 151.37084961 C-429.0231429 154.58184766 -426.21164185 157.63364098 -423.35522461 160.68334961 C-419.70635805 164.57913195 -416.19824222 168.51668998 -412.85522461 172.68334961 C-407.09965722 179.85404732 -400.85753445 186.68103977 -394.35522461 193.18334961 C-394.01233398 192.77987305 -393.66944336 192.37639648 -393.31616211 191.96069336 C-388.56053174 186.4436936 -383.59681156 181.13360741 -378.61694336 175.8203125 C-374.56505114 171.49259482 -370.57231929 167.11876662 -366.62084961 162.69897461 C-363.42516401 159.15066163 -360.18147196 155.64757235 -356.93896484 152.14208984 C-353.54820189 148.47624043 -350.16563384 144.80313354 -346.79272461 141.12084961 C-346.34300293 140.62987793 -345.89328125 140.13890625 -345.42993164 139.63305664 C-344.52459859 138.64450446 -343.61932498 137.65589784 -342.71411133 136.66723633 C-340.42879965 134.17170554 -338.1419288 131.67760434 -335.85522461 129.18334961 C-334.93855057 128.18335636 -334.0218839 127.18335637 -333.10522461 126.18334961 C-301.93855794 92.18334961 -270.77189128 58.18334961 -239.60522461 24.18334961 C-239.15147461 23.68818848 -238.69772461 23.19302734 -238.23022461 22.68286133 C-237.31420635 21.68389398 -236.39754022 20.68552031 -235.48022461 19.68774414 C-233.17293539 17.1764368 -230.87813357 14.65553116 -228.60522461 12.11303711 C-169.47788163 -53.80233921 -68.03109713 -59.2285777 0 0 Z " fill="#DB79BF" transform="translate(2268.355224609375,117.816650390625)"/>
<path d="M0 0 C0.73938309 -0.00701431 1.47876617 -0.01402863 2.24055481 -0.02125549 C4.61095343 -0.03865163 6.98110241 -0.04510674 9.3515625 -0.046875 C10.16058014 -0.04754974 10.96959778 -0.04822449 11.8031311 -0.04891968 C23.46250796 -0.03344192 34.62694449 0.29594826 45.9765625 3.203125 C46.67652344 3.38004883 47.37648438 3.55697266 48.09765625 3.73925781 C86.64192871 13.68450458 116.95309412 35.63039629 141.6328125 66.390625 C144.30864421 69.60162305 147.12014526 72.65341637 149.9765625 75.703125 C154.41488924 80.44178964 158.567985 85.32431826 162.6328125 90.390625 C165.30864421 93.60162305 168.12014526 96.65341637 170.9765625 99.703125 C175.41488924 104.44178964 179.567985 109.32431826 183.6328125 114.390625 C186.30864421 117.60162305 189.12014526 120.65341637 191.9765625 123.703125 C196.41488924 128.44178964 200.567985 133.32431826 204.6328125 138.390625 C207.30864421 141.60162305 210.12014526 144.65341637 212.9765625 147.703125 C217.41488924 152.44178964 221.567985 157.32431826 225.6328125 162.390625 C228.30864421 165.60162305 231.12014526 168.65341637 233.9765625 171.703125 C238.41488924 176.44178964 242.567985 181.32431826 246.6328125 186.390625 C249.30864421 189.60162305 252.12014526 192.65341637 254.9765625 195.703125 C259.40640768 200.43273414 263.558585 205.29860174 267.6015625 210.3671875 C269.406621 212.52256986 271.23077319 214.56658126 273.1640625 216.6015625 C273.71255859 217.17970703 274.26105469 217.75785156 274.82617188 218.35351562 C275.90208513 219.47781315 276.98638765 220.59415996 278.08007812 221.70117188 C280.21884085 223.93523989 281.86165026 225.93938545 283.1015625 228.78515625 C282.91278195 232.43688009 281.1329762 233.59750724 278.4765625 236.015625 C273.93114069 240.29061453 273.93114069 240.29061453 269.7265625 244.890625 C266.29864419 248.89527838 262.70689175 252.73399135 259.1015625 256.578125 C254.42576612 261.56657932 249.7994519 266.59011538 245.2421875 271.6875 C242.0465019 275.23581298 238.80280985 278.73890226 235.56030273 282.24438477 C232.16953978 285.91023418 228.78697173 289.58334107 225.4140625 293.265625 C224.96434082 293.75659668 224.51461914 294.24756836 224.05126953 294.75341797 C223.14593648 295.74197015 222.24066287 296.73057677 221.33544922 297.71923828 C219.05013754 300.21476907 216.7632667 302.70887027 214.4765625 305.203125 C213.55988846 306.20311825 212.6432218 307.20311824 211.7265625 308.203125 C162.2265625 362.203125 162.2265625 362.203125 160.85107422 363.70361328 C159.93597617 364.70193161 159.02093695 365.70030386 158.10595703 366.69873047 C155.79077398 369.2249092 153.4745224 371.75009332 151.15625 374.2734375 C146.92889499 378.87662265 142.71130167 383.48726276 138.5390625 388.140625 C134.08012335 393.10824883 129.55217919 398.00995752 125.01953125 402.91015625 C122.14261488 406.02095341 119.27606633 409.14110845 116.4140625 412.265625 C115.96434082 412.75659668 115.51461914 413.24756836 115.05126953 413.75341797 C114.14593648 414.74197015 113.24066287 415.73057677 112.33544922 416.71923828 C110.05013754 419.21476907 107.7632667 421.70887027 105.4765625 424.203125 C104.55988846 425.20311825 103.6432218 426.20311824 102.7265625 427.203125 C57.3515625 476.703125 11.9765625 526.203125 -190.14819336 746.70263672 C-191.06596862 747.70399421 -191.98344856 748.70562246 -192.90063477 749.70751953 C-195.17305253 752.18908516 -197.45118422 754.66472218 -199.73828125 757.1328125 C-202.52101647 760.13740702 -205.2802771 763.16236643 -208.0234375 766.203125 C-208.51489258 766.74694824 -209.00634766 767.29077148 -209.51269531 767.85107422 C-220.88329826 780.51960773 -229.9570522 793.86381819 -237.14160156 809.3125 C-237.95490811 811.05620041 -238.79651477 812.78662628 -239.640625 814.515625 C-256.82277907 851.5507343 -255.94830713 895.41637743 -242.203125 933.34765625 C-233.23167057 957.08812429 -218.80711559 978.03515285 -200.5703125 995.6640625 C-198.94571821 997.28045177 -197.45473058 998.96529641 -195.9609375 1000.703125 C-192.4623182 1004.76247109 -188.81330463 1008.66964373 -185.1484375 1012.578125 C-180.4727016 1017.56663757 -175.84632848 1022.5901136 -171.2890625 1027.6875 C-168.0933769 1031.23581298 -164.84968485 1034.73890226 -161.60717773 1038.24438477 C-156.8495125 1043.38803077 -152.11383952 1048.5515444 -147.38232422 1053.71923828 C-145.09701254 1056.21476907 -142.8101417 1058.70887027 -140.5234375 1061.203125 C-139.60676346 1062.20311825 -138.6900968 1063.20311824 -137.7734375 1064.203125 C-137.0928125 1064.945625 -137.0928125 1064.945625 -136.3984375 1065.703125 C-91.0234375 1115.203125 -45.6484375 1164.703125 34.10131836 1251.70288086 C35.01876935 1252.70372168 35.93624986 1253.70453545 36.85375977 1254.70532227 C39.13366801 1257.19223761 41.41307543 1259.67960815 43.69140625 1262.16796875 C48.44263809 1267.35609547 53.20264324 1272.53586061 57.9765625 1277.703125 C63.20468329 1283.36201468 68.41500339 1289.03695332 73.61767578 1294.71923828 C75.90298746 1297.21476907 78.1898583 1299.70887027 80.4765625 1302.203125 C81.39323654 1303.20311825 82.3099032 1304.20311824 83.2265625 1305.203125 C83.9071875 1305.945625 83.9071875 1305.945625 84.6015625 1306.703125 C152.6640625 1380.953125 152.6640625 1380.953125 451.7265625 1707.203125 C452.40730835 1707.945625 452.40730835 1707.945625 453.10180664 1708.703125 C454.01801339 1709.70280078 454.9338666 1710.70280069 455.84936523 1711.703125 C458.14527289 1714.2108684 460.4471268 1716.71260785 462.76171875 1719.203125 C497.36905907 1756.50761454 514.60707036 1797.84117443 513.12451172 1849.06689453 C511.28177978 1888.12916265 491.94906381 1923.93837965 465.43359375 1951.66943359 C463.05863069 1954.16935282 460.73800093 1956.71836641 458.4140625 1959.265625 C457.50668632 1960.2566715 456.59913485 1961.24755753 455.69140625 1962.23828125 C455.24394043 1962.72699707 454.79647461 1963.21571289 454.33544922 1963.71923828 C452.05013754 1966.21476907 449.7632667 1968.70887027 447.4765625 1971.203125 C446.55988846 1972.20311825 445.6432218 1973.20311824 444.7265625 1974.203125 C399.3515625 2023.703125 353.9765625 2073.203125 -189.14892578 2665.70361328 C-190.06402383 2666.70193161 -190.97906305 2667.70030386 -191.89404297 2668.69873047 C-194.67740883 2671.73576015 -197.46301698 2674.77071297 -200.25024414 2677.80419922 C-201.63662606 2679.31525141 -203.01966716 2680.82930752 -204.40234375 2682.34375 C-206.04470161 2684.13541312 -207.69688572 2685.91817186 -209.36328125 2687.6875 C-239.93778826 2720.5725585 -253.33153981 2762.85618839 -252.0234375 2807.203125 C-250.45501416 2844.08684573 -234.00999906 2879.46561121 -209.0234375 2906.203125 C-207.95554396 2907.4276087 -206.89286437 2908.65666287 -205.8359375 2909.890625 C-201.77182486 2914.56103883 -197.51593897 2919.05198451 -193.28295898 2923.56860352 C-189.2317107 2927.89542495 -185.23980187 2932.26852485 -181.2890625 2936.6875 C-178.0933769 2940.23581298 -174.84968485 2943.73890226 -171.60717773 2947.24438477 C-166.8495125 2952.38803077 -162.11383952 2957.5515444 -157.38232422 2962.71923828 C-155.09701254 2965.21476907 -152.8101417 2967.70887027 -150.5234375 2970.203125 C-149.60676346 2971.20311825 -148.6900968 2972.20311824 -147.7734375 2973.203125 C-147.0928125 2973.945625 -147.0928125 2973.945625 -146.3984375 2974.703125 C-55.64843701 3073.70312554 -55.64843701 3073.70312554 79.10131836 3220.70288086 C80.01876935 3221.70372168 80.93624986 3222.70453545 81.85375977 3223.70532227 C84.13366801 3226.19223761 86.41307543 3228.67960815 88.69140625 3231.16796875 C93.44263809 3236.35609547 98.20264324 3241.53586061 102.9765625 3246.703125 C108.20468329 3252.36201468 113.41500339 3258.03695332 118.61767578 3263.71923828 C120.90298746 3266.21476907 123.1898583 3268.70887027 125.4765625 3271.203125 C126.39323654 3272.20311825 127.3099032 3273.20311824 128.2265625 3274.203125 C128.9071875 3274.945625 128.9071875 3274.945625 129.6015625 3275.703125 C192.1640625 3343.953125 192.1640625 3343.953125 254.7265625 3412.203125 C255.40730835 3412.94574585 255.40730835 3412.94574585 256.10180664 3413.70336914 C257.01768899 3414.70252831 257.9335419 3415.70171447 258.84936523 3416.70092773 C261.15279019 3419.21401555 263.45673852 3421.72661978 265.76171875 3424.23828125 C271.85218147 3430.87621328 277.9225638 3437.53190734 283.9765625 3444.203125 C281.73256425 3448.28987679 279.05067087 3451.44673125 275.8515625 3454.828125 C272.26495758 3458.66073613 268.82280252 3462.54045236 265.5390625 3466.640625 C261.17515791 3472.06220843 256.4923472 3477.13154617 251.75 3482.21875 C247.44550736 3486.83666261 243.33343845 3491.61074107 239.23828125 3496.4140625 C238.21373158 3497.61474541 237.18898604 3498.81526121 236.1640625 3500.015625 C235.64674561 3500.62180664 235.12942871 3501.22798828 234.59643555 3501.85253906 C231.39154021 3505.5938332 228.12446972 3509.26427883 224.7890625 3512.890625 C221.59919406 3516.36448809 218.55607356 3519.90222525 215.6015625 3523.578125 C211.73437387 3528.3745321 207.62675534 3532.8735396 203.41845703 3537.36669922 C200.30116914 3540.71394285 197.34089768 3544.13308406 194.4765625 3547.703125 C190.65662239 3552.46420978 186.58717431 3556.91585525 182.41796875 3561.3671875 C179.30087696 3564.71429369 176.34075137 3568.13326641 173.4765625 3571.703125 C169.65662239 3576.46420978 165.58717431 3580.91585525 161.41796875 3585.3671875 C158.30087696 3588.71429369 155.34075137 3592.13326641 152.4765625 3595.703125 C148.1401121 3601.10397686 143.47959737 3606.14635506 138.7578125 3611.20703125 C136.5785409 3613.54435831 134.44529705 3615.91341699 132.3515625 3618.328125 C131.81402344 3618.94300781 131.27648438 3619.55789062 130.72265625 3620.19140625 C129.41271736 3621.70061996 128.11529003 3623.22070827 126.82421875 3624.74609375 C120.24552925 3632.30572236 113.05870379 3638.32363661 104.9765625 3644.203125 C104.3980957 3644.62980469 103.81962891 3645.05648437 103.22363281 3645.49609375 C79.63528085 3662.7138689 49.34378688 3674.21853396 19.953125 3674.40625 C18.8442543 3674.41683945 18.8442543 3674.41683945 17.71298218 3674.42764282 C-13.02328668 3674.65465581 -13.02328668 3674.65465581 -26.0234375 3671.203125 C-26.81524414 3670.99913086 -27.60705078 3670.79513672 -28.42285156 3670.58496094 C-61.20966204 3661.94493838 -91.21954691 3644.45770666 -113.0234375 3618.203125 C-114.95427442 3615.92658603 -116.89489392 3613.658463 -118.8359375 3611.390625 C-119.35325439 3610.78460449 -119.87057129 3610.17858398 -120.40356445 3609.55419922 C-123.60805294 3605.81238034 -126.87544397 3602.14206501 -130.2109375 3598.515625 C-133.40080594 3595.04176191 -136.44392644 3591.50402475 -139.3984375 3587.828125 C-143.26562613 3583.0317179 -147.37324466 3578.5327104 -151.58154297 3574.03955078 C-155.4832628 3569.85000933 -159.09661237 3565.48148675 -162.6796875 3561.015625 C-165.35551921 3557.80462695 -168.16702026 3554.75283363 -171.0234375 3551.703125 C-175.46176424 3546.96446036 -179.61486 3542.08193174 -183.6796875 3537.015625 C-186.35551921 3533.80462695 -189.16702026 3530.75283363 -192.0234375 3527.703125 C-196.46176424 3522.96446036 -200.61486 3518.08193174 -204.6796875 3513.015625 C-207.35551921 3509.80462695 -210.16702026 3506.75283363 -213.0234375 3503.703125 C-217.46176424 3498.96446036 -221.61486 3494.08193174 -225.6796875 3489.015625 C-228.35551921 3485.80462695 -231.16702026 3482.75283363 -234.0234375 3479.703125 C-238.46176424 3474.96446036 -242.61486 3470.08193174 -246.6796875 3465.015625 C-249.35551921 3461.80462695 -252.16702026 3458.75283363 -255.0234375 3455.703125 C-259.46176424 3450.96446036 -263.61486 3446.08193174 -267.6796875 3441.015625 C-270.35551921 3437.80462695 -273.16702026 3434.75283363 -276.0234375 3431.703125 C-280.46176424 3426.96446036 -284.61486 3422.08193174 -288.6796875 3417.015625 C-291.35551921 3413.80462695 -294.16702026 3410.75283363 -297.0234375 3407.703125 C-301.46176424 3402.96446036 -305.61486 3398.08193174 -309.6796875 3393.015625 C-312.35551921 3389.80462695 -315.16702026 3386.75283363 -318.0234375 3383.703125 C-322.46176424 3378.96446036 -326.61486 3374.08193174 -330.6796875 3369.015625 C-333.35551921 3365.80462695 -336.16702026 3362.75283363 -339.0234375 3359.703125 C-343.46176424 3354.96446036 -347.61486 3350.08193174 -351.6796875 3345.015625 C-354.35551921 3341.80462695 -357.16702026 3338.75283363 -360.0234375 3335.703125 C-364.46176424 3330.96446036 -368.61486 3326.08193174 -372.6796875 3321.015625 C-375.35551921 3317.80462695 -378.16702026 3314.75283363 -381.0234375 3311.703125 C-385.46176424 3306.96446036 -389.61486 3302.08193174 -393.6796875 3297.015625 C-396.35551921 3293.80462695 -399.16702026 3290.75283363 -402.0234375 3287.703125 C-406.46176424 3282.96446036 -410.61486 3278.08193174 -414.6796875 3273.015625 C-417.35551921 3269.80462695 -420.16702026 3266.75283363 -423.0234375 3263.703125 C-427.46176424 3258.96446036 -431.61486 3254.08193174 -435.6796875 3249.015625 C-438.35551921 3245.80462695 -441.16702026 3242.75283363 -444.0234375 3239.703125 C-448.46176424 3234.96446036 -452.61486 3230.08193174 -456.6796875 3225.015625 C-459.35551921 3221.80462695 -462.16702026 3218.75283363 -465.0234375 3215.703125 C-469.46176424 3210.96446036 -473.61486 3206.08193174 -477.6796875 3201.015625 C-480.35551921 3197.80462695 -483.16702026 3194.75283363 -486.0234375 3191.703125 C-490.46176424 3186.96446036 -494.61486 3182.08193174 -498.6796875 3177.015625 C-501.35551921 3173.80462695 -504.16702026 3170.75283363 -507.0234375 3167.703125 C-511.46176424 3162.96446036 -515.61486 3158.08193174 -519.6796875 3153.015625 C-522.35551921 3149.80462695 -525.16702026 3146.75283363 -528.0234375 3143.703125 C-532.46176424 3138.96446036 -536.61486 3134.08193174 -540.6796875 3129.015625 C-543.35551921 3125.80462695 -546.16702026 3122.75283363 -549.0234375 3119.703125 C-553.46176424 3114.96446036 -557.61486 3110.08193174 -561.6796875 3105.015625 C-564.35551921 3101.80462695 -567.16702026 3098.75283363 -570.0234375 3095.703125 C-574.46176424 3090.96446036 -578.61486 3086.08193174 -582.6796875 3081.015625 C-585.35551921 3077.80462695 -588.16702026 3074.75283363 -591.0234375 3071.703125 C-595.46176424 3066.96446036 -599.61486 3062.08193174 -603.6796875 3057.015625 C-606.35551921 3053.80462695 -609.16702026 3050.75283363 -612.0234375 3047.703125 C-616.46176424 3042.96446036 -620.61486 3038.08193174 -624.6796875 3033.015625 C-627.35551921 3029.80462695 -630.16702026 3026.75283363 -633.0234375 3023.703125 C-637.46176424 3018.96446036 -641.61486 3014.08193174 -645.6796875 3009.015625 C-648.35551921 3005.80462695 -651.16702026 3002.75283363 -654.0234375 2999.703125 C-658.46176424 2994.96446036 -662.61486 2990.08193174 -666.6796875 2985.015625 C-669.35551921 2981.80462695 -672.16702026 2978.75283363 -675.0234375 2975.703125 C-679.46176424 2970.96446036 -683.61486 2966.08193174 -687.6796875 2961.015625 C-690.35551921 2957.80462695 -693.16702026 2954.75283363 -696.0234375 2951.703125 C-700.46176424 2946.96446036 -704.61486 2942.08193174 -708.6796875 2937.015625 C-711.35551921 2933.80462695 -714.16702026 2930.75283363 -717.0234375 2927.703125 C-721.46176424 2922.96446036 -725.61486 2918.08193174 -729.6796875 2913.015625 C-732.35551921 2909.80462695 -735.16702026 2906.75283363 -738.0234375 2903.703125 C-742.46176424 2898.96446036 -746.61486 2894.08193174 -750.6796875 2889.015625 C-753.35551921 2885.80462695 -756.16702026 2882.75283363 -759.0234375 2879.703125 C-763.46176424 2874.96446036 -767.61486 2870.08193174 -771.6796875 2865.015625 C-774.35551921 2861.80462695 -777.16702026 2858.75283363 -780.0234375 2855.703125 C-784.46176424 2850.96446036 -788.61486 2846.08193174 -792.6796875 2841.015625 C-795.35551921 2837.80462695 -798.16702026 2834.75283363 -801.0234375 2831.703125 C-805.46176424 2826.96446036 -809.61486 2822.08193174 -813.6796875 2817.015625 C-816.35551921 2813.80462695 -819.16702026 2810.75283363 -822.0234375 2807.703125 C-826.46176424 2802.96446036 -830.61486 2798.08193174 -834.6796875 2793.015625 C-837.35551921 2789.80462695 -840.16702026 2786.75283363 -843.0234375 2783.703125 C-847.46176424 2778.96446036 -851.61486 2774.08193174 -855.6796875 2769.015625 C-858.35551921 2765.80462695 -861.16702026 2762.75283363 -864.0234375 2759.703125 C-868.46176424 2754.96446036 -872.61486 2750.08193174 -876.6796875 2745.015625 C-879.35551921 2741.80462695 -882.16702026 2738.75283363 -885.0234375 2735.703125 C-889.46176424 2730.96446036 -893.61486 2726.08193174 -897.6796875 2721.015625 C-900.35551921 2717.80462695 -903.16702026 2714.75283363 -906.0234375 2711.703125 C-910.46176424 2706.96446036 -914.61486 2702.08193174 -918.6796875 2697.015625 C-921.35551921 2693.80462695 -924.16702026 2690.75283363 -927.0234375 2687.703125 C-931.46176424 2682.96446036 -935.61486 2678.08193174 -939.6796875 2673.015625 C-942.35551921 2669.80462695 -945.16702026 2666.75283363 -948.0234375 2663.703125 C-952.46176424 2658.96446036 -956.61486 2654.08193174 -960.6796875 2649.015625 C-963.35551921 2645.80462695 -966.16702026 2642.75283363 -969.0234375 2639.703125 C-973.46176424 2634.96446036 -977.61486 2630.08193174 -981.6796875 2625.015625 C-984.35551921 2621.80462695 -987.16702026 2618.75283363 -990.0234375 2615.703125 C-994.46176424 2610.96446036 -998.61486 2606.08193174 -1002.6796875 2601.015625 C-1005.35551921 2597.80462695 -1008.16702026 2594.75283363 -1011.0234375 2591.703125 C-1015.46176424 2586.96446036 -1019.61486 2582.08193174 -1023.6796875 2577.015625 C-1026.35551921 2573.80462695 -1029.16702026 2570.75283363 -1032.0234375 2567.703125 C-1036.46176424 2562.96446036 -1040.61486 2558.08193174 -1044.6796875 2553.015625 C-1047.35551921 2549.80462695 -1050.16702026 2546.75283363 -1053.0234375 2543.703125 C-1057.46176424 2538.96446036 -1061.61486 2534.08193174 -1065.6796875 2529.015625 C-1068.35551921 2525.80462695 -1071.16702026 2522.75283363 -1074.0234375 2519.703125 C-1078.46176424 2514.96446036 -1082.61486 2510.08193174 -1086.6796875 2505.015625 C-1089.35551921 2501.80462695 -1092.16702026 2498.75283363 -1095.0234375 2495.703125 C-1099.46176424 2490.96446036 -1103.61486 2486.08193174 -1107.6796875 2481.015625 C-1110.35551921 2477.80462695 -1113.16702026 2474.75283363 -1116.0234375 2471.703125 C-1120.46176424 2466.96446036 -1124.61486 2462.08193174 -1128.6796875 2457.015625 C-1131.35551921 2453.80462695 -1134.16702026 2450.75283363 -1137.0234375 2447.703125 C-1141.46176424 2442.96446036 -1145.61486 2438.08193174 -1149.6796875 2433.015625 C-1152.35551921 2429.80462695 -1155.16702026 2426.75283363 -1158.0234375 2423.703125 C-1162.46176424 2418.96446036 -1166.61486 2414.08193174 -1170.6796875 2409.015625 C-1173.35551921 2405.80462695 -1176.16702026 2402.75283363 -1179.0234375 2399.703125 C-1183.46176424 2394.96446036 -1187.61486 2390.08193174 -1191.6796875 2385.015625 C-1194.35551921 2381.80462695 -1197.16702026 2378.75283363 -1200.0234375 2375.703125 C-1204.46176424 2370.96446036 -1208.61486 2366.08193174 -1212.6796875 2361.015625 C-1215.35551921 2357.80462695 -1218.16702026 2354.75283363 -1221.0234375 2351.703125 C-1225.46176424 2346.96446036 -1229.61486 2342.08193174 -1233.6796875 2337.015625 C-1236.35551921 2333.80462695 -1239.16702026 2330.75283363 -1242.0234375 2327.703125 C-1246.46176424 2322.96446036 -1250.61486 2318.08193174 -1254.6796875 2313.015625 C-1257.35551921 2309.80462695 -1260.16702026 2306.75283363 -1263.0234375 2303.703125 C-1267.46176424 2298.96446036 -1271.61486 2294.08193174 -1275.6796875 2289.015625 C-1278.35551921 2285.80462695 -1281.16702026 2282.75283363 -1284.0234375 2279.703125 C-1288.46176424 2274.96446036 -1292.61486 2270.08193174 -1296.6796875 2265.015625 C-1299.35551921 2261.80462695 -1302.16702026 2258.75283363 -1305.0234375 2255.703125 C-1309.46176424 2250.96446036 -1313.61486 2246.08193174 -1317.6796875 2241.015625 C-1320.35551921 2237.80462695 -1323.16702026 2234.75283363 -1326.0234375 2231.703125 C-1330.46176424 2226.96446036 -1334.61486 2222.08193174 -1338.6796875 2217.015625 C-1341.35551921 2213.80462695 -1344.16702026 2210.75283363 -1347.0234375 2207.703125 C-1351.46176424 2202.96446036 -1355.61486 2198.08193174 -1359.6796875 2193.015625 C-1362.35551921 2189.80462695 -1365.16702026 2186.75283363 -1368.0234375 2183.703125 C-1372.46176424 2178.96446036 -1376.61486 2174.08193174 -1380.6796875 2169.015625 C-1383.35551921 2165.80462695 -1386.16702026 2162.75283363 -1389.0234375 2159.703125 C-1393.46176424 2154.96446036 -1397.61486 2150.08193174 -1401.6796875 2145.015625 C-1404.35551921 2141.80462695 -1407.16702026 2138.75283363 -1410.0234375 2135.703125 C-1414.46176424 2130.96446036 -1418.61486 2126.08193174 -1422.6796875 2121.015625 C-1425.35551921 2117.80462695 -1428.16702026 2114.75283363 -1431.0234375 2111.703125 C-1435.46176424 2106.96446036 -1439.61486 2102.08193174 -1443.6796875 2097.015625 C-1446.35551921 2093.80462695 -1449.16702026 2090.75283363 -1452.0234375 2087.703125 C-1456.46176424 2082.96446036 -1460.61486 2078.08193174 -1464.6796875 2073.015625 C-1467.35551921 2069.80462695 -1470.16702026 2066.75283363 -1473.0234375 2063.703125 C-1477.46176424 2058.96446036 -1481.61486 2054.08193174 -1485.6796875 2049.015625 C-1488.35551921 2045.80462695 -1491.16702026 2042.75283363 -1494.0234375 2039.703125 C-1498.46176424 2034.96446036 -1502.61486 2030.08193174 -1506.6796875 2025.015625 C-1509.35552135 2021.80462438 -1512.16704888 2018.75286365 -1515.0234375 2015.703125 C-1519.50983716 2010.91227598 -1523.72405806 2005.98187494 -1527.828125 2000.85546875 C-1530.04607601 1998.1757735 -1532.38237046 1995.66623761 -1534.7734375 1993.140625 C-1561.77013965 1963.59469866 -1578.66172406 1924.9729375 -1587.0234375 1886.203125 C-1587.42949219 1884.50965942 -1587.42949219 1884.50965942 -1587.84375 1882.78198242 C-1590.70810337 1869.3169641 -1590.55081557 1855.71094263 -1590.52441406 1842.00512695 C-1590.51972464 1839.19446747 -1590.53343555 1836.38494245 -1590.56542969 1833.57446289 C-1591.10990394 1785.15703034 -1576.76373392 1737.55310336 -1548.0234375 1698.203125 C-1547.40106201 1697.34968506 -1547.40106201 1697.34968506 -1546.76611328 1696.47900391 C-1541.91894967 1689.89498659 -1536.76846701 1683.66899183 -1531.2265625 1677.65234375 C-1528.95953742 1675.13208714 -1526.83210329 1672.53445214 -1524.7109375 1669.890625 C-1520.82023042 1665.07646912 -1516.69343284 1660.55388166 -1512.46557617 1656.03979492 C-1509.34819024 1652.69248257 -1506.38784583 1649.27325712 -1503.5234375 1645.703125 C-1499.70349739 1640.94204022 -1495.63404931 1636.49039475 -1491.46484375 1632.0390625 C-1488.34775196 1628.69195631 -1485.38762637 1625.27298359 -1482.5234375 1621.703125 C-1478.70349739 1616.94204022 -1474.63404931 1612.49039475 -1470.46484375 1608.0390625 C-1467.34775196 1604.69195631 -1464.38762637 1601.27298359 -1461.5234375 1597.703125 C-1457.70349739 1592.94204022 -1453.63404931 1588.49039475 -1449.46484375 1584.0390625 C-1446.34775196 1580.69195631 -1443.38762637 1577.27298359 -1440.5234375 1573.703125 C-1436.70349739 1568.94204022 -1432.63404931 1564.49039475 -1428.46484375 1560.0390625 C-1425.34775196 1556.69195631 -1422.38762637 1553.27298359 -1419.5234375 1549.703125 C-1415.70349739 1544.94204022 -1411.63404931 1540.49039475 -1407.46484375 1536.0390625 C-1404.34775196 1532.69195631 -1401.38762637 1529.27298359 -1398.5234375 1525.703125 C-1394.70349739 1520.94204022 -1390.63404931 1516.49039475 -1386.46484375 1512.0390625 C-1383.34775196 1508.69195631 -1380.38762637 1505.27298359 -1377.5234375 1501.703125 C-1373.70349739 1496.94204022 -1369.63404931 1492.49039475 -1365.46484375 1488.0390625 C-1362.34775196 1484.69195631 -1359.38762637 1481.27298359 -1356.5234375 1477.703125 C-1352.70349739 1472.94204022 -1348.63404931 1468.49039475 -1344.46484375 1464.0390625 C-1341.34775196 1460.69195631 -1338.38762637 1457.27298359 -1335.5234375 1453.703125 C-1331.70349739 1448.94204022 -1327.63404931 1444.49039475 -1323.46484375 1440.0390625 C-1320.34775196 1436.69195631 -1317.38762637 1433.27298359 -1314.5234375 1429.703125 C-1310.70349739 1424.94204022 -1306.63404931 1420.49039475 -1302.46484375 1416.0390625 C-1299.34775196 1412.69195631 -1296.38762637 1409.27298359 -1293.5234375 1405.703125 C-1289.70349739 1400.94204022 -1285.63404931 1396.49039475 -1281.46484375 1392.0390625 C-1278.34775196 1388.69195631 -1275.38762637 1385.27298359 -1272.5234375 1381.703125 C-1268.70349739 1376.94204022 -1264.63404931 1372.49039475 -1260.46484375 1368.0390625 C-1257.34775196 1364.69195631 -1254.38762637 1361.27298359 -1251.5234375 1357.703125 C-1247.70349739 1352.94204022 -1243.63404931 1348.49039475 -1239.46484375 1344.0390625 C-1236.34775196 1340.69195631 -1233.38762637 1337.27298359 -1230.5234375 1333.703125 C-1226.70349739 1328.94204022 -1222.63404931 1324.49039475 -1218.46484375 1320.0390625 C-1215.34775196 1316.69195631 -1212.38762637 1313.27298359 -1209.5234375 1309.703125 C-1205.70349739 1304.94204022 -1201.63404931 1300.49039475 -1197.46484375 1296.0390625 C-1194.34775196 1292.69195631 -1191.38762637 1289.27298359 -1188.5234375 1285.703125 C-1184.70349739 1280.94204022 -1180.63404931 1276.49039475 -1176.46484375 1272.0390625 C-1173.34775196 1268.69195631 -1170.38762637 1265.27298359 -1167.5234375 1261.703125 C-1163.70349739 1256.94204022 -1159.63404931 1252.49039475 -1155.46484375 1248.0390625 C-1152.34775196 1244.69195631 -1149.38762637 1241.27298359 -1146.5234375 1237.703125 C-1142.70349739 1232.94204022 -1138.63404931 1228.49039475 -1134.46484375 1224.0390625 C-1131.34775196 1220.69195631 -1128.38762637 1217.27298359 -1125.5234375 1213.703125 C-1121.70349739 1208.94204022 -1117.63404931 1204.49039475 -1113.46484375 1200.0390625 C-1110.34775196 1196.69195631 -1107.38762637 1193.27298359 -1104.5234375 1189.703125 C-1100.70349739 1184.94204022 -1096.63404931 1180.49039475 -1092.46484375 1176.0390625 C-1089.34775196 1172.69195631 -1086.38762637 1169.27298359 -1083.5234375 1165.703125 C-1079.70349739 1160.94204022 -1075.63404931 1156.49039475 -1071.46484375 1152.0390625 C-1068.34775196 1148.69195631 -1065.38762637 1145.27298359 -1062.5234375 1141.703125 C-1058.70349739 1136.94204022 -1054.63404931 1132.49039475 -1050.46484375 1128.0390625 C-1047.34775196 1124.69195631 -1044.38762637 1121.27298359 -1041.5234375 1117.703125 C-1037.70349739 1112.94204022 -1033.63404931 1108.49039475 -1029.46484375 1104.0390625 C-1026.34775196 1100.69195631 -1023.38762637 1097.27298359 -1020.5234375 1093.703125 C-1016.70349739 1088.94204022 -1012.63404931 1084.49039475 -1008.46484375 1080.0390625 C-1005.34775196 1076.69195631 -1002.38762637 1073.27298359 -999.5234375 1069.703125 C-995.70349739 1064.94204022 -991.63404931 1060.49039475 -987.46484375 1056.0390625 C-984.34775196 1052.69195631 -981.38762637 1049.27298359 -978.5234375 1045.703125 C-974.70349739 1040.94204022 -970.63404931 1036.49039475 -966.46484375 1032.0390625 C-963.34775196 1028.69195631 -960.38762637 1025.27298359 -957.5234375 1021.703125 C-953.70349739 1016.94204022 -949.63404931 1012.49039475 -945.46484375 1008.0390625 C-942.34775196 1004.69195631 -939.38762637 1001.27298359 -936.5234375 997.703125 C-932.70349739 992.94204022 -928.63404931 988.49039475 -924.46484375 984.0390625 C-921.34775196 980.69195631 -918.38762637 977.27298359 -915.5234375 973.703125 C-911.70349739 968.94204022 -907.63404931 964.49039475 -903.46484375 960.0390625 C-900.34775196 956.69195631 -897.38762637 953.27298359 -894.5234375 949.703125 C-890.70349739 944.94204022 -886.63404931 940.49039475 -882.46484375 936.0390625 C-879.34775196 932.69195631 -876.38762637 929.27298359 -873.5234375 925.703125 C-869.70349739 920.94204022 -865.63404931 916.49039475 -861.46484375 912.0390625 C-858.34775196 908.69195631 -855.38762637 905.27298359 -852.5234375 901.703125 C-848.70349739 896.94204022 -844.63404931 892.49039475 -840.46484375 888.0390625 C-837.34775196 884.69195631 -834.38762637 881.27298359 -831.5234375 877.703125 C-827.70349739 872.94204022 -823.63404931 868.49039475 -819.46484375 864.0390625 C-816.34775196 860.69195631 -813.38762637 857.27298359 -810.5234375 853.703125 C-806.70349739 848.94204022 -802.63404931 844.49039475 -798.46484375 840.0390625 C-795.34775196 836.69195631 -792.38762637 833.27298359 -789.5234375 829.703125 C-785.70349739 824.94204022 -781.63404931 820.49039475 -777.46484375 816.0390625 C-774.34775196 812.69195631 -771.38762637 809.27298359 -768.5234375 805.703125 C-764.70349739 800.94204022 -760.63404931 796.49039475 -756.46484375 792.0390625 C-753.34775196 788.69195631 -750.38762637 785.27298359 -747.5234375 781.703125 C-743.70349739 776.94204022 -739.63404931 772.49039475 -735.46484375 768.0390625 C-732.34775196 764.69195631 -729.38762637 761.27298359 -726.5234375 757.703125 C-722.70349739 752.94204022 -718.63404931 748.49039475 -714.46484375 744.0390625 C-711.34775196 740.69195631 -708.38762637 737.27298359 -705.5234375 733.703125 C-701.70349739 728.94204022 -697.63404931 724.49039475 -693.46484375 720.0390625 C-690.34775196 716.69195631 -687.38762637 713.27298359 -684.5234375 709.703125 C-680.70349739 704.94204022 -676.63404931 700.49039475 -672.46484375 696.0390625 C-669.34775196 692.69195631 -666.38762637 689.27298359 -663.5234375 685.703125 C-659.70349739 680.94204022 -655.63404931 676.49039475 -651.46484375 672.0390625 C-648.34775196 668.69195631 -645.38762637 665.27298359 -642.5234375 661.703125 C-638.70349739 656.94204022 -634.63404931 652.49039475 -630.46484375 648.0390625 C-627.34775196 644.69195631 -624.38762637 641.27298359 -621.5234375 637.703125 C-617.70349739 632.94204022 -613.63404931 628.49039475 -609.46484375 624.0390625 C-606.34775196 620.69195631 -603.38762637 617.27298359 -600.5234375 613.703125 C-596.70349739 608.94204022 -592.63404931 604.49039475 -588.46484375 600.0390625 C-585.34775196 596.69195631 -582.38762637 593.27298359 -579.5234375 589.703125 C-575.70349739 584.94204022 -571.63404931 580.49039475 -567.46484375 576.0390625 C-564.34775196 572.69195631 -561.38762637 569.27298359 -558.5234375 565.703125 C-554.70349739 560.94204022 -550.63404931 556.49039475 -546.46484375 552.0390625 C-543.34775196 548.69195631 -540.38762637 545.27298359 -537.5234375 541.703125 C-533.70349739 536.94204022 -529.63404931 532.49039475 -525.46484375 528.0390625 C-522.34775196 524.69195631 -519.38762637 521.27298359 -516.5234375 517.703125 C-512.70349739 512.94204022 -508.63404931 508.49039475 -504.46484375 504.0390625 C-501.34775196 500.69195631 -498.38762637 497.27298359 -495.5234375 493.703125 C-491.70349739 488.94204022 -487.63404931 484.49039475 -483.46484375 480.0390625 C-480.34775196 476.69195631 -477.38762637 473.27298359 -474.5234375 469.703125 C-470.70349739 464.94204022 -466.63404931 460.49039475 -462.46484375 456.0390625 C-459.34775196 452.69195631 -456.38762637 449.27298359 -453.5234375 445.703125 C-449.70349739 440.94204022 -445.63404931 436.49039475 -441.46484375 432.0390625 C-438.34775196 428.69195631 -435.38762637 425.27298359 -432.5234375 421.703125 C-428.70349739 416.94204022 -424.63404931 412.49039475 -420.46484375 408.0390625 C-417.34775196 404.69195631 -414.38762637 401.27298359 -411.5234375 397.703125 C-407.70349739 392.94204022 -403.63404931 388.49039475 -399.46484375 384.0390625 C-396.34775196 380.69195631 -393.38762637 377.27298359 -390.5234375 373.703125 C-386.70349739 368.94204022 -382.63404931 364.49039475 -378.46484375 360.0390625 C-375.34775196 356.69195631 -372.38762637 353.27298359 -369.5234375 349.703125 C-365.70349739 344.94204022 -361.63404931 340.49039475 -357.46484375 336.0390625 C-354.34775196 332.69195631 -351.38762637 329.27298359 -348.5234375 325.703125 C-344.70349739 320.94204022 -340.63404931 316.49039475 -336.46484375 312.0390625 C-333.34775196 308.69195631 -330.38762637 305.27298359 -327.5234375 301.703125 C-323.70349739 296.94204022 -319.63404931 292.49039475 -315.46484375 288.0390625 C-312.34775196 284.69195631 -309.38762637 281.27298359 -306.5234375 277.703125 C-302.70349739 272.94204022 -298.63404931 268.49039475 -294.46484375 264.0390625 C-291.34775196 260.69195631 -288.38762637 257.27298359 -285.5234375 253.703125 C-281.70349739 248.94204022 -277.63404931 244.49039475 -273.46484375 240.0390625 C-270.34775196 236.69195631 -267.38762637 233.27298359 -264.5234375 229.703125 C-260.70349739 224.94204022 -256.63404931 220.49039475 -252.46484375 216.0390625 C-249.34775196 212.69195631 -246.38762637 209.27298359 -243.5234375 205.703125 C-239.70349739 200.94204022 -235.63404931 196.49039475 -231.46484375 192.0390625 C-228.34775196 188.69195631 -225.38762637 185.27298359 -222.5234375 181.703125 C-218.70349739 176.94204022 -214.63404931 172.49039475 -210.46484375 168.0390625 C-207.34775196 164.69195631 -204.38762637 161.27298359 -201.5234375 157.703125 C-197.70349739 152.94204022 -193.63404931 148.49039475 -189.46484375 144.0390625 C-186.34775196 140.69195631 -183.38762637 137.27298359 -180.5234375 133.703125 C-176.70349739 128.94204022 -172.63404931 124.49039475 -168.46484375 120.0390625 C-165.34775196 116.69195631 -162.38762637 113.27298359 -159.5234375 109.703125 C-155.70349739 104.94204022 -151.63404931 100.49039475 -147.46484375 96.0390625 C-144.34775196 92.69195631 -141.38762637 89.27298359 -138.5234375 85.703125 C-134.70220778 80.94043289 -130.63146918 76.48714382 -126.46044922 72.03466797 C-123.38350136 68.73117238 -120.4667868 65.35891947 -117.6484375 61.828125 C-107.92687382 49.81192197 -97.59024766 39.22010653 -85.0234375 30.203125 C-84.45077148 29.78224609 -83.87810547 29.36136719 -83.28808594 28.92773438 C-59.64180605 11.66051261 -29.46816929 0.18799161 0 0 Z " fill="#8D2B84" transform="translate(1590.0234375,82.796875)"/>
<path d="M0 0 C1.19629028 0.00323273 1.19629028 0.00323273 2.41674805 0.00653076 C13.95553484 0.0566113 25.09725285 0.35745636 36.3125 3.3125 C37.08303711 3.50585938 37.85357422 3.69921875 38.64746094 3.8984375 C61.07234508 9.64431529 82.61362207 19.47581718 100.19921875 34.71875 C102.24392493 36.42417844 102.24392493 36.42417844 104.76171875 37.1953125 C108.2067501 38.70416237 109.96061089 40.87050074 112.4375 43.6875 C113.40862017 44.7788541 114.37998107 45.86999402 115.3515625 46.9609375 C115.84301758 47.5187793 116.33447266 48.07662109 116.84082031 48.65136719 C119.1308967 51.23625102 121.47253298 53.77285132 123.8125 56.3125 C124.72944709 57.31224288 125.64611306 58.31224366 126.5625 59.3125 C127.01625 59.8075 127.47 60.3025 127.9375 60.8125 C173.3125 110.3125 218.6875 159.8125 715.0625 701.3125 C715.51641113 701.80758057 715.97032227 702.30266113 716.43798828 702.81274414 C717.3534108 703.81157904 718.26845076 704.81076468 719.18310547 705.81030273 C721.49077766 708.33116144 723.80503769 710.84533855 726.1328125 713.34765625 C732.12234907 719.80088546 737.82844854 726.42129298 743.3125 733.3125 C744.05628906 734.20324219 744.80007813 735.09398437 745.56640625 736.01171875 C758.24461327 751.65583252 768.50340968 769.77663727 776.3125 788.3125 C776.60527832 788.98667969 776.89805664 789.66085937 777.19970703 790.35546875 C786.4008941 811.6898144 791.34951643 834.34274377 794.3125 857.3125 C794.54066406 859.06433594 794.54066406 859.06433594 794.7734375 860.8515625 C795.08896371 864.01535229 795.23054024 867.13314449 795.3125 870.3125 C795.33828125 871.17794434 795.3640625 872.04338867 795.390625 872.93505859 C797.038876 935.86734225 776.62897443 999.01637834 733 1045.3125 C731.25853781 1047.14074447 729.51233181 1048.96426663 727.76318359 1050.78515625 C726.05686407 1052.5816448 724.42317941 1054.42999309 722.8125 1056.3125 C718.87020113 1060.89517229 714.70380861 1065.2694323 710.57080078 1069.67919922 C706.5200382 1074.00568507 702.52848043 1078.3783293 698.578125 1082.796875 C695.3824394 1086.34518798 692.13874735 1089.84827726 688.89624023 1093.35375977 C685.50547728 1097.01960918 682.12290923 1100.69271607 678.75 1104.375 C678.30027832 1104.86597168 677.85055664 1105.35694336 677.38720703 1105.86279297 C676.48187398 1106.85134515 675.57660037 1107.83995177 674.67138672 1108.82861328 C672.38607504 1111.32414407 670.0992042 1113.81824527 667.8125 1116.3125 C666.89582596 1117.31249325 665.9791593 1118.31249324 665.0625 1119.3125 C619.6875 1168.8125 574.3125 1218.3125 130.18579102 1702.81420898 C129.27461432 1703.80832301 128.36364225 1704.80262462 127.45288086 1705.79711914 C125.07891225 1708.38879721 122.70084637 1710.97654383 120.31640625 1713.55859375 C119.82398437 1714.09291016 119.3315625 1714.62722656 118.82421875 1715.17773438 C117.45810217 1716.65984199 116.0904293 1718.14051468 114.72265625 1719.62109375 C112.29355333 1722.24728828 112.29355333 1722.24728828 110.30859375 1725.03515625 C108.05046863 1727.61145165 106.47857628 1728.13952596 103.3125 1729.3125 C101.44382487 1730.72526342 99.61452715 1732.19065486 97.8125 1733.6875 C65.12679964 1759.61163382 22.11531291 1770.1099781 -18.99951172 1765.54125977 C-50.3270148 1761.51200786 -80.7383206 1749.00930384 -104.21142578 1727.65332031 C-105.68751436 1726.31248696 -107.18562189 1724.99602783 -108.68359375 1723.6796875 C-113.41190515 1719.4838725 -117.72260098 1715.19687776 -121.84912109 1710.41577148 C-124.83023494 1707.00510803 -127.94979279 1703.72768436 -131.0625 1700.4375 C-135.92369178 1695.27653572 -140.73496458 1690.08203779 -145.45703125 1684.79296875 C-148.13308912 1681.81696744 -150.84486736 1678.8755045 -153.5625 1675.9375 C-158.83404064 1670.23849201 -164.08614397 1664.52213732 -169.32861328 1658.79638672 C-171.61392496 1656.30085593 -173.9007958 1653.80675473 -176.1875 1651.3125 C-177.10417404 1650.31250675 -178.0208407 1649.31250676 -178.9375 1648.3125 C-179.39125 1647.8175 -179.845 1647.3225 -180.3125 1646.8125 C-272.4375 1546.3125 -272.4375 1546.3125 -273.81225586 1544.81274414 C-274.72970685 1543.81190332 -275.64718736 1542.81108955 -276.56469727 1541.81030273 C-278.84460551 1539.32338739 -281.12401293 1536.83601685 -283.40234375 1534.34765625 C-288.15357559 1529.15952953 -292.91358074 1523.97976439 -297.6875 1518.8125 C-302.91562079 1513.15361032 -308.12594089 1507.47867168 -313.32861328 1501.79638672 C-315.61392496 1499.30085593 -317.9007958 1496.80675473 -320.1875 1494.3125 C-321.10417404 1493.31250675 -322.0208407 1492.31250676 -322.9375 1491.3125 C-323.39125 1490.8175 -323.845 1490.3225 -324.3125 1489.8125 C-394.4375 1413.3125 -394.4375 1413.3125 -395.81225586 1411.81274414 C-396.72970685 1410.81190332 -397.64718736 1409.81108955 -398.56469727 1408.81030273 C-400.84460551 1406.32338739 -403.12401293 1403.83601685 -405.40234375 1401.34765625 C-410.15357559 1396.15952953 -414.91358074 1390.97976439 -419.6875 1385.8125 C-424.91562079 1380.15361032 -430.12594089 1374.47867168 -435.32861328 1368.79638672 C-437.61392496 1366.30085593 -439.9007958 1363.80675473 -442.1875 1361.3125 C-443.10417404 1360.31250675 -444.0208407 1359.31250676 -444.9375 1358.3125 C-445.39125 1357.8175 -445.845 1357.3225 -446.3125 1356.8125 C-491.6875 1307.3125 -537.0625 1257.8125 -693.81225586 1086.81274414 C-694.72970685 1085.81190332 -695.64718736 1084.81108955 -696.56469727 1083.81030273 C-698.84460551 1081.32338739 -701.12401293 1078.83601685 -703.40234375 1076.34765625 C-707.65018367 1071.70921036 -711.90238948 1067.07497248 -716.17041016 1062.45507812 C-717.18245255 1061.35932318 -718.1938453 1060.26296786 -719.20458984 1059.16601562 C-721.62624007 1056.53845075 -724.05469576 1053.91831708 -726.50390625 1051.31640625 C-745.4243921 1031.11981753 -760.89378797 1008.33123123 -772.6875 983.3125 C-773.19925781 982.23097656 -773.71101563 981.14945313 -774.23828125 980.03515625 C-782.6649109 961.29669408 -788.31134145 941.55308603 -791.6875 921.3125 C-791.87368896 920.21808594 -792.05987793 919.12367188 -792.25170898 917.99609375 C-793.91082972 907.13693093 -794.04477902 896.40249226 -794 885.4375 C-793.99784485 884.48918304 -793.9956897 883.54086609 -793.99346924 882.56381226 C-793.74508594 814.3696759 -766.08240663 757.77291969 -719.93359375 708.7734375 C-716.54848055 705.17632731 -713.24521999 701.51039421 -709.953125 697.828125 C-706.7574394 694.27981202 -703.51374735 690.77672274 -700.27124023 687.27124023 C-695.51638203 682.13062899 -690.78374227 676.96996317 -686.05517578 671.80517578 C-684.66170848 670.28435124 -683.26662249 668.76502676 -681.87109375 667.24609375 C-677.64226524 662.64176052 -673.42346914 658.02973405 -669.25 653.375 C-664.79106085 648.40737617 -660.26311669 643.50566748 -655.73046875 638.60546875 C-652.85355238 635.49467159 -649.98700383 632.37451655 -647.125 629.25 C-646.67527832 628.75902832 -646.22555664 628.26805664 -645.76220703 627.76220703 C-644.85687398 626.77365485 -643.95160037 625.78504823 -643.04638672 624.79638672 C-640.76107504 622.30085593 -638.4742042 619.80675473 -636.1875 617.3125 C-635.27082596 616.31250675 -634.3541593 615.31250676 -633.4375 614.3125 C-588.0625 564.8125 -542.6875 515.3125 -296.56201172 246.81201172 C-295.64691367 245.81369339 -294.73187445 244.81532114 -293.81689453 243.81689453 C-291.50171148 241.2907158 -289.1854599 238.76553168 -286.8671875 236.2421875 C-282.63983249 231.63900235 -278.42223917 227.02836224 -274.25 222.375 C-269.79106085 217.40737617 -265.26311669 212.50566748 -260.73046875 207.60546875 C-257.85355238 204.49467159 -254.98700383 201.37451655 -252.125 198.25 C-251.45041748 197.51354248 -251.45041748 197.51354248 -250.76220703 196.76220703 C-249.85687398 195.77365485 -248.95160037 194.78504823 -248.04638672 193.79638672 C-245.76107504 191.30085593 -243.4742042 188.80675473 -241.1875 186.3125 C-240.27082596 185.31250675 -239.3541593 184.31250676 -238.4375 183.3125 C-203.60416667 145.3125 -168.77083333 107.3125 -133.9375 69.3125 C-133.48366943 68.81733887 -133.02983887 68.32217773 -132.56225586 67.81201172 C-131.64669782 66.81336894 -130.73084549 65.8149959 -129.81469727 64.81689453 C-127.50356451 62.29827342 -125.19794064 59.77498266 -122.90234375 57.2421875 C-120.18422277 54.24657078 -117.44085631 51.27578964 -114.6875 48.3125 C-113.52347656 47.04792969 -113.52347656 47.04792969 -112.3359375 45.7578125 C-83.33808246 15.40219836 -41.44990219 -0.2013281 0 0 Z " fill="#E696C8" transform="translate(3039.6875,1036.6875)"/>
</svg>
